<svg width="43" height="43" viewBox="0 0 43 43" fill="none" xmlns="http://www.w3.org/2000/svg">
<path d="M25.9 11.1351C25.5335 11.509 25.3283 12.0116 25.3283 12.5351C25.3283 13.0586 25.5335 13.5613 25.9 13.9351L29.1 17.1351C29.4738 17.5016 29.9765 17.7068 30.5 17.7068C31.0235 17.7068 31.5261 17.5016 31.9 17.1351L39.44 9.59512C40.4457 11.8175 40.7502 14.2936 40.3129 16.6934C39.8756 19.0932 38.7174 21.3028 36.9925 23.0277C35.2677 24.7525 33.0581 25.9108 30.6583 26.348C28.2585 26.7853 25.7824 26.4808 23.56 25.4751L9.73999 39.2951C8.94434 40.0908 7.8652 40.5378 6.73999 40.5378C5.61477 40.5378 4.53563 40.0908 3.73999 39.2951C2.94434 38.4995 2.49734 37.4203 2.49734 36.2951C2.49734 35.1699 2.94434 34.0908 3.73999 33.2951L17.56 19.4751C16.5543 17.2527 16.2498 14.7766 16.6871 12.3768C17.1243 9.977 18.2826 7.76743 20.0074 6.04256C21.7323 4.31769 23.9419 3.15945 26.3417 2.7222C28.7415 2.28495 31.2176 2.58945 33.44 3.59512L25.9 11.1351Z" stroke="white" stroke-width="4" stroke-linecap="round" stroke-linejoin="round"/>
</svg>
