<svg width="49" height="45" viewBox="0 0 49 45" fill="none" xmlns="http://www.w3.org/2000/svg">
<g filter="url(#filter0_d_4036_11)">
<path d="M18.5 2.53516H10.5C9.43913 2.53516 8.42172 2.95658 7.67157 3.70673C6.92143 4.45687 6.5 5.47429 6.5 6.53516V14.5352M18.5 2.53516H38.5C39.5609 2.53516 40.5783 2.95658 41.3284 3.70673C42.0786 4.45687 42.5 5.47429 42.5 6.53516V14.5352M18.5 2.53516V38.5352M6.5 14.5352V34.5352C6.5 35.596 6.92143 36.6134 7.67157 37.3636C8.42172 38.1137 9.43913 38.5352 10.5 38.5352H18.5M6.5 14.5352H42.5M42.5 14.5352V34.5352C42.5 35.596 42.0786 36.6134 41.3284 37.3636C40.5783 38.1137 39.5609 38.5352 38.5 38.5352H18.5" stroke="white" stroke-width="4" stroke-linecap="round" stroke-linejoin="round" shape-rendering="crispEdges"/>
</g>
<defs>
<filter id="filter0_d_4036_11" x="0.5" y="0.535156" width="48" height="48" filterUnits="userSpaceOnUse" color-interpolation-filters="sRGB">
<feFlood flood-opacity="0" result="BackgroundImageFix"/>
<feColorMatrix in="SourceAlpha" type="matrix" values="0 0 0 0 0 0 0 0 0 0 0 0 0 0 0 0 0 0 127 0" result="hardAlpha"/>
<feOffset dy="4"/>
<feGaussianBlur stdDeviation="2"/>
<feComposite in2="hardAlpha" operator="out"/>
<feColorMatrix type="matrix" values="0 0 0 0 0 0 0 0 0 0 0 0 0 0 0 0 0 0 0.25 0"/>
<feBlend mode="normal" in2="BackgroundImageFix" result="effect1_dropShadow_4036_11"/>
<feBlend mode="normal" in="SourceGraphic" in2="effect1_dropShadow_4036_11" result="shape"/>
</filter>
</defs>
</svg>
