<svg width="41" height="41" viewBox="0 0 41 41" fill="none" xmlns="http://www.w3.org/2000/svg">
<path d="M38.5 19.5352C38.5069 22.1749 37.8901 24.779 36.7 27.1352C35.2889 29.9587 33.1195 32.3336 30.4349 33.9938C27.7503 35.654 24.6565 36.534 21.5 36.5352C18.8603 36.5421 16.2562 35.9254 13.9 34.7352L2.5 38.5352L6.3 27.1352C5.10986 24.779 4.49312 22.1749 4.5 19.5352C4.50122 16.3787 5.38122 13.2849 7.04144 10.6003C8.70165 7.91571 11.0765 5.74635 13.9 4.33521C16.2562 3.14508 18.8603 2.52833 21.5 2.53521H22.5C26.6687 2.7652 30.6061 4.52474 33.5583 7.47693C36.5105 10.4291 38.27 14.3665 38.5 18.5352V19.5352Z" stroke="white" stroke-width="4" stroke-linecap="round" stroke-linejoin="round"/>
</svg>
