<svg width="245" height="205" viewBox="0 0 245 205" fill="none" xmlns="http://www.w3.org/2000/svg">
<rect x="72.5" y="12.5352" width="100" height="100" rx="50" fill="#331436"/>
<path d="M140.5 61.5352C140.507 64.1749 139.89 66.779 138.7 69.1352C137.289 71.9587 135.12 74.3336 132.435 75.9938C129.75 77.654 126.656 78.534 123.5 78.5352C120.86 78.5421 118.256 77.9254 115.9 76.7352L104.5 80.5352L108.3 69.1352C107.11 66.779 106.493 64.1749 106.5 61.5352C106.501 58.3787 107.381 55.2849 109.041 52.6003C110.702 49.9157 113.077 47.7463 115.9 46.3352C118.256 45.1451 120.86 44.5283 123.5 44.5352H124.5C128.669 44.7652 132.606 46.5247 135.558 49.4769C138.51 52.4291 140.27 56.3665 140.5 60.5352V61.5352Z" stroke="white" stroke-width="4" stroke-linecap="round" stroke-linejoin="round"/>
<path d="M41.1426 149.014H43.0176C42.9199 149.912 42.6628 150.716 42.2461 151.426C41.8294 152.135 41.2402 152.699 40.4785 153.115C39.7168 153.525 38.7663 153.73 37.627 153.73C36.7936 153.73 36.0352 153.574 35.3516 153.262C34.6745 152.949 34.0918 152.507 33.6035 151.934C33.1152 151.354 32.7376 150.661 32.4707 149.854C32.2103 149.04 32.0801 148.135 32.0801 147.139V145.723C32.0801 144.727 32.2103 143.825 32.4707 143.018C32.7376 142.204 33.1185 141.507 33.6133 140.928C34.1146 140.348 34.7168 139.902 35.4199 139.59C36.123 139.277 36.9141 139.121 37.793 139.121C38.8672 139.121 39.7754 139.323 40.5176 139.727C41.2598 140.13 41.8359 140.69 42.2461 141.406C42.6628 142.116 42.9199 142.939 43.0176 143.877H41.1426C41.0514 143.213 40.8822 142.643 40.6348 142.168C40.3874 141.686 40.0358 141.315 39.5801 141.055C39.1243 140.794 38.5286 140.664 37.793 140.664C37.1615 140.664 36.6048 140.785 36.123 141.025C35.6478 141.266 35.2474 141.608 34.9219 142.051C34.6029 142.493 34.362 143.024 34.1992 143.643C34.0365 144.261 33.9551 144.948 33.9551 145.703V147.139C33.9551 147.835 34.0267 148.49 34.1699 149.102C34.3197 149.714 34.5443 150.251 34.8438 150.713C35.1432 151.175 35.5241 151.54 35.9863 151.807C36.4486 152.067 36.9954 152.197 37.627 152.197C38.4277 152.197 39.0658 152.07 39.541 151.816C40.0163 151.562 40.3743 151.198 40.6152 150.723C40.8626 150.247 41.0384 149.678 41.1426 149.014ZM44.834 148.369V148.145C44.834 147.383 44.9447 146.676 45.166 146.025C45.3874 145.368 45.7064 144.798 46.123 144.316C46.5397 143.828 47.0443 143.451 47.6367 143.184C48.2292 142.91 48.8932 142.773 49.6289 142.773C50.3711 142.773 51.0384 142.91 51.6309 143.184C52.2298 143.451 52.7376 143.828 53.1543 144.316C53.5775 144.798 53.8997 145.368 54.1211 146.025C54.3424 146.676 54.4531 147.383 54.4531 148.145V148.369C54.4531 149.131 54.3424 149.837 54.1211 150.488C53.8997 151.139 53.5775 151.709 53.1543 152.197C52.7376 152.679 52.2331 153.057 51.6406 153.33C51.0547 153.597 50.3906 153.73 49.6484 153.73C48.9062 153.73 48.2389 153.597 47.6465 153.33C47.054 153.057 46.5462 152.679 46.123 152.197C45.7064 151.709 45.3874 151.139 45.166 150.488C44.9447 149.837 44.834 149.131 44.834 148.369ZM46.6406 148.145V148.369C46.6406 148.896 46.7025 149.395 46.8262 149.863C46.9499 150.326 47.1354 150.736 47.3828 151.094C47.6367 151.452 47.9525 151.735 48.3301 151.943C48.7077 152.145 49.1471 152.246 49.6484 152.246C50.1432 152.246 50.5762 152.145 50.9473 151.943C51.3249 151.735 51.6374 151.452 51.8848 151.094C52.1322 150.736 52.3177 150.326 52.4414 149.863C52.5716 149.395 52.6367 148.896 52.6367 148.369V148.145C52.6367 147.624 52.5716 147.132 52.4414 146.67C52.3177 146.201 52.1289 145.788 51.875 145.43C51.6276 145.065 51.3151 144.779 50.9375 144.57C50.5664 144.362 50.1302 144.258 49.6289 144.258C49.1341 144.258 48.6979 144.362 48.3203 144.57C47.9492 144.779 47.6367 145.065 47.3828 145.43C47.1354 145.788 46.9499 146.201 46.8262 146.67C46.7025 147.132 46.6406 147.624 46.6406 148.145ZM58.5156 145.068V153.535H56.6992V142.969H58.418L58.5156 145.068ZM58.1445 147.852L57.3047 147.822C57.3112 147.1 57.4056 146.432 57.5879 145.82C57.7702 145.202 58.0404 144.665 58.3984 144.209C58.7565 143.753 59.2025 143.402 59.7363 143.154C60.2702 142.9 60.8887 142.773 61.5918 142.773C62.0866 142.773 62.5423 142.845 62.959 142.988C63.3757 143.125 63.737 143.343 64.043 143.643C64.349 143.942 64.5866 144.326 64.7559 144.795C64.9251 145.264 65.0098 145.83 65.0098 146.494V153.535H63.2031V146.582C63.2031 146.029 63.1087 145.586 62.9199 145.254C62.7376 144.922 62.4772 144.681 62.1387 144.531C61.8001 144.375 61.403 144.297 60.9473 144.297C60.4134 144.297 59.9674 144.391 59.6094 144.58C59.2513 144.769 58.9648 145.029 58.75 145.361C58.5352 145.693 58.3789 146.074 58.2812 146.504C58.1901 146.927 58.1445 147.376 58.1445 147.852ZM64.9902 146.855L63.7793 147.227C63.7858 146.647 63.8802 146.09 64.0625 145.557C64.2513 145.023 64.5215 144.548 64.873 144.131C65.2311 143.714 65.6706 143.385 66.1914 143.145C66.7122 142.897 67.3079 142.773 67.9785 142.773C68.5449 142.773 69.0462 142.848 69.4824 142.998C69.9251 143.148 70.2962 143.379 70.5957 143.691C70.9017 143.997 71.1328 144.391 71.2891 144.873C71.4453 145.355 71.5234 145.928 71.5234 146.592V153.535H69.707V146.572C69.707 145.98 69.6126 145.521 69.4238 145.195C69.2415 144.863 68.9811 144.632 68.6426 144.502C68.3105 144.365 67.9134 144.297 67.4512 144.297C67.054 144.297 66.7025 144.365 66.3965 144.502C66.0905 144.639 65.8333 144.827 65.625 145.068C65.4167 145.303 65.2572 145.573 65.1465 145.879C65.0423 146.185 64.9902 146.51 64.9902 146.855ZM76.0547 145.068V153.535H74.2383V142.969H75.957L76.0547 145.068ZM75.6836 147.852L74.8438 147.822C74.8503 147.1 74.9447 146.432 75.127 145.82C75.3092 145.202 75.5794 144.665 75.9375 144.209C76.2956 143.753 76.7415 143.402 77.2754 143.154C77.8092 142.9 78.4277 142.773 79.1309 142.773C79.6257 142.773 80.0814 142.845 80.498 142.988C80.9147 143.125 81.276 143.343 81.582 143.643C81.888 143.942 82.1257 144.326 82.2949 144.795C82.4642 145.264 82.5488 145.83 82.5488 146.494V153.535H80.7422V146.582C80.7422 146.029 80.6478 145.586 80.459 145.254C80.2767 144.922 80.0163 144.681 79.6777 144.531C79.3392 144.375 78.9421 144.297 78.4863 144.297C77.9525 144.297 77.5065 144.391 77.1484 144.58C76.7904 144.769 76.5039 145.029 76.2891 145.361C76.0742 145.693 75.918 146.074 75.8203 146.504C75.7292 146.927 75.6836 147.376 75.6836 147.852ZM82.5293 146.855L81.3184 147.227C81.3249 146.647 81.4193 146.09 81.6016 145.557C81.7904 145.023 82.0605 144.548 82.4121 144.131C82.7702 143.714 83.2096 143.385 83.7305 143.145C84.2513 142.897 84.847 142.773 85.5176 142.773C86.084 142.773 86.5853 142.848 87.0215 142.998C87.4642 143.148 87.8353 143.379 88.1348 143.691C88.4408 143.997 88.6719 144.391 88.8281 144.873C88.9844 145.355 89.0625 145.928 89.0625 146.592V153.535H87.2461V146.572C87.2461 145.98 87.1517 145.521 86.9629 145.195C86.7806 144.863 86.5202 144.632 86.1816 144.502C85.8496 144.365 85.4525 144.297 84.9902 144.297C84.5931 144.297 84.2415 144.365 83.9355 144.502C83.6296 144.639 83.3724 144.827 83.1641 145.068C82.9557 145.303 82.7962 145.573 82.6855 145.879C82.5814 146.185 82.5293 146.51 82.5293 146.855ZM98.2617 151.094V142.969H100.078V153.535H98.3496L98.2617 151.094ZM98.6035 148.867L99.3555 148.848C99.3555 149.551 99.2806 150.202 99.1309 150.801C98.9876 151.393 98.7533 151.908 98.4277 152.344C98.1022 152.78 97.6758 153.122 97.1484 153.369C96.6211 153.61 95.9798 153.73 95.2246 153.73C94.7103 153.73 94.2383 153.656 93.8086 153.506C93.3854 153.356 93.0208 153.125 92.7148 152.812C92.4089 152.5 92.1712 152.093 92.002 151.592C91.8392 151.09 91.7578 150.488 91.7578 149.785V142.969H93.5645V149.805C93.5645 150.28 93.6165 150.674 93.7207 150.986C93.8314 151.292 93.9779 151.536 94.1602 151.719C94.349 151.895 94.5573 152.018 94.7852 152.09C95.0195 152.161 95.2604 152.197 95.5078 152.197C96.276 152.197 96.8848 152.051 97.334 151.758C97.7832 151.458 98.1055 151.058 98.3008 150.557C98.5026 150.049 98.6035 149.486 98.6035 148.867ZM104.639 145.225V153.535H102.832V142.969H104.541L104.639 145.225ZM104.209 147.852L103.457 147.822C103.464 147.1 103.571 146.432 103.779 145.82C103.988 145.202 104.281 144.665 104.658 144.209C105.036 143.753 105.485 143.402 106.006 143.154C106.533 142.9 107.116 142.773 107.754 142.773C108.275 142.773 108.743 142.845 109.16 142.988C109.577 143.125 109.932 143.346 110.225 143.652C110.524 143.958 110.752 144.355 110.908 144.844C111.064 145.326 111.143 145.915 111.143 146.611V153.535H109.326V146.592C109.326 146.038 109.245 145.596 109.082 145.264C108.919 144.925 108.682 144.681 108.369 144.531C108.057 144.375 107.673 144.297 107.217 144.297C106.768 144.297 106.357 144.391 105.986 144.58C105.622 144.769 105.306 145.029 105.039 145.361C104.779 145.693 104.574 146.074 104.424 146.504C104.281 146.927 104.209 147.376 104.209 147.852ZM115.85 142.969V153.535H114.033V142.969H115.85ZM113.896 140.166C113.896 139.873 113.984 139.626 114.16 139.424C114.342 139.222 114.609 139.121 114.961 139.121C115.306 139.121 115.57 139.222 115.752 139.424C115.941 139.626 116.035 139.873 116.035 140.166C116.035 140.446 115.941 140.687 115.752 140.889C115.57 141.084 115.306 141.182 114.961 141.182C114.609 141.182 114.342 141.084 114.16 140.889C113.984 140.687 113.896 140.446 113.896 140.166ZM122.979 152.246C123.408 152.246 123.805 152.158 124.17 151.982C124.535 151.807 124.834 151.566 125.068 151.26C125.303 150.947 125.436 150.592 125.469 150.195H127.188C127.155 150.82 126.943 151.403 126.553 151.943C126.169 152.477 125.664 152.91 125.039 153.242C124.414 153.568 123.727 153.73 122.979 153.73C122.184 153.73 121.491 153.59 120.898 153.311C120.312 153.031 119.824 152.646 119.434 152.158C119.049 151.67 118.76 151.11 118.564 150.479C118.376 149.84 118.281 149.167 118.281 148.457V148.047C118.281 147.337 118.376 146.667 118.564 146.035C118.76 145.397 119.049 144.834 119.434 144.346C119.824 143.857 120.312 143.473 120.898 143.193C121.491 142.913 122.184 142.773 122.979 142.773C123.805 142.773 124.528 142.943 125.146 143.281C125.765 143.613 126.25 144.069 126.602 144.648C126.96 145.221 127.155 145.872 127.188 146.602H125.469C125.436 146.165 125.312 145.771 125.098 145.42C124.889 145.068 124.603 144.788 124.238 144.58C123.88 144.365 123.46 144.258 122.979 144.258C122.425 144.258 121.96 144.368 121.582 144.59C121.211 144.805 120.915 145.098 120.693 145.469C120.479 145.833 120.322 146.24 120.225 146.689C120.133 147.132 120.088 147.585 120.088 148.047V148.457C120.088 148.919 120.133 149.375 120.225 149.824C120.316 150.273 120.469 150.68 120.684 151.045C120.905 151.41 121.201 151.702 121.572 151.924C121.95 152.139 122.419 152.246 122.979 152.246ZM135.449 151.729V146.289C135.449 145.872 135.365 145.511 135.195 145.205C135.033 144.893 134.785 144.652 134.453 144.482C134.121 144.313 133.711 144.229 133.223 144.229C132.767 144.229 132.367 144.307 132.021 144.463C131.683 144.619 131.416 144.824 131.221 145.078C131.032 145.332 130.938 145.605 130.938 145.898H129.131C129.131 145.521 129.229 145.146 129.424 144.775C129.619 144.404 129.899 144.069 130.264 143.77C130.635 143.464 131.077 143.223 131.592 143.047C132.113 142.865 132.692 142.773 133.33 142.773C134.098 142.773 134.775 142.904 135.361 143.164C135.954 143.424 136.416 143.818 136.748 144.346C137.087 144.867 137.256 145.521 137.256 146.309V151.23C137.256 151.582 137.285 151.956 137.344 152.354C137.409 152.751 137.503 153.092 137.627 153.379V153.535H135.742C135.651 153.327 135.579 153.05 135.527 152.705C135.475 152.354 135.449 152.028 135.449 151.729ZM135.762 147.129L135.781 148.398H133.955C133.441 148.398 132.982 148.441 132.578 148.525C132.174 148.604 131.836 148.724 131.562 148.887C131.289 149.049 131.081 149.255 130.938 149.502C130.794 149.743 130.723 150.026 130.723 150.352C130.723 150.684 130.798 150.986 130.947 151.26C131.097 151.533 131.322 151.751 131.621 151.914C131.927 152.07 132.301 152.148 132.744 152.148C133.298 152.148 133.786 152.031 134.209 151.797C134.632 151.562 134.967 151.276 135.215 150.938C135.469 150.599 135.605 150.27 135.625 149.951L136.396 150.82C136.351 151.094 136.227 151.396 136.025 151.729C135.824 152.061 135.553 152.38 135.215 152.686C134.883 152.985 134.486 153.236 134.023 153.438C133.568 153.633 133.053 153.73 132.48 153.73C131.764 153.73 131.136 153.59 130.596 153.311C130.062 153.031 129.645 152.656 129.346 152.188C129.053 151.712 128.906 151.182 128.906 150.596C128.906 150.029 129.017 149.531 129.238 149.102C129.46 148.665 129.779 148.304 130.195 148.018C130.612 147.725 131.113 147.503 131.699 147.354C132.285 147.204 132.939 147.129 133.662 147.129H135.762ZM144.521 142.969V144.355H138.809V142.969H144.521ZM140.742 140.4H142.549V150.918C142.549 151.276 142.604 151.546 142.715 151.729C142.826 151.911 142.969 152.031 143.145 152.09C143.32 152.148 143.509 152.178 143.711 152.178C143.861 152.178 144.017 152.165 144.18 152.139C144.349 152.106 144.476 152.08 144.561 152.061L144.57 153.535C144.427 153.581 144.238 153.623 144.004 153.662C143.776 153.708 143.499 153.73 143.174 153.73C142.731 153.73 142.324 153.643 141.953 153.467C141.582 153.291 141.286 152.998 141.064 152.588C140.85 152.171 140.742 151.611 140.742 150.908V140.4ZM148.604 142.969V153.535H146.787V142.969H148.604ZM146.65 140.166C146.65 139.873 146.738 139.626 146.914 139.424C147.096 139.222 147.363 139.121 147.715 139.121C148.06 139.121 148.324 139.222 148.506 139.424C148.695 139.626 148.789 139.873 148.789 140.166C148.789 140.446 148.695 140.687 148.506 140.889C148.324 141.084 148.06 141.182 147.715 141.182C147.363 141.182 147.096 141.084 146.914 140.889C146.738 140.687 146.65 140.446 146.65 140.166ZM151.025 148.369V148.145C151.025 147.383 151.136 146.676 151.357 146.025C151.579 145.368 151.898 144.798 152.314 144.316C152.731 143.828 153.236 143.451 153.828 143.184C154.421 142.91 155.085 142.773 155.82 142.773C156.562 142.773 157.23 142.91 157.822 143.184C158.421 143.451 158.929 143.828 159.346 144.316C159.769 144.798 160.091 145.368 160.312 146.025C160.534 146.676 160.645 147.383 160.645 148.145V148.369C160.645 149.131 160.534 149.837 160.312 150.488C160.091 151.139 159.769 151.709 159.346 152.197C158.929 152.679 158.424 153.057 157.832 153.33C157.246 153.597 156.582 153.73 155.84 153.73C155.098 153.73 154.43 153.597 153.838 153.33C153.245 153.057 152.738 152.679 152.314 152.197C151.898 151.709 151.579 151.139 151.357 150.488C151.136 149.837 151.025 149.131 151.025 148.369ZM152.832 148.145V148.369C152.832 148.896 152.894 149.395 153.018 149.863C153.141 150.326 153.327 150.736 153.574 151.094C153.828 151.452 154.144 151.735 154.521 151.943C154.899 152.145 155.339 152.246 155.84 152.246C156.335 152.246 156.768 152.145 157.139 151.943C157.516 151.735 157.829 151.452 158.076 151.094C158.324 150.736 158.509 150.326 158.633 149.863C158.763 149.395 158.828 148.896 158.828 148.369V148.145C158.828 147.624 158.763 147.132 158.633 146.67C158.509 146.201 158.32 145.788 158.066 145.43C157.819 145.065 157.507 144.779 157.129 144.57C156.758 144.362 156.322 144.258 155.82 144.258C155.326 144.258 154.889 144.362 154.512 144.57C154.141 144.779 153.828 145.065 153.574 145.43C153.327 145.788 153.141 146.201 153.018 146.67C152.894 147.132 152.832 147.624 152.832 148.145ZM164.717 145.225V153.535H162.91V142.969H164.619L164.717 145.225ZM164.287 147.852L163.535 147.822C163.542 147.1 163.649 146.432 163.857 145.82C164.066 145.202 164.359 144.665 164.736 144.209C165.114 143.753 165.563 143.402 166.084 143.154C166.611 142.9 167.194 142.773 167.832 142.773C168.353 142.773 168.822 142.845 169.238 142.988C169.655 143.125 170.01 143.346 170.303 143.652C170.602 143.958 170.83 144.355 170.986 144.844C171.143 145.326 171.221 145.915 171.221 146.611V153.535H169.404V146.592C169.404 146.038 169.323 145.596 169.16 145.264C168.997 144.925 168.76 144.681 168.447 144.531C168.135 144.375 167.751 144.297 167.295 144.297C166.846 144.297 166.436 144.391 166.064 144.58C165.7 144.769 165.384 145.029 165.117 145.361C164.857 145.693 164.652 146.074 164.502 146.504C164.359 146.927 164.287 147.376 164.287 147.852ZM188.486 145.43V146.963H180.791V145.43H188.486ZM181.084 139.316V153.535H179.199V139.316H181.084ZM190.127 139.316V153.535H188.252V139.316H190.127ZM199.668 151.094V142.969H201.484V153.535H199.756L199.668 151.094ZM200.01 148.867L200.762 148.848C200.762 149.551 200.687 150.202 200.537 150.801C200.394 151.393 200.16 151.908 199.834 152.344C199.508 152.78 199.082 153.122 198.555 153.369C198.027 153.61 197.386 153.73 196.631 153.73C196.117 153.73 195.645 153.656 195.215 153.506C194.792 153.356 194.427 153.125 194.121 152.812C193.815 152.5 193.577 152.093 193.408 151.592C193.245 151.09 193.164 150.488 193.164 149.785V142.969H194.971V149.805C194.971 150.28 195.023 150.674 195.127 150.986C195.238 151.292 195.384 151.536 195.566 151.719C195.755 151.895 195.964 152.018 196.191 152.09C196.426 152.161 196.667 152.197 196.914 152.197C197.682 152.197 198.291 152.051 198.74 151.758C199.189 151.458 199.512 151.058 199.707 150.557C199.909 150.049 200.01 149.486 200.01 148.867ZM204.229 138.535H206.045V151.484L205.889 153.535H204.229V138.535ZM213.184 148.164V148.369C213.184 149.137 213.092 149.85 212.91 150.508C212.728 151.159 212.461 151.725 212.109 152.207C211.758 152.689 211.328 153.063 210.82 153.33C210.312 153.597 209.73 153.73 209.072 153.73C208.402 153.73 207.812 153.617 207.305 153.389C206.803 153.154 206.38 152.819 206.035 152.383C205.69 151.947 205.413 151.419 205.205 150.801C205.003 150.182 204.863 149.486 204.785 148.711V147.812C204.863 147.031 205.003 146.331 205.205 145.713C205.413 145.094 205.69 144.567 206.035 144.131C206.38 143.688 206.803 143.353 207.305 143.125C207.806 142.891 208.389 142.773 209.053 142.773C209.717 142.773 210.306 142.904 210.82 143.164C211.335 143.418 211.764 143.783 212.109 144.258C212.461 144.733 212.728 145.303 212.91 145.967C213.092 146.624 213.184 147.357 213.184 148.164ZM211.367 148.369V148.164C211.367 147.637 211.318 147.142 211.221 146.68C211.123 146.211 210.967 145.801 210.752 145.449C210.537 145.091 210.254 144.811 209.902 144.609C209.551 144.401 209.118 144.297 208.604 144.297C208.148 144.297 207.751 144.375 207.412 144.531C207.08 144.688 206.797 144.899 206.562 145.166C206.328 145.426 206.136 145.726 205.986 146.064C205.843 146.396 205.736 146.742 205.664 147.1V149.453C205.768 149.909 205.938 150.348 206.172 150.771C206.413 151.188 206.732 151.53 207.129 151.797C207.533 152.064 208.031 152.197 208.623 152.197C209.111 152.197 209.528 152.1 209.873 151.904C210.225 151.702 210.508 151.426 210.723 151.074C210.944 150.723 211.107 150.316 211.211 149.854C211.315 149.391 211.367 148.896 211.367 148.369Z" fill="#331436"/>
<path d="M12.8906 181.918H14.3906C14.3125 182.637 14.1068 183.28 13.7734 183.848C13.4401 184.415 12.9688 184.866 12.3594 185.199C11.75 185.527 10.9896 185.691 10.0781 185.691C9.41146 185.691 8.80469 185.566 8.25781 185.316C7.71615 185.066 7.25 184.712 6.85938 184.254C6.46875 183.79 6.16667 183.236 5.95312 182.59C5.74479 181.939 5.64062 181.215 5.64062 180.418V179.285C5.64062 178.488 5.74479 177.767 5.95312 177.121C6.16667 176.47 6.47135 175.913 6.86719 175.449C7.26823 174.986 7.75 174.629 8.3125 174.379C8.875 174.129 9.50781 174.004 10.2109 174.004C11.0703 174.004 11.7969 174.165 12.3906 174.488C12.9844 174.811 13.4453 175.259 13.7734 175.832C14.1068 176.4 14.3125 177.059 14.3906 177.809H12.8906C12.8177 177.277 12.6823 176.822 12.4844 176.441C12.2865 176.056 12.0052 175.759 11.6406 175.551C11.276 175.342 10.7995 175.238 10.2109 175.238C9.70573 175.238 9.26042 175.335 8.875 175.527C8.49479 175.72 8.17448 175.993 7.91406 176.348C7.65885 176.702 7.46615 177.126 7.33594 177.621C7.20573 178.116 7.14062 178.665 7.14062 179.27V180.418C7.14062 180.975 7.19792 181.499 7.3125 181.988C7.43229 182.478 7.61198 182.908 7.85156 183.277C8.09115 183.647 8.39583 183.939 8.76562 184.152C9.13542 184.361 9.57292 184.465 10.0781 184.465C10.7188 184.465 11.2292 184.363 11.6094 184.16C11.9896 183.957 12.276 183.665 12.4688 183.285C12.6667 182.905 12.8073 182.449 12.8906 181.918ZM19.7344 185.691C19.1458 185.691 18.612 185.592 18.1328 185.395C17.6589 185.191 17.25 184.908 16.9062 184.543C16.5677 184.178 16.3073 183.746 16.125 183.246C15.9427 182.746 15.8516 182.199 15.8516 181.605V181.277C15.8516 180.59 15.9531 179.978 16.1562 179.441C16.3594 178.9 16.6354 178.441 16.9844 178.066C17.3333 177.691 17.7292 177.408 18.1719 177.215C18.6146 177.022 19.0729 176.926 19.5469 176.926C20.151 176.926 20.6719 177.03 21.1094 177.238C21.5521 177.447 21.9141 177.738 22.1953 178.113C22.4766 178.483 22.6849 178.921 22.8203 179.426C22.9557 179.926 23.0234 180.473 23.0234 181.066V181.715H16.7109V180.535H21.5781V180.426C21.5573 180.051 21.4792 179.686 21.3438 179.332C21.2135 178.978 21.0052 178.686 20.7188 178.457C20.4323 178.228 20.0417 178.113 19.5469 178.113C19.2188 178.113 18.9167 178.184 18.6406 178.324C18.3646 178.46 18.1276 178.663 17.9297 178.934C17.7318 179.204 17.5781 179.535 17.4688 179.926C17.3594 180.316 17.3047 180.767 17.3047 181.277V181.605C17.3047 182.007 17.3594 182.384 17.4688 182.738C17.5833 183.087 17.7474 183.395 17.9609 183.66C18.1797 183.926 18.4427 184.134 18.75 184.285C19.0625 184.436 19.4167 184.512 19.8125 184.512C20.3229 184.512 20.7552 184.408 21.1094 184.199C21.4635 183.991 21.7734 183.712 22.0391 183.363L22.9141 184.059C22.7318 184.335 22.5 184.598 22.2188 184.848C21.9375 185.098 21.5911 185.301 21.1797 185.457C20.7734 185.613 20.2917 185.691 19.7344 185.691ZM26.1562 178.887V185.535H24.7109V177.082H26.0781L26.1562 178.887ZM25.8125 180.988L25.2109 180.965C25.2161 180.387 25.3021 179.853 25.4688 179.363C25.6354 178.868 25.8698 178.439 26.1719 178.074C26.474 177.71 26.8333 177.428 27.25 177.23C27.6719 177.027 28.138 176.926 28.6484 176.926C29.0651 176.926 29.4401 176.983 29.7734 177.098C30.1068 177.207 30.3906 177.384 30.625 177.629C30.8646 177.874 31.0469 178.191 31.1719 178.582C31.2969 178.967 31.3594 179.439 31.3594 179.996V185.535H29.9062V179.98C29.9062 179.538 29.8411 179.184 29.7109 178.918C29.5807 178.647 29.3906 178.452 29.1406 178.332C28.8906 178.207 28.5833 178.145 28.2188 178.145C27.8594 178.145 27.5312 178.22 27.2344 178.371C26.9427 178.522 26.6901 178.73 26.4766 178.996C26.2682 179.262 26.1042 179.566 25.9844 179.91C25.8698 180.249 25.8125 180.608 25.8125 180.988ZM37.0938 177.082V178.191H32.5234V177.082H37.0938ZM34.0703 175.027H35.5156V183.441C35.5156 183.728 35.5599 183.944 35.6484 184.09C35.737 184.236 35.8516 184.332 35.9922 184.379C36.1328 184.426 36.2839 184.449 36.4453 184.449C36.5651 184.449 36.6901 184.439 36.8203 184.418C36.9557 184.392 37.0573 184.371 37.125 184.355L37.1328 185.535C37.0182 185.572 36.8672 185.605 36.6797 185.637C36.4974 185.673 36.276 185.691 36.0156 185.691C35.6615 185.691 35.3359 185.621 35.0391 185.48C34.7422 185.34 34.5052 185.105 34.3281 184.777C34.1562 184.444 34.0703 183.996 34.0703 183.434V175.027ZM40.2344 178.41V185.535H38.7891V177.082H40.1953L40.2344 178.41ZM42.875 177.035L42.8672 178.379C42.7474 178.353 42.6328 178.337 42.5234 178.332C42.4193 178.322 42.2995 178.316 42.1641 178.316C41.8307 178.316 41.5365 178.368 41.2812 178.473C41.026 178.577 40.8099 178.723 40.6328 178.91C40.4557 179.098 40.3151 179.322 40.2109 179.582C40.112 179.837 40.0469 180.118 40.0156 180.426L39.6094 180.66C39.6094 180.15 39.6589 179.671 39.7578 179.223C39.862 178.775 40.0208 178.379 40.2344 178.035C40.4479 177.686 40.7188 177.415 41.0469 177.223C41.3802 177.025 41.776 176.926 42.2344 176.926C42.3385 176.926 42.4583 176.939 42.5938 176.965C42.7292 176.986 42.8229 177.009 42.875 177.035ZM48.8828 184.09V179.738C48.8828 179.405 48.8151 179.116 48.6797 178.871C48.5495 178.621 48.3516 178.428 48.0859 178.293C47.8203 178.158 47.4922 178.09 47.1016 178.09C46.737 178.09 46.4167 178.152 46.1406 178.277C45.8698 178.402 45.6562 178.566 45.5 178.77C45.349 178.973 45.2734 179.191 45.2734 179.426H43.8281C43.8281 179.124 43.9062 178.824 44.0625 178.527C44.2188 178.23 44.4427 177.962 44.7344 177.723C45.0312 177.478 45.3854 177.285 45.7969 177.145C46.2135 176.999 46.6771 176.926 47.1875 176.926C47.8021 176.926 48.3438 177.03 48.8125 177.238C49.2865 177.447 49.6562 177.762 49.9219 178.184C50.1927 178.6 50.3281 179.124 50.3281 179.754V183.691C50.3281 183.973 50.3516 184.272 50.3984 184.59C50.4505 184.908 50.526 185.181 50.625 185.41V185.535H49.1172C49.0443 185.368 48.987 185.147 48.9453 184.871C48.9036 184.59 48.8828 184.329 48.8828 184.09ZM49.1328 180.41L49.1484 181.426H47.6875C47.276 181.426 46.9089 181.46 46.5859 181.527C46.263 181.59 45.9922 181.686 45.7734 181.816C45.5547 181.947 45.388 182.111 45.2734 182.309C45.1589 182.501 45.1016 182.728 45.1016 182.988C45.1016 183.254 45.1615 183.496 45.2812 183.715C45.401 183.934 45.5807 184.108 45.8203 184.238C46.0651 184.363 46.3646 184.426 46.7188 184.426C47.1615 184.426 47.5521 184.332 47.8906 184.145C48.2292 183.957 48.4974 183.728 48.6953 183.457C48.8984 183.186 49.0078 182.923 49.0234 182.668L49.6406 183.363C49.6042 183.582 49.5052 183.824 49.3438 184.09C49.1823 184.355 48.9661 184.611 48.6953 184.855C48.4297 185.095 48.112 185.296 47.7422 185.457C47.3776 185.613 46.9661 185.691 46.5078 185.691C45.9349 185.691 45.4323 185.579 45 185.355C44.5729 185.132 44.2396 184.832 44 184.457C43.7656 184.077 43.6484 183.652 43.6484 183.184C43.6484 182.73 43.737 182.332 43.9141 181.988C44.0911 181.639 44.3464 181.35 44.6797 181.121C45.013 180.887 45.4141 180.71 45.8828 180.59C46.3516 180.47 46.875 180.41 47.4531 180.41H49.1328ZM54.1719 173.535V185.535H52.7188V173.535H54.1719ZM58.0625 177.082V185.535H56.6094V177.082H58.0625ZM56.5 174.84C56.5 174.605 56.5703 174.408 56.7109 174.246C56.8568 174.085 57.0703 174.004 57.3516 174.004C57.6276 174.004 57.8385 174.085 57.9844 174.246C58.1354 174.408 58.2109 174.605 58.2109 174.84C58.2109 175.064 58.1354 175.257 57.9844 175.418C57.8385 175.574 57.6276 175.652 57.3516 175.652C57.0703 175.652 56.8568 175.574 56.7109 175.418C56.5703 175.257 56.5 175.064 56.5 174.84ZM66.6797 184.348V185.535H60.5312V184.348H66.6797ZM66.4531 178.105L60.8594 185.535H59.9766V184.473L65.5312 177.082H66.4531V178.105ZM65.8125 177.082V178.277H60.0391V177.082H65.8125ZM71.7031 185.691C71.1146 185.691 70.5807 185.592 70.1016 185.395C69.6276 185.191 69.2188 184.908 68.875 184.543C68.5365 184.178 68.276 183.746 68.0938 183.246C67.9115 182.746 67.8203 182.199 67.8203 181.605V181.277C67.8203 180.59 67.9219 179.978 68.125 179.441C68.3281 178.9 68.6042 178.441 68.9531 178.066C69.3021 177.691 69.6979 177.408 70.1406 177.215C70.5833 177.022 71.0417 176.926 71.5156 176.926C72.1198 176.926 72.6406 177.03 73.0781 177.238C73.5208 177.447 73.8828 177.738 74.1641 178.113C74.4453 178.483 74.6536 178.921 74.7891 179.426C74.9245 179.926 74.9922 180.473 74.9922 181.066V181.715H68.6797V180.535H73.5469V180.426C73.526 180.051 73.4479 179.686 73.3125 179.332C73.1823 178.978 72.974 178.686 72.6875 178.457C72.401 178.228 72.0104 178.113 71.5156 178.113C71.1875 178.113 70.8854 178.184 70.6094 178.324C70.3333 178.46 70.0964 178.663 69.8984 178.934C69.7005 179.204 69.5469 179.535 69.4375 179.926C69.3281 180.316 69.2734 180.767 69.2734 181.277V181.605C69.2734 182.007 69.3281 182.384 69.4375 182.738C69.5521 183.087 69.7161 183.395 69.9297 183.66C70.1484 183.926 70.4115 184.134 70.7188 184.285C71.0312 184.436 71.3854 184.512 71.7812 184.512C72.2917 184.512 72.724 184.408 73.0781 184.199C73.4323 183.991 73.7422 183.712 74.0078 183.363L74.8828 184.059C74.7005 184.335 74.4688 184.598 74.1875 184.848C73.9062 185.098 73.5599 185.301 73.1484 185.457C72.7422 185.613 72.2604 185.691 71.7031 185.691ZM82.0078 183.895V173.535H83.4609V185.535H82.1328L82.0078 183.895ZM76.3203 181.402V181.238C76.3203 180.592 76.3984 180.007 76.5547 179.48C76.7161 178.949 76.9427 178.493 77.2344 178.113C77.5312 177.733 77.8828 177.441 78.2891 177.238C78.7005 177.03 79.1589 176.926 79.6641 176.926C80.1953 176.926 80.6589 177.02 81.0547 177.207C81.4557 177.389 81.7943 177.658 82.0703 178.012C82.3516 178.361 82.5729 178.783 82.7344 179.277C82.8958 179.772 83.0078 180.332 83.0703 180.957V181.676C83.013 182.296 82.901 182.853 82.7344 183.348C82.5729 183.842 82.3516 184.264 82.0703 184.613C81.7943 184.962 81.4557 185.23 81.0547 185.418C80.6536 185.6 80.1849 185.691 79.6484 185.691C79.1536 185.691 78.7005 185.585 78.2891 185.371C77.8828 185.158 77.5312 184.858 77.2344 184.473C76.9427 184.087 76.7161 183.634 76.5547 183.113C76.3984 182.587 76.3203 182.017 76.3203 181.402ZM77.7734 181.238V181.402C77.7734 181.824 77.8151 182.22 77.8984 182.59C77.987 182.96 78.1224 183.285 78.3047 183.566C78.487 183.848 78.7188 184.069 79 184.23C79.2812 184.387 79.6172 184.465 80.0078 184.465C80.487 184.465 80.8802 184.363 81.1875 184.16C81.5 183.957 81.75 183.689 81.9375 183.355C82.125 183.022 82.2708 182.66 82.375 182.27V180.387C82.3125 180.1 82.2214 179.824 82.1016 179.559C81.987 179.288 81.8359 179.048 81.6484 178.84C81.4661 178.626 81.2396 178.457 80.9688 178.332C80.7031 178.207 80.388 178.145 80.0234 178.145C79.6276 178.145 79.2865 178.228 79 178.395C78.7188 178.556 78.487 178.78 78.3047 179.066C78.1224 179.348 77.987 179.676 77.8984 180.051C77.8151 180.421 77.7734 180.816 77.7734 181.238ZM93.2188 177.082V178.191H88.6484V177.082H93.2188ZM90.1953 175.027H91.6406V183.441C91.6406 183.728 91.6849 183.944 91.7734 184.09C91.862 184.236 91.9766 184.332 92.1172 184.379C92.2578 184.426 92.4089 184.449 92.5703 184.449C92.6901 184.449 92.8151 184.439 92.9453 184.418C93.0807 184.392 93.1823 184.371 93.25 184.355L93.2578 185.535C93.1432 185.572 92.9922 185.605 92.8047 185.637C92.6224 185.673 92.401 185.691 92.1406 185.691C91.7865 185.691 91.4609 185.621 91.1641 185.48C90.8672 185.34 90.6302 185.105 90.4531 184.777C90.2812 184.444 90.1953 183.996 90.1953 183.434V175.027ZM98.4219 185.691C97.8333 185.691 97.2995 185.592 96.8203 185.395C96.3464 185.191 95.9375 184.908 95.5938 184.543C95.2552 184.178 94.9948 183.746 94.8125 183.246C94.6302 182.746 94.5391 182.199 94.5391 181.605V181.277C94.5391 180.59 94.6406 179.978 94.8438 179.441C95.0469 178.9 95.3229 178.441 95.6719 178.066C96.0208 177.691 96.4167 177.408 96.8594 177.215C97.3021 177.022 97.7604 176.926 98.2344 176.926C98.8385 176.926 99.3594 177.03 99.7969 177.238C100.24 177.447 100.602 177.738 100.883 178.113C101.164 178.483 101.372 178.921 101.508 179.426C101.643 179.926 101.711 180.473 101.711 181.066V181.715H95.3984V180.535H100.266V180.426C100.245 180.051 100.167 179.686 100.031 179.332C99.901 178.978 99.6927 178.686 99.4062 178.457C99.1198 178.228 98.7292 178.113 98.2344 178.113C97.9062 178.113 97.6042 178.184 97.3281 178.324C97.0521 178.46 96.8151 178.663 96.6172 178.934C96.4193 179.204 96.2656 179.535 96.1562 179.926C96.0469 180.316 95.9922 180.767 95.9922 181.277V181.605C95.9922 182.007 96.0469 182.384 96.1562 182.738C96.2708 183.087 96.4349 183.395 96.6484 183.66C96.8672 183.926 97.1302 184.134 97.4375 184.285C97.75 184.436 98.1042 184.512 98.5 184.512C99.0104 184.512 99.4427 184.408 99.7969 184.199C100.151 183.991 100.461 183.712 100.727 183.363L101.602 184.059C101.419 184.335 101.188 184.598 100.906 184.848C100.625 185.098 100.279 185.301 99.8672 185.457C99.4609 185.613 98.9792 185.691 98.4219 185.691ZM108.383 184.09V179.738C108.383 179.405 108.315 179.116 108.18 178.871C108.049 178.621 107.852 178.428 107.586 178.293C107.32 178.158 106.992 178.09 106.602 178.09C106.237 178.09 105.917 178.152 105.641 178.277C105.37 178.402 105.156 178.566 105 178.77C104.849 178.973 104.773 179.191 104.773 179.426H103.328C103.328 179.124 103.406 178.824 103.562 178.527C103.719 178.23 103.943 177.962 104.234 177.723C104.531 177.478 104.885 177.285 105.297 177.145C105.714 176.999 106.177 176.926 106.688 176.926C107.302 176.926 107.844 177.03 108.312 177.238C108.786 177.447 109.156 177.762 109.422 178.184C109.693 178.6 109.828 179.124 109.828 179.754V183.691C109.828 183.973 109.852 184.272 109.898 184.59C109.951 184.908 110.026 185.181 110.125 185.41V185.535H108.617C108.544 185.368 108.487 185.147 108.445 184.871C108.404 184.59 108.383 184.329 108.383 184.09ZM108.633 180.41L108.648 181.426H107.188C106.776 181.426 106.409 181.46 106.086 181.527C105.763 181.59 105.492 181.686 105.273 181.816C105.055 181.947 104.888 182.111 104.773 182.309C104.659 182.501 104.602 182.728 104.602 182.988C104.602 183.254 104.661 183.496 104.781 183.715C104.901 183.934 105.081 184.108 105.32 184.238C105.565 184.363 105.865 184.426 106.219 184.426C106.661 184.426 107.052 184.332 107.391 184.145C107.729 183.957 107.997 183.728 108.195 183.457C108.398 183.186 108.508 182.923 108.523 182.668L109.141 183.363C109.104 183.582 109.005 183.824 108.844 184.09C108.682 184.355 108.466 184.611 108.195 184.855C107.93 185.095 107.612 185.296 107.242 185.457C106.878 185.613 106.466 185.691 106.008 185.691C105.435 185.691 104.932 185.579 104.5 185.355C104.073 185.132 103.74 184.832 103.5 184.457C103.266 184.077 103.148 183.652 103.148 183.184C103.148 182.73 103.237 182.332 103.414 181.988C103.591 181.639 103.846 181.35 104.18 181.121C104.513 180.887 104.914 180.71 105.383 180.59C105.852 180.47 106.375 180.41 106.953 180.41H108.633ZM113.539 178.762V185.535H112.086V177.082H113.461L113.539 178.762ZM113.242 180.988L112.57 180.965C112.576 180.387 112.651 179.853 112.797 179.363C112.943 178.868 113.159 178.439 113.445 178.074C113.732 177.71 114.089 177.428 114.516 177.23C114.943 177.027 115.438 176.926 116 176.926C116.396 176.926 116.76 176.983 117.094 177.098C117.427 177.207 117.716 177.382 117.961 177.621C118.206 177.861 118.396 178.168 118.531 178.543C118.667 178.918 118.734 179.371 118.734 179.902V185.535H117.289V179.973C117.289 179.53 117.214 179.176 117.062 178.91C116.917 178.645 116.708 178.452 116.438 178.332C116.167 178.207 115.849 178.145 115.484 178.145C115.057 178.145 114.701 178.22 114.414 178.371C114.128 178.522 113.898 178.73 113.727 178.996C113.555 179.262 113.43 179.566 113.352 179.91C113.279 180.249 113.242 180.608 113.242 180.988ZM118.719 180.191L117.75 180.488C117.755 180.025 117.831 179.579 117.977 179.152C118.128 178.725 118.344 178.345 118.625 178.012C118.911 177.678 119.263 177.415 119.68 177.223C120.096 177.025 120.573 176.926 121.109 176.926C121.562 176.926 121.964 176.986 122.312 177.105C122.667 177.225 122.964 177.41 123.203 177.66C123.448 177.905 123.633 178.22 123.758 178.605C123.883 178.991 123.945 179.449 123.945 179.98V185.535H122.492V179.965C122.492 179.491 122.417 179.124 122.266 178.863C122.12 178.598 121.911 178.413 121.641 178.309C121.375 178.199 121.057 178.145 120.688 178.145C120.37 178.145 120.089 178.199 119.844 178.309C119.599 178.418 119.393 178.569 119.227 178.762C119.06 178.949 118.932 179.165 118.844 179.41C118.76 179.655 118.719 179.915 118.719 180.191ZM133.484 184.504C133.828 184.504 134.146 184.434 134.438 184.293C134.729 184.152 134.969 183.96 135.156 183.715C135.344 183.465 135.451 183.181 135.477 182.863H136.852C136.826 183.363 136.656 183.829 136.344 184.262C136.036 184.689 135.633 185.035 135.133 185.301C134.633 185.561 134.083 185.691 133.484 185.691C132.849 185.691 132.294 185.579 131.82 185.355C131.352 185.132 130.961 184.824 130.648 184.434C130.341 184.043 130.109 183.595 129.953 183.09C129.802 182.579 129.727 182.04 129.727 181.473V181.145C129.727 180.577 129.802 180.04 129.953 179.535C130.109 179.025 130.341 178.574 130.648 178.184C130.961 177.793 131.352 177.486 131.82 177.262C132.294 177.038 132.849 176.926 133.484 176.926C134.146 176.926 134.724 177.061 135.219 177.332C135.714 177.598 136.102 177.962 136.383 178.426C136.669 178.884 136.826 179.405 136.852 179.988H135.477C135.451 179.639 135.352 179.324 135.18 179.043C135.013 178.762 134.784 178.538 134.492 178.371C134.206 178.199 133.87 178.113 133.484 178.113C133.042 178.113 132.669 178.202 132.367 178.379C132.07 178.551 131.833 178.785 131.656 179.082C131.484 179.374 131.359 179.699 131.281 180.059C131.208 180.413 131.172 180.775 131.172 181.145V181.473C131.172 181.842 131.208 182.207 131.281 182.566C131.354 182.926 131.477 183.251 131.648 183.543C131.826 183.835 132.062 184.069 132.359 184.246C132.661 184.418 133.036 184.504 133.484 184.504ZM138.094 181.402V181.223C138.094 180.613 138.182 180.048 138.359 179.527C138.536 179.001 138.792 178.546 139.125 178.16C139.458 177.77 139.862 177.467 140.336 177.254C140.81 177.035 141.341 176.926 141.93 176.926C142.523 176.926 143.057 177.035 143.531 177.254C144.01 177.467 144.417 177.77 144.75 178.16C145.089 178.546 145.346 179.001 145.523 179.527C145.701 180.048 145.789 180.613 145.789 181.223V181.402C145.789 182.012 145.701 182.577 145.523 183.098C145.346 183.618 145.089 184.074 144.75 184.465C144.417 184.85 144.013 185.152 143.539 185.371C143.07 185.585 142.539 185.691 141.945 185.691C141.352 185.691 140.818 185.585 140.344 185.371C139.87 185.152 139.464 184.85 139.125 184.465C138.792 184.074 138.536 183.618 138.359 183.098C138.182 182.577 138.094 182.012 138.094 181.402ZM139.539 181.223V181.402C139.539 181.824 139.589 182.223 139.688 182.598C139.786 182.967 139.935 183.296 140.133 183.582C140.336 183.868 140.589 184.095 140.891 184.262C141.193 184.423 141.544 184.504 141.945 184.504C142.341 184.504 142.688 184.423 142.984 184.262C143.286 184.095 143.536 183.868 143.734 183.582C143.932 183.296 144.081 182.967 144.18 182.598C144.284 182.223 144.336 181.824 144.336 181.402V181.223C144.336 180.806 144.284 180.413 144.18 180.043C144.081 179.668 143.93 179.337 143.727 179.051C143.529 178.759 143.279 178.53 142.977 178.363C142.68 178.197 142.331 178.113 141.93 178.113C141.534 178.113 141.185 178.197 140.883 178.363C140.586 178.53 140.336 178.759 140.133 179.051C139.935 179.337 139.786 179.668 139.688 180.043C139.589 180.413 139.539 180.806 139.539 181.223ZM149.039 178.762V185.535H147.586V177.082H148.961L149.039 178.762ZM148.742 180.988L148.07 180.965C148.076 180.387 148.151 179.853 148.297 179.363C148.443 178.868 148.659 178.439 148.945 178.074C149.232 177.71 149.589 177.428 150.016 177.23C150.443 177.027 150.938 176.926 151.5 176.926C151.896 176.926 152.26 176.983 152.594 177.098C152.927 177.207 153.216 177.382 153.461 177.621C153.706 177.861 153.896 178.168 154.031 178.543C154.167 178.918 154.234 179.371 154.234 179.902V185.535H152.789V179.973C152.789 179.53 152.714 179.176 152.562 178.91C152.417 178.645 152.208 178.452 151.938 178.332C151.667 178.207 151.349 178.145 150.984 178.145C150.557 178.145 150.201 178.22 149.914 178.371C149.628 178.522 149.398 178.73 149.227 178.996C149.055 179.262 148.93 179.566 148.852 179.91C148.779 180.249 148.742 180.608 148.742 180.988ZM154.219 180.191L153.25 180.488C153.255 180.025 153.331 179.579 153.477 179.152C153.628 178.725 153.844 178.345 154.125 178.012C154.411 177.678 154.763 177.415 155.18 177.223C155.596 177.025 156.073 176.926 156.609 176.926C157.062 176.926 157.464 176.986 157.812 177.105C158.167 177.225 158.464 177.41 158.703 177.66C158.948 177.905 159.133 178.22 159.258 178.605C159.383 178.991 159.445 179.449 159.445 179.98V185.535H157.992V179.965C157.992 179.491 157.917 179.124 157.766 178.863C157.62 178.598 157.411 178.413 157.141 178.309C156.875 178.199 156.557 178.145 156.188 178.145C155.87 178.145 155.589 178.199 155.344 178.309C155.099 178.418 154.893 178.569 154.727 178.762C154.56 178.949 154.432 179.165 154.344 179.41C154.26 179.655 154.219 179.915 154.219 180.191ZM163.07 178.762V185.535H161.617V177.082H162.992L163.07 178.762ZM162.773 180.988L162.102 180.965C162.107 180.387 162.182 179.853 162.328 179.363C162.474 178.868 162.69 178.439 162.977 178.074C163.263 177.71 163.62 177.428 164.047 177.23C164.474 177.027 164.969 176.926 165.531 176.926C165.927 176.926 166.292 176.983 166.625 177.098C166.958 177.207 167.247 177.382 167.492 177.621C167.737 177.861 167.927 178.168 168.062 178.543C168.198 178.918 168.266 179.371 168.266 179.902V185.535H166.82V179.973C166.82 179.53 166.745 179.176 166.594 178.91C166.448 178.645 166.24 178.452 165.969 178.332C165.698 178.207 165.38 178.145 165.016 178.145C164.589 178.145 164.232 178.22 163.945 178.371C163.659 178.522 163.43 178.73 163.258 178.996C163.086 179.262 162.961 179.566 162.883 179.91C162.81 180.249 162.773 180.608 162.773 180.988ZM168.25 180.191L167.281 180.488C167.286 180.025 167.362 179.579 167.508 179.152C167.659 178.725 167.875 178.345 168.156 178.012C168.443 177.678 168.794 177.415 169.211 177.223C169.628 177.025 170.104 176.926 170.641 176.926C171.094 176.926 171.495 176.986 171.844 177.105C172.198 177.225 172.495 177.41 172.734 177.66C172.979 177.905 173.164 178.22 173.289 178.605C173.414 178.991 173.477 179.449 173.477 179.98V185.535H172.023V179.965C172.023 179.491 171.948 179.124 171.797 178.863C171.651 178.598 171.443 178.413 171.172 178.309C170.906 178.199 170.589 178.145 170.219 178.145C169.901 178.145 169.62 178.199 169.375 178.309C169.13 178.418 168.924 178.569 168.758 178.762C168.591 178.949 168.464 179.165 168.375 179.41C168.292 179.655 168.25 179.915 168.25 180.191ZM180.836 183.582V177.082H182.289V185.535H180.906L180.836 183.582ZM181.109 181.801L181.711 181.785C181.711 182.348 181.651 182.868 181.531 183.348C181.417 183.822 181.229 184.233 180.969 184.582C180.708 184.931 180.367 185.204 179.945 185.402C179.523 185.595 179.01 185.691 178.406 185.691C177.995 185.691 177.617 185.632 177.273 185.512C176.935 185.392 176.643 185.207 176.398 184.957C176.154 184.707 175.964 184.382 175.828 183.98C175.698 183.579 175.633 183.098 175.633 182.535V177.082H177.078V182.551C177.078 182.931 177.12 183.246 177.203 183.496C177.292 183.741 177.409 183.936 177.555 184.082C177.706 184.223 177.872 184.322 178.055 184.379C178.242 184.436 178.435 184.465 178.633 184.465C179.247 184.465 179.734 184.348 180.094 184.113C180.453 183.874 180.711 183.553 180.867 183.152C181.029 182.746 181.109 182.296 181.109 181.801ZM185.938 178.887V185.535H184.492V177.082H185.859L185.938 178.887ZM185.594 180.988L184.992 180.965C184.997 180.387 185.083 179.853 185.25 179.363C185.417 178.868 185.651 178.439 185.953 178.074C186.255 177.71 186.615 177.428 187.031 177.23C187.453 177.027 187.919 176.926 188.43 176.926C188.846 176.926 189.221 176.983 189.555 177.098C189.888 177.207 190.172 177.384 190.406 177.629C190.646 177.874 190.828 178.191 190.953 178.582C191.078 178.967 191.141 179.439 191.141 179.996V185.535H189.688V179.98C189.688 179.538 189.622 179.184 189.492 178.918C189.362 178.647 189.172 178.452 188.922 178.332C188.672 178.207 188.365 178.145 188 178.145C187.641 178.145 187.312 178.22 187.016 178.371C186.724 178.522 186.471 178.73 186.258 178.996C186.049 179.262 185.885 179.566 185.766 179.91C185.651 180.249 185.594 180.608 185.594 180.988ZM194.906 177.082V185.535H193.453V177.082H194.906ZM193.344 174.84C193.344 174.605 193.414 174.408 193.555 174.246C193.701 174.085 193.914 174.004 194.195 174.004C194.471 174.004 194.682 174.085 194.828 174.246C194.979 174.408 195.055 174.605 195.055 174.84C195.055 175.064 194.979 175.257 194.828 175.418C194.682 175.574 194.471 175.652 194.195 175.652C193.914 175.652 193.701 175.574 193.555 175.418C193.414 175.257 193.344 175.064 193.344 174.84ZM200.609 184.504C200.953 184.504 201.271 184.434 201.562 184.293C201.854 184.152 202.094 183.96 202.281 183.715C202.469 183.465 202.576 183.181 202.602 182.863H203.977C203.951 183.363 203.781 183.829 203.469 184.262C203.161 184.689 202.758 185.035 202.258 185.301C201.758 185.561 201.208 185.691 200.609 185.691C199.974 185.691 199.419 185.579 198.945 185.355C198.477 185.132 198.086 184.824 197.773 184.434C197.466 184.043 197.234 183.595 197.078 183.09C196.927 182.579 196.852 182.04 196.852 181.473V181.145C196.852 180.577 196.927 180.04 197.078 179.535C197.234 179.025 197.466 178.574 197.773 178.184C198.086 177.793 198.477 177.486 198.945 177.262C199.419 177.038 199.974 176.926 200.609 176.926C201.271 176.926 201.849 177.061 202.344 177.332C202.839 177.598 203.227 177.962 203.508 178.426C203.794 178.884 203.951 179.405 203.977 179.988H202.602C202.576 179.639 202.477 179.324 202.305 179.043C202.138 178.762 201.909 178.538 201.617 178.371C201.331 178.199 200.995 178.113 200.609 178.113C200.167 178.113 199.794 178.202 199.492 178.379C199.195 178.551 198.958 178.785 198.781 179.082C198.609 179.374 198.484 179.699 198.406 180.059C198.333 180.413 198.297 180.775 198.297 181.145V181.473C198.297 181.842 198.333 182.207 198.406 182.566C198.479 182.926 198.602 183.251 198.773 183.543C198.951 183.835 199.188 184.069 199.484 184.246C199.786 184.418 200.161 184.504 200.609 184.504ZM210.586 184.09V179.738C210.586 179.405 210.518 179.116 210.383 178.871C210.253 178.621 210.055 178.428 209.789 178.293C209.523 178.158 209.195 178.09 208.805 178.09C208.44 178.09 208.12 178.152 207.844 178.277C207.573 178.402 207.359 178.566 207.203 178.77C207.052 178.973 206.977 179.191 206.977 179.426H205.531C205.531 179.124 205.609 178.824 205.766 178.527C205.922 178.23 206.146 177.962 206.438 177.723C206.734 177.478 207.089 177.285 207.5 177.145C207.917 176.999 208.38 176.926 208.891 176.926C209.505 176.926 210.047 177.03 210.516 177.238C210.99 177.447 211.359 177.762 211.625 178.184C211.896 178.6 212.031 179.124 212.031 179.754V183.691C212.031 183.973 212.055 184.272 212.102 184.59C212.154 184.908 212.229 185.181 212.328 185.41V185.535H210.82C210.747 185.368 210.69 185.147 210.648 184.871C210.607 184.59 210.586 184.329 210.586 184.09ZM210.836 180.41L210.852 181.426H209.391C208.979 181.426 208.612 181.46 208.289 181.527C207.966 181.59 207.695 181.686 207.477 181.816C207.258 181.947 207.091 182.111 206.977 182.309C206.862 182.501 206.805 182.728 206.805 182.988C206.805 183.254 206.865 183.496 206.984 183.715C207.104 183.934 207.284 184.108 207.523 184.238C207.768 184.363 208.068 184.426 208.422 184.426C208.865 184.426 209.255 184.332 209.594 184.145C209.932 183.957 210.201 183.728 210.398 183.457C210.602 183.186 210.711 182.923 210.727 182.668L211.344 183.363C211.307 183.582 211.208 183.824 211.047 184.09C210.885 184.355 210.669 184.611 210.398 184.855C210.133 185.095 209.815 185.296 209.445 185.457C209.081 185.613 208.669 185.691 208.211 185.691C207.638 185.691 207.135 185.579 206.703 185.355C206.276 185.132 205.943 184.832 205.703 184.457C205.469 184.077 205.352 183.652 205.352 183.184C205.352 182.73 205.44 182.332 205.617 181.988C205.794 181.639 206.049 181.35 206.383 181.121C206.716 180.887 207.117 180.71 207.586 180.59C208.055 180.47 208.578 180.41 209.156 180.41H210.836ZM217.844 177.082V178.191H213.273V177.082H217.844ZM214.82 175.027H216.266V183.441C216.266 183.728 216.31 183.944 216.398 184.09C216.487 184.236 216.602 184.332 216.742 184.379C216.883 184.426 217.034 184.449 217.195 184.449C217.315 184.449 217.44 184.439 217.57 184.418C217.706 184.392 217.807 184.371 217.875 184.355L217.883 185.535C217.768 185.572 217.617 185.605 217.43 185.637C217.247 185.673 217.026 185.691 216.766 185.691C216.411 185.691 216.086 185.621 215.789 185.48C215.492 185.34 215.255 185.105 215.078 184.777C214.906 184.444 214.82 183.996 214.82 183.434V175.027ZM221.109 177.082V185.535H219.656V177.082H221.109ZM219.547 174.84C219.547 174.605 219.617 174.408 219.758 174.246C219.904 174.085 220.117 174.004 220.398 174.004C220.674 174.004 220.885 174.085 221.031 174.246C221.182 174.408 221.258 174.605 221.258 174.84C221.258 175.064 221.182 175.257 221.031 175.418C220.885 175.574 220.674 175.652 220.398 175.652C220.117 175.652 219.904 175.574 219.758 175.418C219.617 175.257 219.547 175.064 219.547 174.84ZM223.047 181.402V181.223C223.047 180.613 223.135 180.048 223.312 179.527C223.49 179.001 223.745 178.546 224.078 178.16C224.411 177.77 224.815 177.467 225.289 177.254C225.763 177.035 226.294 176.926 226.883 176.926C227.477 176.926 228.01 177.035 228.484 177.254C228.964 177.467 229.37 177.77 229.703 178.16C230.042 178.546 230.299 179.001 230.477 179.527C230.654 180.048 230.742 180.613 230.742 181.223V181.402C230.742 182.012 230.654 182.577 230.477 183.098C230.299 183.618 230.042 184.074 229.703 184.465C229.37 184.85 228.966 185.152 228.492 185.371C228.023 185.585 227.492 185.691 226.898 185.691C226.305 185.691 225.771 185.585 225.297 185.371C224.823 185.152 224.417 184.85 224.078 184.465C223.745 184.074 223.49 183.618 223.312 183.098C223.135 182.577 223.047 182.012 223.047 181.402ZM224.492 181.223V181.402C224.492 181.824 224.542 182.223 224.641 182.598C224.74 182.967 224.888 183.296 225.086 183.582C225.289 183.868 225.542 184.095 225.844 184.262C226.146 184.423 226.497 184.504 226.898 184.504C227.294 184.504 227.641 184.423 227.938 184.262C228.24 184.095 228.49 183.868 228.688 183.582C228.885 183.296 229.034 182.967 229.133 182.598C229.237 182.223 229.289 181.824 229.289 181.402V181.223C229.289 180.806 229.237 180.413 229.133 180.043C229.034 179.668 228.883 179.337 228.68 179.051C228.482 178.759 228.232 178.53 227.93 178.363C227.633 178.197 227.284 178.113 226.883 178.113C226.487 178.113 226.138 178.197 225.836 178.363C225.539 178.53 225.289 178.759 225.086 179.051C224.888 179.337 224.74 179.668 224.641 180.043C224.542 180.413 224.492 180.806 224.492 181.223ZM234 178.887V185.535H232.555V177.082H233.922L234 178.887ZM233.656 180.988L233.055 180.965C233.06 180.387 233.146 179.853 233.312 179.363C233.479 178.868 233.714 178.439 234.016 178.074C234.318 177.71 234.677 177.428 235.094 177.23C235.516 177.027 235.982 176.926 236.492 176.926C236.909 176.926 237.284 176.983 237.617 177.098C237.951 177.207 238.234 177.384 238.469 177.629C238.708 177.874 238.891 178.191 239.016 178.582C239.141 178.967 239.203 179.439 239.203 179.996V185.535H237.75V179.98C237.75 179.538 237.685 179.184 237.555 178.918C237.424 178.647 237.234 178.452 236.984 178.332C236.734 178.207 236.427 178.145 236.062 178.145C235.703 178.145 235.375 178.22 235.078 178.371C234.786 178.522 234.534 178.73 234.32 178.996C234.112 179.262 233.948 179.566 233.828 179.91C233.714 180.249 233.656 180.608 233.656 180.988Z" fill="#331436"/>
</svg>
