<svg width="245" height="205" viewBox="0 0 245 205" fill="none" xmlns="http://www.w3.org/2000/svg">
<rect x="72.5" y="12.5352" width="100" height="100" rx="50" fill="#331436"/>
<path d="M116.5 44.5352H108.5C107.439 44.5352 106.422 44.9566 105.672 45.7067C104.921 46.4569 104.5 47.4743 104.5 48.5352V56.5352M116.5 44.5352H136.5C137.561 44.5352 138.578 44.9566 139.328 45.7067C140.079 46.4569 140.5 47.4743 140.5 48.5352V56.5352M116.5 44.5352V80.5352M104.5 56.5352V76.5352C104.5 77.596 104.921 78.6134 105.672 79.3636C106.422 80.1137 107.439 80.5352 108.5 80.5352H116.5M104.5 56.5352H140.5M140.5 56.5352V76.5352C140.5 77.596 140.079 78.6134 139.328 79.3636C138.578 80.1137 137.561 80.5352 136.5 80.5352H116.5" stroke="white" stroke-width="4" stroke-linecap="round" stroke-linejoin="round"/>
<path d="M57.3828 147.959H53.584V146.426H57.3828C58.1185 146.426 58.7142 146.309 59.1699 146.074C59.6257 145.84 59.9577 145.514 60.166 145.098C60.3809 144.681 60.4883 144.206 60.4883 143.672C60.4883 143.184 60.3809 142.725 60.166 142.295C59.9577 141.865 59.6257 141.52 59.1699 141.26C58.7142 140.993 58.1185 140.859 57.3828 140.859H54.0234V153.535H52.1387V139.316H57.3828C58.457 139.316 59.3652 139.502 60.1074 139.873C60.8496 140.244 61.4128 140.758 61.7969 141.416C62.181 142.067 62.373 142.812 62.373 143.652C62.373 144.564 62.181 145.342 61.7969 145.986C61.4128 146.631 60.8496 147.122 60.1074 147.461C59.3652 147.793 58.457 147.959 57.3828 147.959ZM66.2891 144.629V153.535H64.4824V142.969H66.2402L66.2891 144.629ZM69.5898 142.91L69.5801 144.59C69.4303 144.557 69.2871 144.538 69.1504 144.531C69.0202 144.518 68.8704 144.512 68.7012 144.512C68.2845 144.512 67.9167 144.577 67.5977 144.707C67.2786 144.837 67.0085 145.02 66.7871 145.254C66.5658 145.488 66.39 145.768 66.2598 146.094C66.1361 146.413 66.0547 146.764 66.0156 147.148L65.5078 147.441C65.5078 146.803 65.5697 146.204 65.6934 145.645C65.8236 145.085 66.0221 144.59 66.2891 144.16C66.556 143.724 66.8945 143.385 67.3047 143.145C67.7214 142.897 68.2161 142.773 68.7891 142.773C68.9193 142.773 69.069 142.79 69.2383 142.822C69.4076 142.848 69.5247 142.878 69.5898 142.91ZM70.5859 148.369V148.145C70.5859 147.383 70.6966 146.676 70.918 146.025C71.1393 145.368 71.4583 144.798 71.875 144.316C72.2917 143.828 72.7962 143.451 73.3887 143.184C73.9811 142.91 74.6452 142.773 75.3809 142.773C76.123 142.773 76.7904 142.91 77.3828 143.184C77.9818 143.451 78.4896 143.828 78.9062 144.316C79.3294 144.798 79.6517 145.368 79.873 146.025C80.0944 146.676 80.2051 147.383 80.2051 148.145V148.369C80.2051 149.131 80.0944 149.837 79.873 150.488C79.6517 151.139 79.3294 151.709 78.9062 152.197C78.4896 152.679 77.985 153.057 77.3926 153.33C76.8066 153.597 76.1426 153.73 75.4004 153.73C74.6582 153.73 73.9909 153.597 73.3984 153.33C72.806 153.057 72.2982 152.679 71.875 152.197C71.4583 151.709 71.1393 151.139 70.918 150.488C70.6966 149.837 70.5859 149.131 70.5859 148.369ZM72.3926 148.145V148.369C72.3926 148.896 72.4544 149.395 72.5781 149.863C72.7018 150.326 72.8874 150.736 73.1348 151.094C73.3887 151.452 73.7044 151.735 74.082 151.943C74.4596 152.145 74.8991 152.246 75.4004 152.246C75.8952 152.246 76.3281 152.145 76.6992 151.943C77.0768 151.735 77.3893 151.452 77.6367 151.094C77.8841 150.736 78.0697 150.326 78.1934 149.863C78.3236 149.395 78.3887 148.896 78.3887 148.369V148.145C78.3887 147.624 78.3236 147.132 78.1934 146.67C78.0697 146.201 77.8809 145.788 77.627 145.43C77.3796 145.065 77.0671 144.779 76.6895 144.57C76.3184 144.362 75.8822 144.258 75.3809 144.258C74.8861 144.258 74.4499 144.362 74.0723 144.57C73.7012 144.779 73.3887 145.065 73.1348 145.43C72.8874 145.788 72.7018 146.201 72.5781 146.67C72.4544 147.132 72.3926 147.624 72.3926 148.145ZM89.3164 142.969H90.957V153.311C90.957 154.242 90.7682 155.036 90.3906 155.693C90.013 156.351 89.4857 156.849 88.8086 157.188C88.138 157.533 87.3633 157.705 86.4844 157.705C86.1198 157.705 85.6901 157.646 85.1953 157.529C84.707 157.419 84.2253 157.227 83.75 156.953C83.2812 156.686 82.8874 156.325 82.5684 155.869L83.5156 154.795C83.9583 155.329 84.4206 155.7 84.9023 155.908C85.3906 156.117 85.8724 156.221 86.3477 156.221C86.9206 156.221 87.4154 156.113 87.832 155.898C88.2487 155.684 88.571 155.365 88.7988 154.941C89.0332 154.525 89.1504 154.01 89.1504 153.398V145.293L89.3164 142.969ZM82.041 148.369V148.164C82.041 147.357 82.1354 146.624 82.3242 145.967C82.5195 145.303 82.7962 144.733 83.1543 144.258C83.5189 143.783 83.9583 143.418 84.4727 143.164C84.987 142.904 85.5664 142.773 86.2109 142.773C86.875 142.773 87.4544 142.891 87.9492 143.125C88.4505 143.353 88.8737 143.688 89.2188 144.131C89.5703 144.567 89.847 145.094 90.0488 145.713C90.2507 146.331 90.3906 147.031 90.4688 147.812V148.711C90.3971 149.486 90.2572 150.182 90.0488 150.801C89.847 151.419 89.5703 151.947 89.2188 152.383C88.8737 152.819 88.4505 153.154 87.9492 153.389C87.4479 153.617 86.862 153.73 86.1914 153.73C85.5599 153.73 84.987 153.597 84.4727 153.33C83.9648 153.063 83.5286 152.689 83.1641 152.207C82.7995 151.725 82.5195 151.159 82.3242 150.508C82.1354 149.85 82.041 149.137 82.041 148.369ZM83.8477 148.164V148.369C83.8477 148.896 83.8997 149.391 84.0039 149.854C84.1146 150.316 84.2806 150.723 84.502 151.074C84.7298 151.426 85.0195 151.702 85.3711 151.904C85.7227 152.1 86.1426 152.197 86.6309 152.197C87.2298 152.197 87.7246 152.07 88.1152 151.816C88.5059 151.562 88.8151 151.227 89.043 150.811C89.2773 150.394 89.4596 149.941 89.5898 149.453V147.1C89.5182 146.742 89.4076 146.396 89.2578 146.064C89.1146 145.726 88.9258 145.426 88.6914 145.166C88.4635 144.899 88.1803 144.688 87.8418 144.531C87.5033 144.375 87.1061 144.297 86.6504 144.297C86.1556 144.297 85.7292 144.401 85.3711 144.609C85.0195 144.811 84.7298 145.091 84.502 145.449C84.2806 145.801 84.1146 146.211 84.0039 146.68C83.8997 147.142 83.8477 147.637 83.8477 148.164ZM95.5078 144.629V153.535H93.7012V142.969H95.459L95.5078 144.629ZM98.8086 142.91L98.7988 144.59C98.6491 144.557 98.5059 144.538 98.3691 144.531C98.2389 144.518 98.0892 144.512 97.9199 144.512C97.5033 144.512 97.1354 144.577 96.8164 144.707C96.4974 144.837 96.2272 145.02 96.0059 145.254C95.7845 145.488 95.6087 145.768 95.4785 146.094C95.3548 146.413 95.2734 146.764 95.2344 147.148L94.7266 147.441C94.7266 146.803 94.7884 146.204 94.9121 145.645C95.0423 145.085 95.2409 144.59 95.5078 144.16C95.7747 143.724 96.1133 143.385 96.5234 143.145C96.9401 142.897 97.4349 142.773 98.0078 142.773C98.138 142.773 98.2878 142.79 98.457 142.822C98.6263 142.848 98.7435 142.878 98.8086 142.91ZM104.668 153.73C103.932 153.73 103.265 153.607 102.666 153.359C102.074 153.105 101.562 152.751 101.133 152.295C100.71 151.839 100.384 151.299 100.156 150.674C99.9284 150.049 99.8145 149.365 99.8145 148.623V148.213C99.8145 147.354 99.9414 146.589 100.195 145.918C100.449 145.241 100.794 144.668 101.23 144.199C101.667 143.73 102.161 143.376 102.715 143.135C103.268 142.894 103.841 142.773 104.434 142.773C105.189 142.773 105.84 142.904 106.387 143.164C106.94 143.424 107.393 143.789 107.744 144.258C108.096 144.72 108.356 145.267 108.525 145.898C108.695 146.523 108.779 147.207 108.779 147.949V148.76H100.889V147.285H106.973V147.148C106.947 146.68 106.849 146.224 106.68 145.781C106.517 145.339 106.257 144.974 105.898 144.688C105.54 144.401 105.052 144.258 104.434 144.258C104.023 144.258 103.646 144.346 103.301 144.521C102.956 144.691 102.66 144.945 102.412 145.283C102.165 145.622 101.973 146.035 101.836 146.523C101.699 147.012 101.631 147.575 101.631 148.213V148.623C101.631 149.124 101.699 149.596 101.836 150.039C101.979 150.475 102.184 150.859 102.451 151.191C102.725 151.523 103.053 151.784 103.438 151.973C103.828 152.161 104.271 152.256 104.766 152.256C105.404 152.256 105.944 152.126 106.387 151.865C106.829 151.605 107.217 151.257 107.549 150.82L108.643 151.689C108.415 152.035 108.125 152.363 107.773 152.676C107.422 152.988 106.989 153.242 106.475 153.438C105.967 153.633 105.365 153.73 104.668 153.73ZM117.041 150.732C117.041 150.472 116.982 150.231 116.865 150.01C116.755 149.782 116.523 149.577 116.172 149.395C115.827 149.206 115.306 149.043 114.609 148.906C114.023 148.783 113.493 148.636 113.018 148.467C112.549 148.298 112.148 148.092 111.816 147.852C111.491 147.611 111.24 147.327 111.064 147.002C110.889 146.676 110.801 146.296 110.801 145.859C110.801 145.443 110.892 145.049 111.074 144.678C111.263 144.307 111.527 143.978 111.865 143.691C112.21 143.405 112.624 143.18 113.105 143.018C113.587 142.855 114.124 142.773 114.717 142.773C115.563 142.773 116.286 142.923 116.885 143.223C117.484 143.522 117.943 143.923 118.262 144.424C118.581 144.919 118.74 145.469 118.74 146.074H116.934C116.934 145.781 116.846 145.498 116.67 145.225C116.501 144.945 116.25 144.714 115.918 144.531C115.592 144.349 115.192 144.258 114.717 144.258C114.215 144.258 113.809 144.336 113.496 144.492C113.19 144.642 112.965 144.834 112.822 145.068C112.686 145.303 112.617 145.55 112.617 145.811C112.617 146.006 112.65 146.182 112.715 146.338C112.786 146.488 112.91 146.628 113.086 146.758C113.262 146.882 113.509 146.999 113.828 147.109C114.147 147.22 114.554 147.331 115.049 147.441C115.915 147.637 116.628 147.871 117.188 148.145C117.747 148.418 118.164 148.753 118.438 149.15C118.711 149.548 118.848 150.029 118.848 150.596C118.848 151.058 118.75 151.481 118.555 151.865C118.366 152.249 118.089 152.581 117.725 152.861C117.367 153.135 116.937 153.35 116.436 153.506C115.941 153.656 115.384 153.73 114.766 153.73C113.835 153.73 113.047 153.564 112.402 153.232C111.758 152.9 111.27 152.471 110.938 151.943C110.605 151.416 110.439 150.859 110.439 150.273H112.256C112.282 150.768 112.425 151.162 112.686 151.455C112.946 151.742 113.265 151.947 113.643 152.07C114.02 152.188 114.395 152.246 114.766 152.246C115.26 152.246 115.674 152.181 116.006 152.051C116.344 151.921 116.602 151.742 116.777 151.514C116.953 151.286 117.041 151.025 117.041 150.732ZM127.373 150.732C127.373 150.472 127.314 150.231 127.197 150.01C127.087 149.782 126.855 149.577 126.504 149.395C126.159 149.206 125.638 149.043 124.941 148.906C124.355 148.783 123.825 148.636 123.35 148.467C122.881 148.298 122.48 148.092 122.148 147.852C121.823 147.611 121.572 147.327 121.396 147.002C121.221 146.676 121.133 146.296 121.133 145.859C121.133 145.443 121.224 145.049 121.406 144.678C121.595 144.307 121.859 143.978 122.197 143.691C122.542 143.405 122.956 143.18 123.438 143.018C123.919 142.855 124.456 142.773 125.049 142.773C125.895 142.773 126.618 142.923 127.217 143.223C127.816 143.522 128.275 143.923 128.594 144.424C128.913 144.919 129.072 145.469 129.072 146.074H127.266C127.266 145.781 127.178 145.498 127.002 145.225C126.833 144.945 126.582 144.714 126.25 144.531C125.924 144.349 125.524 144.258 125.049 144.258C124.548 144.258 124.141 144.336 123.828 144.492C123.522 144.642 123.298 144.834 123.154 145.068C123.018 145.303 122.949 145.55 122.949 145.811C122.949 146.006 122.982 146.182 123.047 146.338C123.118 146.488 123.242 146.628 123.418 146.758C123.594 146.882 123.841 146.999 124.16 147.109C124.479 147.22 124.886 147.331 125.381 147.441C126.247 147.637 126.96 147.871 127.52 148.145C128.079 148.418 128.496 148.753 128.77 149.15C129.043 149.548 129.18 150.029 129.18 150.596C129.18 151.058 129.082 151.481 128.887 151.865C128.698 152.249 128.421 152.581 128.057 152.861C127.699 153.135 127.269 153.35 126.768 153.506C126.273 153.656 125.716 153.73 125.098 153.73C124.167 153.73 123.379 153.564 122.734 153.232C122.09 152.9 121.602 152.471 121.27 151.943C120.938 151.416 120.771 150.859 120.771 150.273H122.588C122.614 150.768 122.757 151.162 123.018 151.455C123.278 151.742 123.597 151.947 123.975 152.07C124.352 152.188 124.727 152.246 125.098 152.246C125.592 152.246 126.006 152.181 126.338 152.051C126.676 151.921 126.934 151.742 127.109 151.514C127.285 151.286 127.373 151.025 127.373 150.732ZM136.787 139.316H141.494C142.562 139.316 143.464 139.479 144.199 139.805C144.941 140.13 145.505 140.612 145.889 141.25C146.279 141.882 146.475 142.66 146.475 143.584C146.475 144.235 146.341 144.831 146.074 145.371C145.814 145.905 145.436 146.361 144.941 146.738C144.453 147.109 143.867 147.386 143.184 147.568L142.656 147.773H138.232L138.213 146.24H141.553C142.23 146.24 142.793 146.123 143.242 145.889C143.691 145.648 144.03 145.326 144.258 144.922C144.486 144.518 144.6 144.072 144.6 143.584C144.6 143.037 144.492 142.559 144.277 142.148C144.062 141.738 143.724 141.423 143.262 141.201C142.806 140.973 142.217 140.859 141.494 140.859H138.672V153.535H136.787V139.316ZM145.098 153.535L141.641 147.09L143.604 147.08L147.109 153.418V153.535H145.098ZM153.223 153.73C152.487 153.73 151.82 153.607 151.221 153.359C150.628 153.105 150.117 152.751 149.688 152.295C149.264 151.839 148.939 151.299 148.711 150.674C148.483 150.049 148.369 149.365 148.369 148.623V148.213C148.369 147.354 148.496 146.589 148.75 145.918C149.004 145.241 149.349 144.668 149.785 144.199C150.221 143.73 150.716 143.376 151.27 143.135C151.823 142.894 152.396 142.773 152.988 142.773C153.743 142.773 154.395 142.904 154.941 143.164C155.495 143.424 155.947 143.789 156.299 144.258C156.65 144.72 156.911 145.267 157.08 145.898C157.249 146.523 157.334 147.207 157.334 147.949V148.76H149.443V147.285H155.527V147.148C155.501 146.68 155.404 146.224 155.234 145.781C155.072 145.339 154.811 144.974 154.453 144.688C154.095 144.401 153.607 144.258 152.988 144.258C152.578 144.258 152.201 144.346 151.855 144.521C151.51 144.691 151.214 144.945 150.967 145.283C150.719 145.622 150.527 146.035 150.391 146.523C150.254 147.012 150.186 147.575 150.186 148.213V148.623C150.186 149.124 150.254 149.596 150.391 150.039C150.534 150.475 150.739 150.859 151.006 151.191C151.279 151.523 151.608 151.784 151.992 151.973C152.383 152.161 152.826 152.256 153.32 152.256C153.958 152.256 154.499 152.126 154.941 151.865C155.384 151.605 155.771 151.257 156.104 150.82L157.197 151.689C156.969 152.035 156.68 152.363 156.328 152.676C155.977 152.988 155.544 153.242 155.029 153.438C154.521 153.633 153.919 153.73 153.223 153.73ZM161.25 145V157.598H159.434V142.969H161.094L161.25 145ZM168.369 148.164V148.369C168.369 149.137 168.278 149.85 168.096 150.508C167.913 151.159 167.646 151.725 167.295 152.207C166.95 152.689 166.523 153.063 166.016 153.33C165.508 153.597 164.925 153.73 164.268 153.73C163.597 153.73 163.005 153.62 162.49 153.398C161.976 153.177 161.54 152.855 161.182 152.432C160.824 152.008 160.537 151.501 160.322 150.908C160.114 150.316 159.971 149.648 159.893 148.906V147.812C159.971 147.031 160.117 146.331 160.332 145.713C160.547 145.094 160.83 144.567 161.182 144.131C161.54 143.688 161.973 143.353 162.48 143.125C162.988 142.891 163.574 142.773 164.238 142.773C164.902 142.773 165.492 142.904 166.006 143.164C166.52 143.418 166.953 143.783 167.305 144.258C167.656 144.733 167.92 145.303 168.096 145.967C168.278 146.624 168.369 147.357 168.369 148.164ZM166.553 148.369V148.164C166.553 147.637 166.497 147.142 166.387 146.68C166.276 146.211 166.104 145.801 165.869 145.449C165.641 145.091 165.348 144.811 164.99 144.609C164.632 144.401 164.206 144.297 163.711 144.297C163.255 144.297 162.858 144.375 162.52 144.531C162.188 144.688 161.904 144.899 161.67 145.166C161.436 145.426 161.243 145.726 161.094 146.064C160.951 146.396 160.843 146.742 160.771 147.1V149.629C160.902 150.085 161.084 150.514 161.318 150.918C161.553 151.315 161.865 151.637 162.256 151.885C162.646 152.126 163.138 152.246 163.73 152.246C164.219 152.246 164.639 152.145 164.99 151.943C165.348 151.735 165.641 151.452 165.869 151.094C166.104 150.736 166.276 150.326 166.387 149.863C166.497 149.395 166.553 148.896 166.553 148.369ZM170.195 148.369V148.145C170.195 147.383 170.306 146.676 170.527 146.025C170.749 145.368 171.068 144.798 171.484 144.316C171.901 143.828 172.406 143.451 172.998 143.184C173.59 142.91 174.255 142.773 174.99 142.773C175.732 142.773 176.4 142.91 176.992 143.184C177.591 143.451 178.099 143.828 178.516 144.316C178.939 144.798 179.261 145.368 179.482 146.025C179.704 146.676 179.814 147.383 179.814 148.145V148.369C179.814 149.131 179.704 149.837 179.482 150.488C179.261 151.139 178.939 151.709 178.516 152.197C178.099 152.679 177.594 153.057 177.002 153.33C176.416 153.597 175.752 153.73 175.01 153.73C174.268 153.73 173.6 153.597 173.008 153.33C172.415 153.057 171.908 152.679 171.484 152.197C171.068 151.709 170.749 151.139 170.527 150.488C170.306 149.837 170.195 149.131 170.195 148.369ZM172.002 148.145V148.369C172.002 148.896 172.064 149.395 172.188 149.863C172.311 150.326 172.497 150.736 172.744 151.094C172.998 151.452 173.314 151.735 173.691 151.943C174.069 152.145 174.508 152.246 175.01 152.246C175.505 152.246 175.938 152.145 176.309 151.943C176.686 151.735 176.999 151.452 177.246 151.094C177.493 150.736 177.679 150.326 177.803 149.863C177.933 149.395 177.998 148.896 177.998 148.369V148.145C177.998 147.624 177.933 147.132 177.803 146.67C177.679 146.201 177.49 145.788 177.236 145.43C176.989 145.065 176.676 144.779 176.299 144.57C175.928 144.362 175.492 144.258 174.99 144.258C174.495 144.258 174.059 144.362 173.682 144.57C173.311 144.779 172.998 145.065 172.744 145.43C172.497 145.788 172.311 146.201 172.188 146.67C172.064 147.132 172.002 147.624 172.002 148.145ZM183.887 144.629V153.535H182.08V142.969H183.838L183.887 144.629ZM187.188 142.91L187.178 144.59C187.028 144.557 186.885 144.538 186.748 144.531C186.618 144.518 186.468 144.512 186.299 144.512C185.882 144.512 185.514 144.577 185.195 144.707C184.876 144.837 184.606 145.02 184.385 145.254C184.163 145.488 183.988 145.768 183.857 146.094C183.734 146.413 183.652 146.764 183.613 147.148L183.105 147.441C183.105 146.803 183.167 146.204 183.291 145.645C183.421 145.085 183.62 144.59 183.887 144.16C184.154 143.724 184.492 143.385 184.902 143.145C185.319 142.897 185.814 142.773 186.387 142.773C186.517 142.773 186.667 142.79 186.836 142.822C187.005 142.848 187.122 142.878 187.188 142.91ZM193.77 142.969V144.355H188.057V142.969H193.77ZM189.99 140.4H191.797V150.918C191.797 151.276 191.852 151.546 191.963 151.729C192.074 151.911 192.217 152.031 192.393 152.09C192.568 152.148 192.757 152.178 192.959 152.178C193.109 152.178 193.265 152.165 193.428 152.139C193.597 152.106 193.724 152.08 193.809 152.061L193.818 153.535C193.675 153.581 193.486 153.623 193.252 153.662C193.024 153.708 192.747 153.73 192.422 153.73C191.979 153.73 191.572 153.643 191.201 153.467C190.83 153.291 190.534 152.998 190.312 152.588C190.098 152.171 189.99 151.611 189.99 150.908V140.4Z" fill="#331436"/>
<path d="M48.4609 174.16V185.535H46.9766V174.16H48.4609ZM52.1172 174.16V175.395H43.3281V174.16H52.1172ZM54.4375 178.41V185.535H52.9922V177.082H54.3984L54.4375 178.41ZM57.0781 177.035L57.0703 178.379C56.9505 178.353 56.8359 178.337 56.7266 178.332C56.6224 178.322 56.5026 178.316 56.3672 178.316C56.0339 178.316 55.7396 178.368 55.4844 178.473C55.2292 178.577 55.013 178.723 54.8359 178.91C54.6589 179.098 54.5182 179.322 54.4141 179.582C54.3151 179.837 54.25 180.118 54.2188 180.426L53.8125 180.66C53.8125 180.15 53.862 179.671 53.9609 179.223C54.0651 178.775 54.224 178.379 54.4375 178.035C54.651 177.686 54.9219 177.415 55.25 177.223C55.5833 177.025 55.9792 176.926 56.4375 176.926C56.5417 176.926 56.6615 176.939 56.7969 176.965C56.9323 176.986 57.026 177.009 57.0781 177.035ZM63.0859 184.09V179.738C63.0859 179.405 63.0182 179.116 62.8828 178.871C62.7526 178.621 62.5547 178.428 62.2891 178.293C62.0234 178.158 61.6953 178.09 61.3047 178.09C60.9401 178.09 60.6198 178.152 60.3438 178.277C60.0729 178.402 59.8594 178.566 59.7031 178.77C59.5521 178.973 59.4766 179.191 59.4766 179.426H58.0312C58.0312 179.124 58.1094 178.824 58.2656 178.527C58.4219 178.23 58.6458 177.962 58.9375 177.723C59.2344 177.478 59.5885 177.285 60 177.145C60.4167 176.999 60.8802 176.926 61.3906 176.926C62.0052 176.926 62.5469 177.03 63.0156 177.238C63.4896 177.447 63.8594 177.762 64.125 178.184C64.3958 178.6 64.5312 179.124 64.5312 179.754V183.691C64.5312 183.973 64.5547 184.272 64.6016 184.59C64.6536 184.908 64.7292 185.181 64.8281 185.41V185.535H63.3203C63.2474 185.368 63.1901 185.147 63.1484 184.871C63.1068 184.59 63.0859 184.329 63.0859 184.09ZM63.3359 180.41L63.3516 181.426H61.8906C61.4792 181.426 61.112 181.46 60.7891 181.527C60.4661 181.59 60.1953 181.686 59.9766 181.816C59.7578 181.947 59.5911 182.111 59.4766 182.309C59.362 182.501 59.3047 182.728 59.3047 182.988C59.3047 183.254 59.3646 183.496 59.4844 183.715C59.6042 183.934 59.7839 184.108 60.0234 184.238C60.2682 184.363 60.5677 184.426 60.9219 184.426C61.3646 184.426 61.7552 184.332 62.0938 184.145C62.4323 183.957 62.7005 183.728 62.8984 183.457C63.1016 183.186 63.2109 182.923 63.2266 182.668L63.8438 183.363C63.8073 183.582 63.7083 183.824 63.5469 184.09C63.3854 184.355 63.1693 184.611 62.8984 184.855C62.6328 185.095 62.3151 185.296 61.9453 185.457C61.5807 185.613 61.1693 185.691 60.7109 185.691C60.138 185.691 59.6354 185.579 59.2031 185.355C58.776 185.132 58.4427 184.832 58.2031 184.457C57.9688 184.077 57.8516 183.652 57.8516 183.184C57.8516 182.73 57.9401 182.332 58.1172 181.988C58.2943 181.639 58.5495 181.35 58.8828 181.121C59.2161 180.887 59.6172 180.71 60.0859 180.59C60.5547 180.47 61.0781 180.41 61.6562 180.41H63.3359ZM70.1875 184.504C70.5312 184.504 70.849 184.434 71.1406 184.293C71.4323 184.152 71.6719 183.96 71.8594 183.715C72.0469 183.465 72.1536 183.181 72.1797 182.863H73.5547C73.5286 183.363 73.3594 183.829 73.0469 184.262C72.7396 184.689 72.3359 185.035 71.8359 185.301C71.3359 185.561 70.7865 185.691 70.1875 185.691C69.5521 185.691 68.9974 185.579 68.5234 185.355C68.0547 185.132 67.6641 184.824 67.3516 184.434C67.0443 184.043 66.8125 183.595 66.6562 183.09C66.5052 182.579 66.4297 182.04 66.4297 181.473V181.145C66.4297 180.577 66.5052 180.04 66.6562 179.535C66.8125 179.025 67.0443 178.574 67.3516 178.184C67.6641 177.793 68.0547 177.486 68.5234 177.262C68.9974 177.038 69.5521 176.926 70.1875 176.926C70.849 176.926 71.4271 177.061 71.9219 177.332C72.4167 177.598 72.8047 177.962 73.0859 178.426C73.3724 178.884 73.5286 179.405 73.5547 179.988H72.1797C72.1536 179.639 72.0547 179.324 71.8828 179.043C71.7161 178.762 71.487 178.538 71.1953 178.371C70.9089 178.199 70.5729 178.113 70.1875 178.113C69.7448 178.113 69.3724 178.202 69.0703 178.379C68.7734 178.551 68.5365 178.785 68.3594 179.082C68.1875 179.374 68.0625 179.699 67.9844 180.059C67.9115 180.413 67.875 180.775 67.875 181.145V181.473C67.875 181.842 67.9115 182.207 67.9844 182.566C68.0573 182.926 68.1797 183.251 68.3516 183.543C68.5286 183.835 68.7656 184.069 69.0625 184.246C69.3646 184.418 69.7396 184.504 70.1875 184.504ZM76.6328 173.535V185.535H75.1797V173.535H76.6328ZM81.7969 177.082L78.1094 181.027L76.0469 183.168L75.9297 181.629L77.4062 179.863L80.0312 177.082H81.7969ZM80.4766 185.535L77.4609 181.504L78.2109 180.215L82.1797 185.535H80.4766ZM88.7031 178.707V188.785H87.25V177.082H88.5781L88.7031 178.707ZM94.3984 181.238V181.402C94.3984 182.017 94.3255 182.587 94.1797 183.113C94.0339 183.634 93.8203 184.087 93.5391 184.473C93.263 184.858 92.9219 185.158 92.5156 185.371C92.1094 185.585 91.6432 185.691 91.1172 185.691C90.5807 185.691 90.1068 185.603 89.6953 185.426C89.2839 185.249 88.9349 184.991 88.6484 184.652C88.362 184.314 88.1328 183.908 87.9609 183.434C87.7943 182.96 87.6797 182.426 87.6172 181.832V180.957C87.6797 180.332 87.7969 179.772 87.9688 179.277C88.1406 178.783 88.3672 178.361 88.6484 178.012C88.9349 177.658 89.2812 177.389 89.6875 177.207C90.0938 177.02 90.5625 176.926 91.0938 176.926C91.625 176.926 92.0964 177.03 92.5078 177.238C92.9193 177.441 93.2656 177.733 93.5469 178.113C93.8281 178.493 94.0391 178.949 94.1797 179.48C94.3255 180.007 94.3984 180.592 94.3984 181.238ZM92.9453 181.402V181.238C92.9453 180.816 92.901 180.421 92.8125 180.051C92.724 179.676 92.5859 179.348 92.3984 179.066C92.2161 178.78 91.9818 178.556 91.6953 178.395C91.4089 178.228 91.0677 178.145 90.6719 178.145C90.3073 178.145 89.9896 178.207 89.7188 178.332C89.4531 178.457 89.2266 178.626 89.0391 178.84C88.8516 179.048 88.6979 179.288 88.5781 179.559C88.4635 179.824 88.3776 180.1 88.3203 180.387V182.41C88.4245 182.775 88.5703 183.118 88.7578 183.441C88.9453 183.759 89.1953 184.017 89.5078 184.215C89.8203 184.408 90.2135 184.504 90.6875 184.504C91.0781 184.504 91.4141 184.423 91.6953 184.262C91.9818 184.095 92.2161 183.868 92.3984 183.582C92.5859 183.296 92.724 182.967 92.8125 182.598C92.901 182.223 92.9453 181.824 92.9453 181.402ZM97.6875 178.41V185.535H96.2422V177.082H97.6484L97.6875 178.41ZM100.328 177.035L100.32 178.379C100.201 178.353 100.086 178.337 99.9766 178.332C99.8724 178.322 99.7526 178.316 99.6172 178.316C99.2839 178.316 98.9896 178.368 98.7344 178.473C98.4792 178.577 98.263 178.723 98.0859 178.91C97.9089 179.098 97.7682 179.322 97.6641 179.582C97.5651 179.837 97.5 180.118 97.4688 180.426L97.0625 180.66C97.0625 180.15 97.112 179.671 97.2109 179.223C97.3151 178.775 97.474 178.379 97.6875 178.035C97.901 177.686 98.1719 177.415 98.5 177.223C98.8333 177.025 99.2292 176.926 99.6875 176.926C99.7917 176.926 99.9115 176.939 100.047 176.965C100.182 176.986 100.276 177.009 100.328 177.035ZM101.125 181.402V181.223C101.125 180.613 101.214 180.048 101.391 179.527C101.568 179.001 101.823 178.546 102.156 178.16C102.49 177.77 102.893 177.467 103.367 177.254C103.841 177.035 104.372 176.926 104.961 176.926C105.555 176.926 106.089 177.035 106.562 177.254C107.042 177.467 107.448 177.77 107.781 178.16C108.12 178.546 108.378 179.001 108.555 179.527C108.732 180.048 108.82 180.613 108.82 181.223V181.402C108.82 182.012 108.732 182.577 108.555 183.098C108.378 183.618 108.12 184.074 107.781 184.465C107.448 184.85 107.044 185.152 106.57 185.371C106.102 185.585 105.57 185.691 104.977 185.691C104.383 185.691 103.849 185.585 103.375 185.371C102.901 185.152 102.495 184.85 102.156 184.465C101.823 184.074 101.568 183.618 101.391 183.098C101.214 182.577 101.125 182.012 101.125 181.402ZM102.57 181.223V181.402C102.57 181.824 102.62 182.223 102.719 182.598C102.818 182.967 102.966 183.296 103.164 183.582C103.367 183.868 103.62 184.095 103.922 184.262C104.224 184.423 104.576 184.504 104.977 184.504C105.372 184.504 105.719 184.423 106.016 184.262C106.318 184.095 106.568 183.868 106.766 183.582C106.964 183.296 107.112 182.967 107.211 182.598C107.315 182.223 107.367 181.824 107.367 181.402V181.223C107.367 180.806 107.315 180.413 107.211 180.043C107.112 179.668 106.961 179.337 106.758 179.051C106.56 178.759 106.31 178.53 106.008 178.363C105.711 178.197 105.362 178.113 104.961 178.113C104.565 178.113 104.216 178.197 103.914 178.363C103.617 178.53 103.367 178.759 103.164 179.051C102.966 179.337 102.818 179.668 102.719 180.043C102.62 180.413 102.57 180.806 102.57 181.223ZM110.672 177.082H112.125V186.543C112.125 187.059 112.042 187.496 111.875 187.855C111.714 188.215 111.469 188.486 111.141 188.668C110.818 188.855 110.409 188.949 109.914 188.949C109.784 188.949 109.633 188.936 109.461 188.91C109.284 188.884 109.135 188.853 109.016 188.816L109.023 187.652C109.122 187.673 109.234 187.689 109.359 187.699C109.484 187.715 109.594 187.723 109.688 187.723C109.901 187.723 110.081 187.684 110.227 187.605C110.372 187.527 110.482 187.402 110.555 187.23C110.633 187.059 110.672 186.829 110.672 186.543V177.082ZM110.523 174.84C110.523 174.605 110.596 174.408 110.742 174.246C110.888 174.085 111.099 174.004 111.375 174.004C111.656 174.004 111.87 174.085 112.016 174.246C112.161 174.408 112.234 174.605 112.234 174.84C112.234 175.064 112.161 175.257 112.016 175.418C111.87 175.574 111.656 175.652 111.375 175.652C111.099 175.652 110.888 175.574 110.742 175.418C110.596 175.257 110.523 175.064 110.523 174.84ZM117.969 185.691C117.38 185.691 116.846 185.592 116.367 185.395C115.893 185.191 115.484 184.908 115.141 184.543C114.802 184.178 114.542 183.746 114.359 183.246C114.177 182.746 114.086 182.199 114.086 181.605V181.277C114.086 180.59 114.188 179.978 114.391 179.441C114.594 178.9 114.87 178.441 115.219 178.066C115.568 177.691 115.964 177.408 116.406 177.215C116.849 177.022 117.307 176.926 117.781 176.926C118.385 176.926 118.906 177.03 119.344 177.238C119.786 177.447 120.148 177.738 120.43 178.113C120.711 178.483 120.919 178.921 121.055 179.426C121.19 179.926 121.258 180.473 121.258 181.066V181.715H114.945V180.535H119.812V180.426C119.792 180.051 119.714 179.686 119.578 179.332C119.448 178.978 119.24 178.686 118.953 178.457C118.667 178.228 118.276 178.113 117.781 178.113C117.453 178.113 117.151 178.184 116.875 178.324C116.599 178.46 116.362 178.663 116.164 178.934C115.966 179.204 115.812 179.535 115.703 179.926C115.594 180.316 115.539 180.767 115.539 181.277V181.605C115.539 182.007 115.594 182.384 115.703 182.738C115.818 183.087 115.982 183.395 116.195 183.66C116.414 183.926 116.677 184.134 116.984 184.285C117.297 184.436 117.651 184.512 118.047 184.512C118.557 184.512 118.99 184.408 119.344 184.199C119.698 183.991 120.008 183.712 120.273 183.363L121.148 184.059C120.966 184.335 120.734 184.598 120.453 184.848C120.172 185.098 119.826 185.301 119.414 185.457C119.008 185.613 118.526 185.691 117.969 185.691ZM126.328 184.504C126.672 184.504 126.99 184.434 127.281 184.293C127.573 184.152 127.812 183.96 128 183.715C128.188 183.465 128.294 183.181 128.32 182.863H129.695C129.669 183.363 129.5 183.829 129.188 184.262C128.88 184.689 128.477 185.035 127.977 185.301C127.477 185.561 126.927 185.691 126.328 185.691C125.693 185.691 125.138 185.579 124.664 185.355C124.195 185.132 123.805 184.824 123.492 184.434C123.185 184.043 122.953 183.595 122.797 183.09C122.646 182.579 122.57 182.04 122.57 181.473V181.145C122.57 180.577 122.646 180.04 122.797 179.535C122.953 179.025 123.185 178.574 123.492 178.184C123.805 177.793 124.195 177.486 124.664 177.262C125.138 177.038 125.693 176.926 126.328 176.926C126.99 176.926 127.568 177.061 128.062 177.332C128.557 177.598 128.945 177.962 129.227 178.426C129.513 178.884 129.669 179.405 129.695 179.988H128.32C128.294 179.639 128.195 179.324 128.023 179.043C127.857 178.762 127.628 178.538 127.336 178.371C127.049 178.199 126.714 178.113 126.328 178.113C125.885 178.113 125.513 178.202 125.211 178.379C124.914 178.551 124.677 178.785 124.5 179.082C124.328 179.374 124.203 179.699 124.125 180.059C124.052 180.413 124.016 180.775 124.016 181.145V181.473C124.016 181.842 124.052 182.207 124.125 182.566C124.198 182.926 124.32 183.251 124.492 183.543C124.669 183.835 124.906 184.069 125.203 184.246C125.505 184.418 125.88 184.504 126.328 184.504ZM134.859 177.082V178.191H130.289V177.082H134.859ZM131.836 175.027H133.281V183.441C133.281 183.728 133.326 183.944 133.414 184.09C133.503 184.236 133.617 184.332 133.758 184.379C133.898 184.426 134.049 184.449 134.211 184.449C134.331 184.449 134.456 184.439 134.586 184.418C134.721 184.392 134.823 184.371 134.891 184.355L134.898 185.535C134.784 185.572 134.633 185.605 134.445 185.637C134.263 185.673 134.042 185.691 133.781 185.691C133.427 185.691 133.102 185.621 132.805 185.48C132.508 185.34 132.271 185.105 132.094 184.777C131.922 184.444 131.836 183.996 131.836 183.434V175.027ZM141.969 178.707V188.785H140.516V177.082H141.844L141.969 178.707ZM147.664 181.238V181.402C147.664 182.017 147.591 182.587 147.445 183.113C147.299 183.634 147.086 184.087 146.805 184.473C146.529 184.858 146.188 185.158 145.781 185.371C145.375 185.585 144.909 185.691 144.383 185.691C143.846 185.691 143.372 185.603 142.961 185.426C142.549 185.249 142.201 184.991 141.914 184.652C141.628 184.314 141.398 183.908 141.227 183.434C141.06 182.96 140.945 182.426 140.883 181.832V180.957C140.945 180.332 141.062 179.772 141.234 179.277C141.406 178.783 141.633 178.361 141.914 178.012C142.201 177.658 142.547 177.389 142.953 177.207C143.359 177.02 143.828 176.926 144.359 176.926C144.891 176.926 145.362 177.03 145.773 177.238C146.185 177.441 146.531 177.733 146.812 178.113C147.094 178.493 147.305 178.949 147.445 179.48C147.591 180.007 147.664 180.592 147.664 181.238ZM146.211 181.402V181.238C146.211 180.816 146.167 180.421 146.078 180.051C145.99 179.676 145.852 179.348 145.664 179.066C145.482 178.78 145.247 178.556 144.961 178.395C144.674 178.228 144.333 178.145 143.938 178.145C143.573 178.145 143.255 178.207 142.984 178.332C142.719 178.457 142.492 178.626 142.305 178.84C142.117 179.048 141.964 179.288 141.844 179.559C141.729 179.824 141.643 180.1 141.586 180.387V182.41C141.69 182.775 141.836 183.118 142.023 183.441C142.211 183.759 142.461 184.017 142.773 184.215C143.086 184.408 143.479 184.504 143.953 184.504C144.344 184.504 144.68 184.423 144.961 184.262C145.247 184.095 145.482 183.868 145.664 183.582C145.852 183.296 145.99 182.967 146.078 182.598C146.167 182.223 146.211 181.824 146.211 181.402ZM150.953 178.41V185.535H149.508V177.082H150.914L150.953 178.41ZM153.594 177.035L153.586 178.379C153.466 178.353 153.352 178.337 153.242 178.332C153.138 178.322 153.018 178.316 152.883 178.316C152.549 178.316 152.255 178.368 152 178.473C151.745 178.577 151.529 178.723 151.352 178.91C151.174 179.098 151.034 179.322 150.93 179.582C150.831 179.837 150.766 180.118 150.734 180.426L150.328 180.66C150.328 180.15 150.378 179.671 150.477 179.223C150.581 178.775 150.74 178.379 150.953 178.035C151.167 177.686 151.438 177.415 151.766 177.223C152.099 177.025 152.495 176.926 152.953 176.926C153.057 176.926 153.177 176.939 153.312 176.965C153.448 176.986 153.542 177.009 153.594 177.035ZM154.391 181.402V181.223C154.391 180.613 154.479 180.048 154.656 179.527C154.833 179.001 155.089 178.546 155.422 178.16C155.755 177.77 156.159 177.467 156.633 177.254C157.107 177.035 157.638 176.926 158.227 176.926C158.82 176.926 159.354 177.035 159.828 177.254C160.307 177.467 160.714 177.77 161.047 178.16C161.385 178.546 161.643 179.001 161.82 179.527C161.997 180.048 162.086 180.613 162.086 181.223V181.402C162.086 182.012 161.997 182.577 161.82 183.098C161.643 183.618 161.385 184.074 161.047 184.465C160.714 184.85 160.31 185.152 159.836 185.371C159.367 185.585 158.836 185.691 158.242 185.691C157.648 185.691 157.115 185.585 156.641 185.371C156.167 185.152 155.76 184.85 155.422 184.465C155.089 184.074 154.833 183.618 154.656 183.098C154.479 182.577 154.391 182.012 154.391 181.402ZM155.836 181.223V181.402C155.836 181.824 155.885 182.223 155.984 182.598C156.083 182.967 156.232 183.296 156.43 183.582C156.633 183.868 156.885 184.095 157.188 184.262C157.49 184.423 157.841 184.504 158.242 184.504C158.638 184.504 158.984 184.423 159.281 184.262C159.583 184.095 159.833 183.868 160.031 183.582C160.229 183.296 160.378 182.967 160.477 182.598C160.581 182.223 160.633 181.824 160.633 181.402V181.223C160.633 180.806 160.581 180.413 160.477 180.043C160.378 179.668 160.227 179.337 160.023 179.051C159.826 178.759 159.576 178.53 159.273 178.363C158.977 178.197 158.628 178.113 158.227 178.113C157.831 178.113 157.482 178.197 157.18 178.363C156.883 178.53 156.633 178.759 156.43 179.051C156.232 179.337 156.083 179.668 155.984 180.043C155.885 180.413 155.836 180.806 155.836 181.223ZM169.375 177.082H170.688V185.355C170.688 186.1 170.536 186.736 170.234 187.262C169.932 187.788 169.51 188.186 168.969 188.457C168.432 188.733 167.812 188.871 167.109 188.871C166.818 188.871 166.474 188.824 166.078 188.73C165.688 188.642 165.302 188.488 164.922 188.27C164.547 188.056 164.232 187.767 163.977 187.402L164.734 186.543C165.089 186.97 165.458 187.267 165.844 187.434C166.234 187.6 166.62 187.684 167 187.684C167.458 187.684 167.854 187.598 168.188 187.426C168.521 187.254 168.779 186.999 168.961 186.66C169.148 186.327 169.242 185.915 169.242 185.426V178.941L169.375 177.082ZM163.555 181.402V181.238C163.555 180.592 163.63 180.007 163.781 179.48C163.938 178.949 164.159 178.493 164.445 178.113C164.737 177.733 165.089 177.441 165.5 177.238C165.911 177.03 166.375 176.926 166.891 176.926C167.422 176.926 167.885 177.02 168.281 177.207C168.682 177.389 169.021 177.658 169.297 178.012C169.578 178.361 169.799 178.783 169.961 179.277C170.122 179.772 170.234 180.332 170.297 180.957V181.676C170.24 182.296 170.128 182.853 169.961 183.348C169.799 183.842 169.578 184.264 169.297 184.613C169.021 184.962 168.682 185.23 168.281 185.418C167.88 185.6 167.411 185.691 166.875 185.691C166.37 185.691 165.911 185.585 165.5 185.371C165.094 185.158 164.745 184.858 164.453 184.473C164.161 184.087 163.938 183.634 163.781 183.113C163.63 182.587 163.555 182.017 163.555 181.402ZM165 181.238V181.402C165 181.824 165.042 182.22 165.125 182.59C165.214 182.96 165.346 183.285 165.523 183.566C165.706 183.848 165.938 184.069 166.219 184.23C166.5 184.387 166.836 184.465 167.227 184.465C167.706 184.465 168.102 184.363 168.414 184.16C168.727 183.957 168.974 183.689 169.156 183.355C169.344 183.022 169.49 182.66 169.594 182.27V180.387C169.536 180.1 169.448 179.824 169.328 179.559C169.214 179.288 169.062 179.048 168.875 178.84C168.693 178.626 168.466 178.457 168.195 178.332C167.924 178.207 167.607 178.145 167.242 178.145C166.846 178.145 166.505 178.228 166.219 178.395C165.938 178.556 165.706 178.78 165.523 179.066C165.346 179.348 165.214 179.676 165.125 180.051C165.042 180.421 165 180.816 165 181.238ZM174.328 178.41V185.535H172.883V177.082H174.289L174.328 178.41ZM176.969 177.035L176.961 178.379C176.841 178.353 176.727 178.337 176.617 178.332C176.513 178.322 176.393 178.316 176.258 178.316C175.924 178.316 175.63 178.368 175.375 178.473C175.12 178.577 174.904 178.723 174.727 178.91C174.549 179.098 174.409 179.322 174.305 179.582C174.206 179.837 174.141 180.118 174.109 180.426L173.703 180.66C173.703 180.15 173.753 179.671 173.852 179.223C173.956 178.775 174.115 178.379 174.328 178.035C174.542 177.686 174.812 177.415 175.141 177.223C175.474 177.025 175.87 176.926 176.328 176.926C176.432 176.926 176.552 176.939 176.688 176.965C176.823 176.986 176.917 177.009 176.969 177.035ZM181.656 185.691C181.068 185.691 180.534 185.592 180.055 185.395C179.581 185.191 179.172 184.908 178.828 184.543C178.49 184.178 178.229 183.746 178.047 183.246C177.865 182.746 177.773 182.199 177.773 181.605V181.277C177.773 180.59 177.875 179.978 178.078 179.441C178.281 178.9 178.557 178.441 178.906 178.066C179.255 177.691 179.651 177.408 180.094 177.215C180.536 177.022 180.995 176.926 181.469 176.926C182.073 176.926 182.594 177.03 183.031 177.238C183.474 177.447 183.836 177.738 184.117 178.113C184.398 178.483 184.607 178.921 184.742 179.426C184.878 179.926 184.945 180.473 184.945 181.066V181.715H178.633V180.535H183.5V180.426C183.479 180.051 183.401 179.686 183.266 179.332C183.135 178.978 182.927 178.686 182.641 178.457C182.354 178.228 181.964 178.113 181.469 178.113C181.141 178.113 180.839 178.184 180.562 178.324C180.286 178.46 180.049 178.663 179.852 178.934C179.654 179.204 179.5 179.535 179.391 179.926C179.281 180.316 179.227 180.767 179.227 181.277V181.605C179.227 182.007 179.281 182.384 179.391 182.738C179.505 183.087 179.669 183.395 179.883 183.66C180.102 183.926 180.365 184.134 180.672 184.285C180.984 184.436 181.339 184.512 181.734 184.512C182.245 184.512 182.677 184.408 183.031 184.199C183.385 183.991 183.695 183.712 183.961 183.363L184.836 184.059C184.654 184.335 184.422 184.598 184.141 184.848C183.859 185.098 183.513 185.301 183.102 185.457C182.695 185.613 182.214 185.691 181.656 185.691ZM191.555 183.293C191.555 183.085 191.508 182.892 191.414 182.715C191.326 182.533 191.141 182.368 190.859 182.223C190.583 182.072 190.167 181.941 189.609 181.832C189.141 181.733 188.716 181.616 188.336 181.48C187.961 181.345 187.641 181.181 187.375 180.988C187.115 180.796 186.914 180.569 186.773 180.309C186.633 180.048 186.562 179.743 186.562 179.395C186.562 179.061 186.635 178.746 186.781 178.449C186.932 178.152 187.143 177.889 187.414 177.66C187.69 177.431 188.021 177.251 188.406 177.121C188.792 176.991 189.221 176.926 189.695 176.926C190.372 176.926 190.951 177.046 191.43 177.285C191.909 177.525 192.276 177.845 192.531 178.246C192.786 178.642 192.914 179.082 192.914 179.566H191.469C191.469 179.332 191.398 179.105 191.258 178.887C191.122 178.663 190.922 178.478 190.656 178.332C190.396 178.186 190.076 178.113 189.695 178.113C189.294 178.113 188.969 178.176 188.719 178.301C188.474 178.421 188.294 178.574 188.18 178.762C188.07 178.949 188.016 179.147 188.016 179.355C188.016 179.512 188.042 179.652 188.094 179.777C188.151 179.897 188.25 180.009 188.391 180.113C188.531 180.212 188.729 180.306 188.984 180.395C189.24 180.483 189.565 180.572 189.961 180.66C190.654 180.816 191.224 181.004 191.672 181.223C192.12 181.441 192.453 181.71 192.672 182.027C192.891 182.345 193 182.73 193 183.184C193 183.553 192.922 183.892 192.766 184.199C192.615 184.507 192.393 184.772 192.102 184.996C191.815 185.215 191.471 185.387 191.07 185.512C190.674 185.632 190.229 185.691 189.734 185.691C188.99 185.691 188.359 185.559 187.844 185.293C187.328 185.027 186.938 184.684 186.672 184.262C186.406 183.84 186.273 183.395 186.273 182.926H187.727C187.747 183.322 187.862 183.637 188.07 183.871C188.279 184.1 188.534 184.264 188.836 184.363C189.138 184.457 189.438 184.504 189.734 184.504C190.13 184.504 190.461 184.452 190.727 184.348C190.997 184.243 191.203 184.1 191.344 183.918C191.484 183.736 191.555 183.527 191.555 183.293ZM199.82 183.293C199.82 183.085 199.773 182.892 199.68 182.715C199.591 182.533 199.406 182.368 199.125 182.223C198.849 182.072 198.432 181.941 197.875 181.832C197.406 181.733 196.982 181.616 196.602 181.48C196.227 181.345 195.906 181.181 195.641 180.988C195.38 180.796 195.18 180.569 195.039 180.309C194.898 180.048 194.828 179.743 194.828 179.395C194.828 179.061 194.901 178.746 195.047 178.449C195.198 178.152 195.409 177.889 195.68 177.66C195.956 177.431 196.286 177.251 196.672 177.121C197.057 176.991 197.487 176.926 197.961 176.926C198.638 176.926 199.216 177.046 199.695 177.285C200.174 177.525 200.542 177.845 200.797 178.246C201.052 178.642 201.18 179.082 201.18 179.566H199.734C199.734 179.332 199.664 179.105 199.523 178.887C199.388 178.663 199.188 178.478 198.922 178.332C198.661 178.186 198.341 178.113 197.961 178.113C197.56 178.113 197.234 178.176 196.984 178.301C196.74 178.421 196.56 178.574 196.445 178.762C196.336 178.949 196.281 179.147 196.281 179.355C196.281 179.512 196.307 179.652 196.359 179.777C196.417 179.897 196.516 180.009 196.656 180.113C196.797 180.212 196.995 180.306 197.25 180.395C197.505 180.483 197.831 180.572 198.227 180.66C198.919 180.816 199.49 181.004 199.938 181.223C200.385 181.441 200.719 181.71 200.938 182.027C201.156 182.345 201.266 182.73 201.266 183.184C201.266 183.553 201.188 183.892 201.031 184.199C200.88 184.507 200.659 184.772 200.367 184.996C200.081 185.215 199.737 185.387 199.336 185.512C198.94 185.632 198.495 185.691 198 185.691C197.255 185.691 196.625 185.559 196.109 185.293C195.594 185.027 195.203 184.684 194.938 184.262C194.672 183.84 194.539 183.395 194.539 182.926H195.992C196.013 183.322 196.128 183.637 196.336 183.871C196.544 184.1 196.799 184.264 197.102 184.363C197.404 184.457 197.703 184.504 198 184.504C198.396 184.504 198.727 184.452 198.992 184.348C199.263 184.243 199.469 184.1 199.609 183.918C199.75 183.736 199.82 183.527 199.82 183.293Z" fill="#331436"/>
</svg>
