<svg width="245" height="205" viewBox="0 0 245 205" fill="none" xmlns="http://www.w3.org/2000/svg">
<rect x="72.5" y="12.5352" width="100" height="100" rx="50" fill="#331436"/>
<path d="M122.5 50.5352V62.5352L130.5 66.5352M142.5 62.5352C142.5 73.5809 133.546 82.5352 122.5 82.5352C111.454 82.5352 102.5 73.5809 102.5 62.5352C102.5 51.4895 111.454 42.5352 122.5 42.5352C133.546 42.5352 142.5 51.4895 142.5 62.5352Z" stroke="white" stroke-width="4" stroke-linecap="round" stroke-linejoin="round"/>
<path d="M53.9453 153.535H50.9766L50.9961 152.002H53.9453C54.9609 152.002 55.8073 151.79 56.4844 151.367C57.1615 150.938 57.6693 150.339 58.0078 149.57C58.3529 148.796 58.5254 147.891 58.5254 146.855V145.986C58.5254 145.173 58.4277 144.45 58.2324 143.818C58.0371 143.18 57.7507 142.643 57.373 142.207C56.9954 141.764 56.5332 141.429 55.9863 141.201C55.446 140.973 54.8242 140.859 54.1211 140.859H50.918V139.316H54.1211C55.0521 139.316 55.9017 139.473 56.6699 139.785C57.4382 140.091 58.099 140.537 58.6523 141.123C59.2122 141.702 59.6419 142.406 59.9414 143.232C60.2409 144.053 60.3906 144.977 60.3906 146.006V146.855C60.3906 147.884 60.2409 148.812 59.9414 149.639C59.6419 150.459 59.209 151.159 58.6426 151.738C58.0827 152.318 57.4056 152.764 56.6113 153.076C55.8236 153.382 54.9349 153.535 53.9453 153.535ZM51.9824 139.316V153.535H50.0977V139.316H51.9824ZM67.334 153.73C66.5983 153.73 65.931 153.607 65.332 153.359C64.7396 153.105 64.2285 152.751 63.7988 152.295C63.3757 151.839 63.0501 151.299 62.8223 150.674C62.5944 150.049 62.4805 149.365 62.4805 148.623V148.213C62.4805 147.354 62.6074 146.589 62.8613 145.918C63.1152 145.241 63.4603 144.668 63.8965 144.199C64.3327 143.73 64.8275 143.376 65.3809 143.135C65.9342 142.894 66.5072 142.773 67.0996 142.773C67.8548 142.773 68.5059 142.904 69.0527 143.164C69.6061 143.424 70.0586 143.789 70.4102 144.258C70.7617 144.72 71.0221 145.267 71.1914 145.898C71.3607 146.523 71.4453 147.207 71.4453 147.949V148.76H63.5547V147.285H69.6387V147.148C69.6126 146.68 69.515 146.224 69.3457 145.781C69.1829 145.339 68.9225 144.974 68.5645 144.688C68.2064 144.401 67.7181 144.258 67.0996 144.258C66.6895 144.258 66.3118 144.346 65.9668 144.521C65.6217 144.691 65.3255 144.945 65.0781 145.283C64.8307 145.622 64.6387 146.035 64.502 146.523C64.3652 147.012 64.2969 147.575 64.2969 148.213V148.623C64.2969 149.124 64.3652 149.596 64.502 150.039C64.6452 150.475 64.8503 150.859 65.1172 151.191C65.3906 151.523 65.7194 151.784 66.1035 151.973C66.4941 152.161 66.9368 152.256 67.4316 152.256C68.0697 152.256 68.61 152.126 69.0527 151.865C69.4954 151.605 69.8828 151.257 70.2148 150.82L71.3086 151.689C71.0807 152.035 70.791 152.363 70.4395 152.676C70.0879 152.988 69.6549 153.242 69.1406 153.438C68.6328 153.633 68.0306 153.73 67.334 153.73ZM79.7852 151.729V146.289C79.7852 145.872 79.7005 145.511 79.5312 145.205C79.3685 144.893 79.1211 144.652 78.7891 144.482C78.457 144.313 78.0469 144.229 77.5586 144.229C77.1029 144.229 76.7025 144.307 76.3574 144.463C76.0189 144.619 75.752 144.824 75.5566 145.078C75.3678 145.332 75.2734 145.605 75.2734 145.898H73.4668C73.4668 145.521 73.5645 145.146 73.7598 144.775C73.9551 144.404 74.235 144.069 74.5996 143.77C74.9707 143.464 75.4134 143.223 75.9277 143.047C76.4486 142.865 77.028 142.773 77.666 142.773C78.4342 142.773 79.1113 142.904 79.6973 143.164C80.2897 143.424 80.752 143.818 81.084 144.346C81.4225 144.867 81.5918 145.521 81.5918 146.309V151.23C81.5918 151.582 81.6211 151.956 81.6797 152.354C81.7448 152.751 81.8392 153.092 81.9629 153.379V153.535H80.0781C79.987 153.327 79.9154 153.05 79.8633 152.705C79.8112 152.354 79.7852 152.028 79.7852 151.729ZM80.0977 147.129L80.1172 148.398H78.291C77.7767 148.398 77.3177 148.441 76.9141 148.525C76.5104 148.604 76.1719 148.724 75.8984 148.887C75.625 149.049 75.4167 149.255 75.2734 149.502C75.1302 149.743 75.0586 150.026 75.0586 150.352C75.0586 150.684 75.1335 150.986 75.2832 151.26C75.4329 151.533 75.6576 151.751 75.957 151.914C76.263 152.07 76.6374 152.148 77.0801 152.148C77.6335 152.148 78.1217 152.031 78.5449 151.797C78.9681 151.562 79.3034 151.276 79.5508 150.938C79.8047 150.599 79.9414 150.27 79.9609 149.951L80.7324 150.82C80.6868 151.094 80.5632 151.396 80.3613 151.729C80.1595 152.061 79.8893 152.38 79.5508 152.686C79.2188 152.985 78.8216 153.236 78.3594 153.438C77.9036 153.633 77.3893 153.73 76.8164 153.73C76.1003 153.73 75.472 153.59 74.9316 153.311C74.3978 153.031 73.9811 152.656 73.6816 152.188C73.3887 151.712 73.2422 151.182 73.2422 150.596C73.2422 150.029 73.3529 149.531 73.5742 149.102C73.7956 148.665 74.1146 148.304 74.5312 148.018C74.9479 147.725 75.4492 147.503 76.0352 147.354C76.6211 147.204 77.2754 147.129 77.998 147.129H80.0977ZM91.0938 151.484V138.535H92.9102V153.535H91.25L91.0938 151.484ZM83.9844 148.369V148.164C83.9844 147.357 84.082 146.624 84.2773 145.967C84.4792 145.303 84.7624 144.733 85.127 144.258C85.498 143.783 85.9375 143.418 86.4453 143.164C86.9596 142.904 87.5326 142.773 88.1641 142.773C88.8281 142.773 89.4076 142.891 89.9023 143.125C90.4036 143.353 90.8268 143.688 91.1719 144.131C91.5234 144.567 91.8001 145.094 92.002 145.713C92.2038 146.331 92.3438 147.031 92.4219 147.812V148.711C92.3503 149.486 92.2103 150.182 92.002 150.801C91.8001 151.419 91.5234 151.947 91.1719 152.383C90.8268 152.819 90.4036 153.154 89.9023 153.389C89.401 153.617 88.8151 153.73 88.1445 153.73C87.526 153.73 86.9596 153.597 86.4453 153.33C85.9375 153.063 85.498 152.689 85.127 152.207C84.7624 151.725 84.4792 151.159 84.2773 150.508C84.082 149.85 83.9844 149.137 83.9844 148.369ZM85.8008 148.164V148.369C85.8008 148.896 85.8529 149.391 85.957 149.854C86.0677 150.316 86.237 150.723 86.4648 151.074C86.6927 151.426 86.9824 151.702 87.334 151.904C87.6855 152.1 88.1055 152.197 88.5938 152.197C89.1927 152.197 89.6842 152.07 90.0684 151.816C90.459 151.562 90.7715 151.227 91.0059 150.811C91.2402 150.394 91.4225 149.941 91.5527 149.453V147.1C91.4746 146.742 91.3607 146.396 91.2109 146.064C91.0677 145.726 90.8789 145.426 90.6445 145.166C90.4167 144.899 90.1335 144.688 89.7949 144.531C89.4629 144.375 89.069 144.297 88.6133 144.297C88.1185 144.297 87.6921 144.401 87.334 144.609C86.9824 144.811 86.6927 145.091 86.4648 145.449C86.237 145.801 86.0677 146.211 85.957 146.68C85.8529 147.142 85.8008 147.637 85.8008 148.164ZM97.6855 138.535V153.535H95.8691V138.535H97.6855ZM102.549 142.969V153.535H100.732V142.969H102.549ZM100.596 140.166C100.596 139.873 100.684 139.626 100.859 139.424C101.042 139.222 101.309 139.121 101.66 139.121C102.005 139.121 102.269 139.222 102.451 139.424C102.64 139.626 102.734 139.873 102.734 140.166C102.734 140.446 102.64 140.687 102.451 140.889C102.269 141.084 102.005 141.182 101.66 141.182C101.309 141.182 101.042 141.084 100.859 140.889C100.684 140.687 100.596 140.446 100.596 140.166ZM107.256 145.225V153.535H105.449V142.969H107.158L107.256 145.225ZM106.826 147.852L106.074 147.822C106.081 147.1 106.188 146.432 106.396 145.82C106.605 145.202 106.898 144.665 107.275 144.209C107.653 143.753 108.102 143.402 108.623 143.154C109.15 142.9 109.733 142.773 110.371 142.773C110.892 142.773 111.361 142.845 111.777 142.988C112.194 143.125 112.549 143.346 112.842 143.652C113.141 143.958 113.369 144.355 113.525 144.844C113.682 145.326 113.76 145.915 113.76 146.611V153.535H111.943V146.592C111.943 146.038 111.862 145.596 111.699 145.264C111.536 144.925 111.299 144.681 110.986 144.531C110.674 144.375 110.29 144.297 109.834 144.297C109.385 144.297 108.975 144.391 108.604 144.58C108.239 144.769 107.923 145.029 107.656 145.361C107.396 145.693 107.191 146.074 107.041 146.504C106.898 146.927 106.826 147.376 106.826 147.852ZM120.889 153.73C120.153 153.73 119.486 153.607 118.887 153.359C118.294 153.105 117.783 152.751 117.354 152.295C116.93 151.839 116.605 151.299 116.377 150.674C116.149 150.049 116.035 149.365 116.035 148.623V148.213C116.035 147.354 116.162 146.589 116.416 145.918C116.67 145.241 117.015 144.668 117.451 144.199C117.887 143.73 118.382 143.376 118.936 143.135C119.489 142.894 120.062 142.773 120.654 142.773C121.41 142.773 122.061 142.904 122.607 143.164C123.161 143.424 123.613 143.789 123.965 144.258C124.316 144.72 124.577 145.267 124.746 145.898C124.915 146.523 125 147.207 125 147.949V148.76H117.109V147.285H123.193V147.148C123.167 146.68 123.07 146.224 122.9 145.781C122.738 145.339 122.477 144.974 122.119 144.688C121.761 144.401 121.273 144.258 120.654 144.258C120.244 144.258 119.867 144.346 119.521 144.521C119.176 144.691 118.88 144.945 118.633 145.283C118.385 145.622 118.193 146.035 118.057 146.523C117.92 147.012 117.852 147.575 117.852 148.213V148.623C117.852 149.124 117.92 149.596 118.057 150.039C118.2 150.475 118.405 150.859 118.672 151.191C118.945 151.523 119.274 151.784 119.658 151.973C120.049 152.161 120.492 152.256 120.986 152.256C121.624 152.256 122.165 152.126 122.607 151.865C123.05 151.605 123.438 151.257 123.77 150.82L124.863 151.689C124.635 152.035 124.346 152.363 123.994 152.676C123.643 152.988 123.21 153.242 122.695 153.438C122.188 153.633 121.585 153.73 120.889 153.73ZM137.207 139.316V153.535H135.352V139.316H137.207ZM141.777 139.316V140.859H130.791V139.316H141.777ZM144.678 144.629V153.535H142.871V142.969H144.629L144.678 144.629ZM147.979 142.91L147.969 144.59C147.819 144.557 147.676 144.538 147.539 144.531C147.409 144.518 147.259 144.512 147.09 144.512C146.673 144.512 146.305 144.577 145.986 144.707C145.667 144.837 145.397 145.02 145.176 145.254C144.954 145.488 144.779 145.768 144.648 146.094C144.525 146.413 144.443 146.764 144.404 147.148L143.896 147.441C143.896 146.803 143.958 146.204 144.082 145.645C144.212 145.085 144.411 144.59 144.678 144.16C144.945 143.724 145.283 143.385 145.693 143.145C146.11 142.897 146.605 142.773 147.178 142.773C147.308 142.773 147.458 142.79 147.627 142.822C147.796 142.848 147.913 142.878 147.979 142.91ZM155.488 151.729V146.289C155.488 145.872 155.404 145.511 155.234 145.205C155.072 144.893 154.824 144.652 154.492 144.482C154.16 144.313 153.75 144.229 153.262 144.229C152.806 144.229 152.406 144.307 152.061 144.463C151.722 144.619 151.455 144.824 151.26 145.078C151.071 145.332 150.977 145.605 150.977 145.898H149.17C149.17 145.521 149.268 145.146 149.463 144.775C149.658 144.404 149.938 144.069 150.303 143.77C150.674 143.464 151.117 143.223 151.631 143.047C152.152 142.865 152.731 142.773 153.369 142.773C154.137 142.773 154.814 142.904 155.4 143.164C155.993 143.424 156.455 143.818 156.787 144.346C157.126 144.867 157.295 145.521 157.295 146.309V151.23C157.295 151.582 157.324 151.956 157.383 152.354C157.448 152.751 157.542 153.092 157.666 153.379V153.535H155.781C155.69 153.327 155.618 153.05 155.566 152.705C155.514 152.354 155.488 152.028 155.488 151.729ZM155.801 147.129L155.82 148.398H153.994C153.48 148.398 153.021 148.441 152.617 148.525C152.214 148.604 151.875 148.724 151.602 148.887C151.328 149.049 151.12 149.255 150.977 149.502C150.833 149.743 150.762 150.026 150.762 150.352C150.762 150.684 150.837 150.986 150.986 151.26C151.136 151.533 151.361 151.751 151.66 151.914C151.966 152.07 152.34 152.148 152.783 152.148C153.337 152.148 153.825 152.031 154.248 151.797C154.671 151.562 155.007 151.276 155.254 150.938C155.508 150.599 155.645 150.27 155.664 149.951L156.436 150.82C156.39 151.094 156.266 151.396 156.064 151.729C155.863 152.061 155.592 152.38 155.254 152.686C154.922 152.985 154.525 153.236 154.062 153.438C153.607 153.633 153.092 153.73 152.52 153.73C151.803 153.73 151.175 153.59 150.635 153.311C150.101 153.031 149.684 152.656 149.385 152.188C149.092 151.712 148.945 151.182 148.945 150.596C148.945 150.029 149.056 149.531 149.277 149.102C149.499 148.665 149.818 148.304 150.234 148.018C150.651 147.725 151.152 147.503 151.738 147.354C152.324 147.204 152.979 147.129 153.701 147.129H155.801ZM164.365 152.246C164.795 152.246 165.192 152.158 165.557 151.982C165.921 151.807 166.221 151.566 166.455 151.26C166.689 150.947 166.823 150.592 166.855 150.195H168.574C168.542 150.82 168.33 151.403 167.939 151.943C167.555 152.477 167.051 152.91 166.426 153.242C165.801 153.568 165.114 153.73 164.365 153.73C163.571 153.73 162.878 153.59 162.285 153.311C161.699 153.031 161.211 152.646 160.82 152.158C160.436 151.67 160.146 151.11 159.951 150.479C159.762 149.84 159.668 149.167 159.668 148.457V148.047C159.668 147.337 159.762 146.667 159.951 146.035C160.146 145.397 160.436 144.834 160.82 144.346C161.211 143.857 161.699 143.473 162.285 143.193C162.878 142.913 163.571 142.773 164.365 142.773C165.192 142.773 165.915 142.943 166.533 143.281C167.152 143.613 167.637 144.069 167.988 144.648C168.346 145.221 168.542 145.872 168.574 146.602H166.855C166.823 146.165 166.699 145.771 166.484 145.42C166.276 145.068 165.99 144.788 165.625 144.58C165.267 144.365 164.847 144.258 164.365 144.258C163.812 144.258 163.346 144.368 162.969 144.59C162.598 144.805 162.301 145.098 162.08 145.469C161.865 145.833 161.709 146.24 161.611 146.689C161.52 147.132 161.475 147.585 161.475 148.047V148.457C161.475 148.919 161.52 149.375 161.611 149.824C161.702 150.273 161.855 150.68 162.07 151.045C162.292 151.41 162.588 151.702 162.959 151.924C163.337 152.139 163.805 152.246 164.365 152.246ZM172.422 138.535V153.535H170.605V138.535H172.422ZM178.877 142.969L174.268 147.9L171.689 150.576L171.543 148.652L173.389 146.445L176.67 142.969H178.877ZM177.227 153.535L173.457 148.496L174.395 146.885L179.355 153.535H177.227ZM184.932 153.73C184.196 153.73 183.529 153.607 182.93 153.359C182.337 153.105 181.826 152.751 181.396 152.295C180.973 151.839 180.648 151.299 180.42 150.674C180.192 150.049 180.078 149.365 180.078 148.623V148.213C180.078 147.354 180.205 146.589 180.459 145.918C180.713 145.241 181.058 144.668 181.494 144.199C181.93 143.73 182.425 143.376 182.979 143.135C183.532 142.894 184.105 142.773 184.697 142.773C185.452 142.773 186.104 142.904 186.65 143.164C187.204 143.424 187.656 143.789 188.008 144.258C188.359 144.72 188.62 145.267 188.789 145.898C188.958 146.523 189.043 147.207 189.043 147.949V148.76H181.152V147.285H187.236V147.148C187.21 146.68 187.113 146.224 186.943 145.781C186.781 145.339 186.52 144.974 186.162 144.688C185.804 144.401 185.316 144.258 184.697 144.258C184.287 144.258 183.91 144.346 183.564 144.521C183.219 144.691 182.923 144.945 182.676 145.283C182.428 145.622 182.236 146.035 182.1 146.523C181.963 147.012 181.895 147.575 181.895 148.213V148.623C181.895 149.124 181.963 149.596 182.1 150.039C182.243 150.475 182.448 150.859 182.715 151.191C182.988 151.523 183.317 151.784 183.701 151.973C184.092 152.161 184.535 152.256 185.029 152.256C185.667 152.256 186.208 152.126 186.65 151.865C187.093 151.605 187.48 151.257 187.812 150.82L188.906 151.689C188.678 152.035 188.389 152.363 188.037 152.676C187.686 152.988 187.253 153.242 186.738 153.438C186.23 153.633 185.628 153.73 184.932 153.73ZM192.959 144.629V153.535H191.152V142.969H192.91L192.959 144.629ZM196.26 142.91L196.25 144.59C196.1 144.557 195.957 144.538 195.82 144.531C195.69 144.518 195.54 144.512 195.371 144.512C194.954 144.512 194.587 144.577 194.268 144.707C193.949 144.837 193.678 145.02 193.457 145.254C193.236 145.488 193.06 145.768 192.93 146.094C192.806 146.413 192.725 146.764 192.686 147.148L192.178 147.441C192.178 146.803 192.24 146.204 192.363 145.645C192.493 145.085 192.692 144.59 192.959 144.16C193.226 143.724 193.564 143.385 193.975 143.145C194.391 142.897 194.886 142.773 195.459 142.773C195.589 142.773 195.739 142.79 195.908 142.822C196.077 142.848 196.195 142.878 196.26 142.91Z" fill="#331436"/>
<path d="M15.4219 174.16V185.535H13.9141V174.16H15.4219ZM22.2891 174.16L17.5625 179.465L14.9062 182.223L14.6562 180.613L16.6562 178.41L20.4766 174.16H22.2891ZM20.8359 185.535L16.625 179.988L17.5234 178.793L22.6328 185.535H20.8359ZM27.0469 185.691C26.4583 185.691 25.9245 185.592 25.4453 185.395C24.9714 185.191 24.5625 184.908 24.2188 184.543C23.8802 184.178 23.6198 183.746 23.4375 183.246C23.2552 182.746 23.1641 182.199 23.1641 181.605V181.277C23.1641 180.59 23.2656 179.978 23.4688 179.441C23.6719 178.9 23.9479 178.441 24.2969 178.066C24.6458 177.691 25.0417 177.408 25.4844 177.215C25.9271 177.022 26.3854 176.926 26.8594 176.926C27.4635 176.926 27.9844 177.03 28.4219 177.238C28.8646 177.447 29.2266 177.738 29.5078 178.113C29.7891 178.483 29.9974 178.921 30.1328 179.426C30.2682 179.926 30.3359 180.473 30.3359 181.066V181.715H24.0234V180.535H28.8906V180.426C28.8698 180.051 28.7917 179.686 28.6562 179.332C28.526 178.978 28.3177 178.686 28.0312 178.457C27.7448 178.228 27.3542 178.113 26.8594 178.113C26.5312 178.113 26.2292 178.184 25.9531 178.324C25.6771 178.46 25.4401 178.663 25.2422 178.934C25.0443 179.204 24.8906 179.535 24.7812 179.926C24.6719 180.316 24.6172 180.767 24.6172 181.277V181.605C24.6172 182.007 24.6719 182.384 24.7812 182.738C24.8958 183.087 25.0599 183.395 25.2734 183.66C25.4922 183.926 25.7552 184.134 26.0625 184.285C26.375 184.436 26.7292 184.512 27.125 184.512C27.6354 184.512 28.0677 184.408 28.4219 184.199C28.776 183.991 29.0859 183.712 29.3516 183.363L30.2266 184.059C30.0443 184.335 29.8125 184.598 29.5312 184.848C29.25 185.098 28.9036 185.301 28.4922 185.457C28.0859 185.613 27.6042 185.691 27.0469 185.691ZM35.5312 185.691C34.9427 185.691 34.4089 185.592 33.9297 185.395C33.4557 185.191 33.0469 184.908 32.7031 184.543C32.3646 184.178 32.1042 183.746 31.9219 183.246C31.7396 182.746 31.6484 182.199 31.6484 181.605V181.277C31.6484 180.59 31.75 179.978 31.9531 179.441C32.1562 178.9 32.4323 178.441 32.7812 178.066C33.1302 177.691 33.526 177.408 33.9688 177.215C34.4115 177.022 34.8698 176.926 35.3438 176.926C35.9479 176.926 36.4688 177.03 36.9062 177.238C37.349 177.447 37.7109 177.738 37.9922 178.113C38.2734 178.483 38.4818 178.921 38.6172 179.426C38.7526 179.926 38.8203 180.473 38.8203 181.066V181.715H32.5078V180.535H37.375V180.426C37.3542 180.051 37.276 179.686 37.1406 179.332C37.0104 178.978 36.8021 178.686 36.5156 178.457C36.2292 178.228 35.8385 178.113 35.3438 178.113C35.0156 178.113 34.7135 178.184 34.4375 178.324C34.1615 178.46 33.9245 178.663 33.7266 178.934C33.5286 179.204 33.375 179.535 33.2656 179.926C33.1562 180.316 33.1016 180.767 33.1016 181.277V181.605C33.1016 182.007 33.1562 182.384 33.2656 182.738C33.3802 183.087 33.5443 183.395 33.7578 183.66C33.9766 183.926 34.2396 184.134 34.5469 184.285C34.8594 184.436 35.2135 184.512 35.6094 184.512C36.1198 184.512 36.5521 184.408 36.9062 184.199C37.2604 183.991 37.5703 183.712 37.8359 183.363L38.7109 184.059C38.5286 184.335 38.2969 184.598 38.0156 184.848C37.7344 185.098 37.388 185.301 36.9766 185.457C36.5703 185.613 36.0885 185.691 35.5312 185.691ZM41.9531 178.707V188.785H40.5V177.082H41.8281L41.9531 178.707ZM47.6484 181.238V181.402C47.6484 182.017 47.5755 182.587 47.4297 183.113C47.2839 183.634 47.0703 184.087 46.7891 184.473C46.513 184.858 46.1719 185.158 45.7656 185.371C45.3594 185.585 44.8932 185.691 44.3672 185.691C43.8307 185.691 43.3568 185.603 42.9453 185.426C42.5339 185.249 42.1849 184.991 41.8984 184.652C41.612 184.314 41.3828 183.908 41.2109 183.434C41.0443 182.96 40.9297 182.426 40.8672 181.832V180.957C40.9297 180.332 41.0469 179.772 41.2188 179.277C41.3906 178.783 41.6172 178.361 41.8984 178.012C42.1849 177.658 42.5312 177.389 42.9375 177.207C43.3438 177.02 43.8125 176.926 44.3438 176.926C44.875 176.926 45.3464 177.03 45.7578 177.238C46.1693 177.441 46.5156 177.733 46.7969 178.113C47.0781 178.493 47.2891 178.949 47.4297 179.48C47.5755 180.007 47.6484 180.592 47.6484 181.238ZM46.1953 181.402V181.238C46.1953 180.816 46.151 180.421 46.0625 180.051C45.974 179.676 45.8359 179.348 45.6484 179.066C45.4661 178.78 45.2318 178.556 44.9453 178.395C44.6589 178.228 44.3177 178.145 43.9219 178.145C43.5573 178.145 43.2396 178.207 42.9688 178.332C42.7031 178.457 42.4766 178.626 42.2891 178.84C42.1016 179.048 41.9479 179.288 41.8281 179.559C41.7135 179.824 41.6276 180.1 41.5703 180.387V182.41C41.6745 182.775 41.8203 183.118 42.0078 183.441C42.1953 183.759 42.4453 184.017 42.7578 184.215C43.0703 184.408 43.4635 184.504 43.9375 184.504C44.3281 184.504 44.6641 184.423 44.9453 184.262C45.2318 184.095 45.4661 183.868 45.6484 183.582C45.8359 183.296 45.974 182.967 46.0625 182.598C46.151 182.223 46.1953 181.824 46.1953 181.402ZM57 177.082V178.191H52.4297V177.082H57ZM53.9766 175.027H55.4219V183.441C55.4219 183.728 55.4661 183.944 55.5547 184.09C55.6432 184.236 55.7578 184.332 55.8984 184.379C56.0391 184.426 56.1901 184.449 56.3516 184.449C56.4714 184.449 56.5964 184.439 56.7266 184.418C56.862 184.392 56.9635 184.371 57.0312 184.355L57.0391 185.535C56.9245 185.572 56.7734 185.605 56.5859 185.637C56.4036 185.673 56.1823 185.691 55.9219 185.691C55.5677 185.691 55.2422 185.621 54.9453 185.48C54.6484 185.34 54.4115 185.105 54.2344 184.777C54.0625 184.444 53.9766 183.996 53.9766 183.434V175.027ZM60.1406 178.41V185.535H58.6953V177.082H60.1016L60.1406 178.41ZM62.7812 177.035L62.7734 178.379C62.6536 178.353 62.5391 178.337 62.4297 178.332C62.3255 178.322 62.2057 178.316 62.0703 178.316C61.737 178.316 61.4427 178.368 61.1875 178.473C60.9323 178.577 60.7161 178.723 60.5391 178.91C60.362 179.098 60.2214 179.322 60.1172 179.582C60.0182 179.837 59.9531 180.118 59.9219 180.426L59.5156 180.66C59.5156 180.15 59.5651 179.671 59.6641 179.223C59.7682 178.775 59.9271 178.379 60.1406 178.035C60.3542 177.686 60.625 177.415 60.9531 177.223C61.2865 177.025 61.6823 176.926 62.1406 176.926C62.2448 176.926 62.3646 176.939 62.5 176.965C62.6354 176.986 62.7292 177.009 62.7812 177.035ZM68.7891 184.09V179.738C68.7891 179.405 68.7214 179.116 68.5859 178.871C68.4557 178.621 68.2578 178.428 67.9922 178.293C67.7266 178.158 67.3984 178.09 67.0078 178.09C66.6432 178.09 66.3229 178.152 66.0469 178.277C65.776 178.402 65.5625 178.566 65.4062 178.77C65.2552 178.973 65.1797 179.191 65.1797 179.426H63.7344C63.7344 179.124 63.8125 178.824 63.9688 178.527C64.125 178.23 64.349 177.962 64.6406 177.723C64.9375 177.478 65.2917 177.285 65.7031 177.145C66.1198 176.999 66.5833 176.926 67.0938 176.926C67.7083 176.926 68.25 177.03 68.7188 177.238C69.1927 177.447 69.5625 177.762 69.8281 178.184C70.099 178.6 70.2344 179.124 70.2344 179.754V183.691C70.2344 183.973 70.2578 184.272 70.3047 184.59C70.3568 184.908 70.4323 185.181 70.5312 185.41V185.535H69.0234C68.9505 185.368 68.8932 185.147 68.8516 184.871C68.8099 184.59 68.7891 184.329 68.7891 184.09ZM69.0391 180.41L69.0547 181.426H67.5938C67.1823 181.426 66.8151 181.46 66.4922 181.527C66.1693 181.59 65.8984 181.686 65.6797 181.816C65.4609 181.947 65.2943 182.111 65.1797 182.309C65.0651 182.501 65.0078 182.728 65.0078 182.988C65.0078 183.254 65.0677 183.496 65.1875 183.715C65.3073 183.934 65.487 184.108 65.7266 184.238C65.9714 184.363 66.2708 184.426 66.625 184.426C67.0677 184.426 67.4583 184.332 67.7969 184.145C68.1354 183.957 68.4036 183.728 68.6016 183.457C68.8047 183.186 68.9141 182.923 68.9297 182.668L69.5469 183.363C69.5104 183.582 69.4115 183.824 69.25 184.09C69.0885 184.355 68.8724 184.611 68.6016 184.855C68.3359 185.095 68.0182 185.296 67.6484 185.457C67.2839 185.613 66.8724 185.691 66.4141 185.691C65.8411 185.691 65.3385 185.579 64.9062 185.355C64.4792 185.132 64.1458 184.832 63.9062 184.457C63.6719 184.077 63.5547 183.652 63.5547 183.184C63.5547 182.73 63.6432 182.332 63.8203 181.988C63.9974 181.639 64.2526 181.35 64.5859 181.121C64.9193 180.887 65.3203 180.71 65.7891 180.59C66.2578 180.47 66.7812 180.41 67.3594 180.41H69.0391ZM75.8906 184.504C76.2344 184.504 76.5521 184.434 76.8438 184.293C77.1354 184.152 77.375 183.96 77.5625 183.715C77.75 183.465 77.8568 183.181 77.8828 182.863H79.2578C79.2318 183.363 79.0625 183.829 78.75 184.262C78.4427 184.689 78.0391 185.035 77.5391 185.301C77.0391 185.561 76.4896 185.691 75.8906 185.691C75.2552 185.691 74.7005 185.579 74.2266 185.355C73.7578 185.132 73.3672 184.824 73.0547 184.434C72.7474 184.043 72.5156 183.595 72.3594 183.09C72.2083 182.579 72.1328 182.04 72.1328 181.473V181.145C72.1328 180.577 72.2083 180.04 72.3594 179.535C72.5156 179.025 72.7474 178.574 73.0547 178.184C73.3672 177.793 73.7578 177.486 74.2266 177.262C74.7005 177.038 75.2552 176.926 75.8906 176.926C76.5521 176.926 77.1302 177.061 77.625 177.332C78.1198 177.598 78.5078 177.962 78.7891 178.426C79.0755 178.884 79.2318 179.405 79.2578 179.988H77.8828C77.8568 179.639 77.7578 179.324 77.5859 179.043C77.4193 178.762 77.1901 178.538 76.8984 178.371C76.612 178.199 76.276 178.113 75.8906 178.113C75.4479 178.113 75.0755 178.202 74.7734 178.379C74.4766 178.551 74.2396 178.785 74.0625 179.082C73.8906 179.374 73.7656 179.699 73.6875 180.059C73.6146 180.413 73.5781 180.775 73.5781 181.145V181.473C73.5781 181.842 73.6146 182.207 73.6875 182.566C73.7604 182.926 73.8828 183.251 74.0547 183.543C74.2318 183.835 74.4688 184.069 74.7656 184.246C75.0677 184.418 75.4427 184.504 75.8906 184.504ZM82.3359 173.535V185.535H80.8828V173.535H82.3359ZM87.5 177.082L83.8125 181.027L81.75 183.168L81.6328 181.629L83.1094 179.863L85.7344 177.082H87.5ZM86.1797 185.535L83.1641 181.504L83.9141 180.215L87.8828 185.535H86.1797ZM92.5781 181.402V181.223C92.5781 180.613 92.6667 180.048 92.8438 179.527C93.0208 179.001 93.276 178.546 93.6094 178.16C93.9427 177.77 94.3464 177.467 94.8203 177.254C95.2943 177.035 95.8255 176.926 96.4141 176.926C97.0078 176.926 97.5417 177.035 98.0156 177.254C98.4948 177.467 98.901 177.77 99.2344 178.16C99.5729 178.546 99.8307 179.001 100.008 179.527C100.185 180.048 100.273 180.613 100.273 181.223V181.402C100.273 182.012 100.185 182.577 100.008 183.098C99.8307 183.618 99.5729 184.074 99.2344 184.465C98.901 184.85 98.4974 185.152 98.0234 185.371C97.5547 185.585 97.0234 185.691 96.4297 185.691C95.8359 185.691 95.3021 185.585 94.8281 185.371C94.3542 185.152 93.9479 184.85 93.6094 184.465C93.276 184.074 93.0208 183.618 92.8438 183.098C92.6667 182.577 92.5781 182.012 92.5781 181.402ZM94.0234 181.223V181.402C94.0234 181.824 94.0729 182.223 94.1719 182.598C94.2708 182.967 94.4193 183.296 94.6172 183.582C94.8203 183.868 95.0729 184.095 95.375 184.262C95.6771 184.423 96.0286 184.504 96.4297 184.504C96.8255 184.504 97.1719 184.423 97.4688 184.262C97.7708 184.095 98.0208 183.868 98.2188 183.582C98.4167 183.296 98.5651 182.967 98.6641 182.598C98.7682 182.223 98.8203 181.824 98.8203 181.402V181.223C98.8203 180.806 98.7682 180.413 98.6641 180.043C98.5651 179.668 98.4141 179.337 98.2109 179.051C98.013 178.759 97.763 178.53 97.4609 178.363C97.1641 178.197 96.8151 178.113 96.4141 178.113C96.0182 178.113 95.6693 178.197 95.3672 178.363C95.0703 178.53 94.8203 178.759 94.6172 179.051C94.4193 179.337 94.2708 179.668 94.1719 180.043C94.0729 180.413 94.0234 180.806 94.0234 181.223ZM104.242 185.535H102.797V176.191C102.797 175.582 102.906 175.069 103.125 174.652C103.349 174.23 103.669 173.913 104.086 173.699C104.503 173.48 104.997 173.371 105.57 173.371C105.737 173.371 105.904 173.382 106.07 173.402C106.242 173.423 106.409 173.454 106.57 173.496L106.492 174.676C106.383 174.65 106.258 174.632 106.117 174.621C105.982 174.611 105.846 174.605 105.711 174.605C105.404 174.605 105.138 174.668 104.914 174.793C104.695 174.913 104.529 175.09 104.414 175.324C104.299 175.559 104.242 175.848 104.242 176.191V185.535ZM106.039 177.082V178.191H101.461V177.082H106.039ZM113.062 178.707V188.785H111.609V177.082H112.938L113.062 178.707ZM118.758 181.238V181.402C118.758 182.017 118.685 182.587 118.539 183.113C118.393 183.634 118.18 184.087 117.898 184.473C117.622 184.858 117.281 185.158 116.875 185.371C116.469 185.585 116.003 185.691 115.477 185.691C114.94 185.691 114.466 185.603 114.055 185.426C113.643 185.249 113.294 184.991 113.008 184.652C112.721 184.314 112.492 183.908 112.32 183.434C112.154 182.96 112.039 182.426 111.977 181.832V180.957C112.039 180.332 112.156 179.772 112.328 179.277C112.5 178.783 112.727 178.361 113.008 178.012C113.294 177.658 113.641 177.389 114.047 177.207C114.453 177.02 114.922 176.926 115.453 176.926C115.984 176.926 116.456 177.03 116.867 177.238C117.279 177.441 117.625 177.733 117.906 178.113C118.188 178.493 118.398 178.949 118.539 179.48C118.685 180.007 118.758 180.592 118.758 181.238ZM117.305 181.402V181.238C117.305 180.816 117.26 180.421 117.172 180.051C117.083 179.676 116.945 179.348 116.758 179.066C116.576 178.78 116.341 178.556 116.055 178.395C115.768 178.228 115.427 178.145 115.031 178.145C114.667 178.145 114.349 178.207 114.078 178.332C113.812 178.457 113.586 178.626 113.398 178.84C113.211 179.048 113.057 179.288 112.938 179.559C112.823 179.824 112.737 180.1 112.68 180.387V182.41C112.784 182.775 112.93 183.118 113.117 183.441C113.305 183.759 113.555 184.017 113.867 184.215C114.18 184.408 114.573 184.504 115.047 184.504C115.438 184.504 115.773 184.423 116.055 184.262C116.341 184.095 116.576 183.868 116.758 183.582C116.945 183.296 117.083 182.967 117.172 182.598C117.26 182.223 117.305 181.824 117.305 181.402ZM122.047 178.41V185.535H120.602V177.082H122.008L122.047 178.41ZM124.688 177.035L124.68 178.379C124.56 178.353 124.445 178.337 124.336 178.332C124.232 178.322 124.112 178.316 123.977 178.316C123.643 178.316 123.349 178.368 123.094 178.473C122.839 178.577 122.622 178.723 122.445 178.91C122.268 179.098 122.128 179.322 122.023 179.582C121.924 179.837 121.859 180.118 121.828 180.426L121.422 180.66C121.422 180.15 121.471 179.671 121.57 179.223C121.674 178.775 121.833 178.379 122.047 178.035C122.26 177.686 122.531 177.415 122.859 177.223C123.193 177.025 123.589 176.926 124.047 176.926C124.151 176.926 124.271 176.939 124.406 176.965C124.542 176.986 124.635 177.009 124.688 177.035ZM125.484 181.402V181.223C125.484 180.613 125.573 180.048 125.75 179.527C125.927 179.001 126.182 178.546 126.516 178.16C126.849 177.77 127.253 177.467 127.727 177.254C128.201 177.035 128.732 176.926 129.32 176.926C129.914 176.926 130.448 177.035 130.922 177.254C131.401 177.467 131.807 177.77 132.141 178.16C132.479 178.546 132.737 179.001 132.914 179.527C133.091 180.048 133.18 180.613 133.18 181.223V181.402C133.18 182.012 133.091 182.577 132.914 183.098C132.737 183.618 132.479 184.074 132.141 184.465C131.807 184.85 131.404 185.152 130.93 185.371C130.461 185.585 129.93 185.691 129.336 185.691C128.742 185.691 128.208 185.585 127.734 185.371C127.26 185.152 126.854 184.85 126.516 184.465C126.182 184.074 125.927 183.618 125.75 183.098C125.573 182.577 125.484 182.012 125.484 181.402ZM126.93 181.223V181.402C126.93 181.824 126.979 182.223 127.078 182.598C127.177 182.967 127.326 183.296 127.523 183.582C127.727 183.868 127.979 184.095 128.281 184.262C128.583 184.423 128.935 184.504 129.336 184.504C129.732 184.504 130.078 184.423 130.375 184.262C130.677 184.095 130.927 183.868 131.125 183.582C131.323 183.296 131.471 182.967 131.57 182.598C131.674 182.223 131.727 181.824 131.727 181.402V181.223C131.727 180.806 131.674 180.413 131.57 180.043C131.471 179.668 131.32 179.337 131.117 179.051C130.919 178.759 130.669 178.53 130.367 178.363C130.07 178.197 129.721 178.113 129.32 178.113C128.924 178.113 128.576 178.197 128.273 178.363C127.977 178.53 127.727 178.759 127.523 179.051C127.326 179.337 127.177 179.668 127.078 180.043C126.979 180.413 126.93 180.806 126.93 181.223ZM135.031 177.082H136.484V186.543C136.484 187.059 136.401 187.496 136.234 187.855C136.073 188.215 135.828 188.486 135.5 188.668C135.177 188.855 134.768 188.949 134.273 188.949C134.143 188.949 133.992 188.936 133.82 188.91C133.643 188.884 133.495 188.853 133.375 188.816L133.383 187.652C133.482 187.673 133.594 187.689 133.719 187.699C133.844 187.715 133.953 187.723 134.047 187.723C134.26 187.723 134.44 187.684 134.586 187.605C134.732 187.527 134.841 187.402 134.914 187.23C134.992 187.059 135.031 186.829 135.031 186.543V177.082ZM134.883 174.84C134.883 174.605 134.956 174.408 135.102 174.246C135.247 174.085 135.458 174.004 135.734 174.004C136.016 174.004 136.229 174.085 136.375 174.246C136.521 174.408 136.594 174.605 136.594 174.84C136.594 175.064 136.521 175.257 136.375 175.418C136.229 175.574 136.016 175.652 135.734 175.652C135.458 175.652 135.247 175.574 135.102 175.418C134.956 175.257 134.883 175.064 134.883 174.84ZM142.328 185.691C141.74 185.691 141.206 185.592 140.727 185.395C140.253 185.191 139.844 184.908 139.5 184.543C139.161 184.178 138.901 183.746 138.719 183.246C138.536 182.746 138.445 182.199 138.445 181.605V181.277C138.445 180.59 138.547 179.978 138.75 179.441C138.953 178.9 139.229 178.441 139.578 178.066C139.927 177.691 140.323 177.408 140.766 177.215C141.208 177.022 141.667 176.926 142.141 176.926C142.745 176.926 143.266 177.03 143.703 177.238C144.146 177.447 144.508 177.738 144.789 178.113C145.07 178.483 145.279 178.921 145.414 179.426C145.549 179.926 145.617 180.473 145.617 181.066V181.715H139.305V180.535H144.172V180.426C144.151 180.051 144.073 179.686 143.938 179.332C143.807 178.978 143.599 178.686 143.312 178.457C143.026 178.228 142.635 178.113 142.141 178.113C141.812 178.113 141.51 178.184 141.234 178.324C140.958 178.46 140.721 178.663 140.523 178.934C140.326 179.204 140.172 179.535 140.062 179.926C139.953 180.316 139.898 180.767 139.898 181.277V181.605C139.898 182.007 139.953 182.384 140.062 182.738C140.177 183.087 140.341 183.395 140.555 183.66C140.773 183.926 141.036 184.134 141.344 184.285C141.656 184.436 142.01 184.512 142.406 184.512C142.917 184.512 143.349 184.408 143.703 184.199C144.057 183.991 144.367 183.712 144.633 183.363L145.508 184.059C145.326 184.335 145.094 184.598 144.812 184.848C144.531 185.098 144.185 185.301 143.773 185.457C143.367 185.613 142.885 185.691 142.328 185.691ZM150.688 184.504C151.031 184.504 151.349 184.434 151.641 184.293C151.932 184.152 152.172 183.96 152.359 183.715C152.547 183.465 152.654 183.181 152.68 182.863H154.055C154.029 183.363 153.859 183.829 153.547 184.262C153.24 184.689 152.836 185.035 152.336 185.301C151.836 185.561 151.286 185.691 150.688 185.691C150.052 185.691 149.497 185.579 149.023 185.355C148.555 185.132 148.164 184.824 147.852 184.434C147.544 184.043 147.312 183.595 147.156 183.09C147.005 182.579 146.93 182.04 146.93 181.473V181.145C146.93 180.577 147.005 180.04 147.156 179.535C147.312 179.025 147.544 178.574 147.852 178.184C148.164 177.793 148.555 177.486 149.023 177.262C149.497 177.038 150.052 176.926 150.688 176.926C151.349 176.926 151.927 177.061 152.422 177.332C152.917 177.598 153.305 177.962 153.586 178.426C153.872 178.884 154.029 179.405 154.055 179.988H152.68C152.654 179.639 152.555 179.324 152.383 179.043C152.216 178.762 151.987 178.538 151.695 178.371C151.409 178.199 151.073 178.113 150.688 178.113C150.245 178.113 149.872 178.202 149.57 178.379C149.273 178.551 149.036 178.785 148.859 179.082C148.688 179.374 148.562 179.699 148.484 180.059C148.411 180.413 148.375 180.775 148.375 181.145V181.473C148.375 181.842 148.411 182.207 148.484 182.566C148.557 182.926 148.68 183.251 148.852 183.543C149.029 183.835 149.266 184.069 149.562 184.246C149.865 184.418 150.24 184.504 150.688 184.504ZM159.219 177.082V178.191H154.648V177.082H159.219ZM156.195 175.027H157.641V183.441C157.641 183.728 157.685 183.944 157.773 184.09C157.862 184.236 157.977 184.332 158.117 184.379C158.258 184.426 158.409 184.449 158.57 184.449C158.69 184.449 158.815 184.439 158.945 184.418C159.081 184.392 159.182 184.371 159.25 184.355L159.258 185.535C159.143 185.572 158.992 185.605 158.805 185.637C158.622 185.673 158.401 185.691 158.141 185.691C157.786 185.691 157.461 185.621 157.164 185.48C156.867 185.34 156.63 185.105 156.453 184.777C156.281 184.444 156.195 183.996 156.195 183.434V175.027ZM170.211 183.895V173.535H171.664V185.535H170.336L170.211 183.895ZM164.523 181.402V181.238C164.523 180.592 164.602 180.007 164.758 179.48C164.919 178.949 165.146 178.493 165.438 178.113C165.734 177.733 166.086 177.441 166.492 177.238C166.904 177.03 167.362 176.926 167.867 176.926C168.398 176.926 168.862 177.02 169.258 177.207C169.659 177.389 169.997 177.658 170.273 178.012C170.555 178.361 170.776 178.783 170.938 179.277C171.099 179.772 171.211 180.332 171.273 180.957V181.676C171.216 182.296 171.104 182.853 170.938 183.348C170.776 183.842 170.555 184.264 170.273 184.613C169.997 184.962 169.659 185.23 169.258 185.418C168.857 185.6 168.388 185.691 167.852 185.691C167.357 185.691 166.904 185.585 166.492 185.371C166.086 185.158 165.734 184.858 165.438 184.473C165.146 184.087 164.919 183.634 164.758 183.113C164.602 182.587 164.523 182.017 164.523 181.402ZM165.977 181.238V181.402C165.977 181.824 166.018 182.22 166.102 182.59C166.19 182.96 166.326 183.285 166.508 183.566C166.69 183.848 166.922 184.069 167.203 184.23C167.484 184.387 167.82 184.465 168.211 184.465C168.69 184.465 169.083 184.363 169.391 184.16C169.703 183.957 169.953 183.689 170.141 183.355C170.328 183.022 170.474 182.66 170.578 182.27V180.387C170.516 180.1 170.424 179.824 170.305 179.559C170.19 179.288 170.039 179.048 169.852 178.84C169.669 178.626 169.443 178.457 169.172 178.332C168.906 178.207 168.591 178.145 168.227 178.145C167.831 178.145 167.49 178.228 167.203 178.395C166.922 178.556 166.69 178.78 166.508 179.066C166.326 179.348 166.19 179.676 166.102 180.051C166.018 180.421 165.977 180.816 165.977 181.238ZM177.422 185.691C176.833 185.691 176.299 185.592 175.82 185.395C175.346 185.191 174.938 184.908 174.594 184.543C174.255 184.178 173.995 183.746 173.812 183.246C173.63 182.746 173.539 182.199 173.539 181.605V181.277C173.539 180.59 173.641 179.978 173.844 179.441C174.047 178.9 174.323 178.441 174.672 178.066C175.021 177.691 175.417 177.408 175.859 177.215C176.302 177.022 176.76 176.926 177.234 176.926C177.839 176.926 178.359 177.03 178.797 177.238C179.24 177.447 179.602 177.738 179.883 178.113C180.164 178.483 180.372 178.921 180.508 179.426C180.643 179.926 180.711 180.473 180.711 181.066V181.715H174.398V180.535H179.266V180.426C179.245 180.051 179.167 179.686 179.031 179.332C178.901 178.978 178.693 178.686 178.406 178.457C178.12 178.228 177.729 178.113 177.234 178.113C176.906 178.113 176.604 178.184 176.328 178.324C176.052 178.46 175.815 178.663 175.617 178.934C175.419 179.204 175.266 179.535 175.156 179.926C175.047 180.316 174.992 180.767 174.992 181.277V181.605C174.992 182.007 175.047 182.384 175.156 182.738C175.271 183.087 175.435 183.395 175.648 183.66C175.867 183.926 176.13 184.134 176.438 184.285C176.75 184.436 177.104 184.512 177.5 184.512C178.01 184.512 178.443 184.408 178.797 184.199C179.151 183.991 179.461 183.712 179.727 183.363L180.602 184.059C180.419 184.335 180.188 184.598 179.906 184.848C179.625 185.098 179.279 185.301 178.867 185.457C178.461 185.613 177.979 185.691 177.422 185.691ZM187.383 184.09V179.738C187.383 179.405 187.315 179.116 187.18 178.871C187.049 178.621 186.852 178.428 186.586 178.293C186.32 178.158 185.992 178.09 185.602 178.09C185.237 178.09 184.917 178.152 184.641 178.277C184.37 178.402 184.156 178.566 184 178.77C183.849 178.973 183.773 179.191 183.773 179.426H182.328C182.328 179.124 182.406 178.824 182.562 178.527C182.719 178.23 182.943 177.962 183.234 177.723C183.531 177.478 183.885 177.285 184.297 177.145C184.714 176.999 185.177 176.926 185.688 176.926C186.302 176.926 186.844 177.03 187.312 177.238C187.786 177.447 188.156 177.762 188.422 178.184C188.693 178.6 188.828 179.124 188.828 179.754V183.691C188.828 183.973 188.852 184.272 188.898 184.59C188.951 184.908 189.026 185.181 189.125 185.41V185.535H187.617C187.544 185.368 187.487 185.147 187.445 184.871C187.404 184.59 187.383 184.329 187.383 184.09ZM187.633 180.41L187.648 181.426H186.188C185.776 181.426 185.409 181.46 185.086 181.527C184.763 181.59 184.492 181.686 184.273 181.816C184.055 181.947 183.888 182.111 183.773 182.309C183.659 182.501 183.602 182.728 183.602 182.988C183.602 183.254 183.661 183.496 183.781 183.715C183.901 183.934 184.081 184.108 184.32 184.238C184.565 184.363 184.865 184.426 185.219 184.426C185.661 184.426 186.052 184.332 186.391 184.145C186.729 183.957 186.997 183.728 187.195 183.457C187.398 183.186 187.508 182.923 187.523 182.668L188.141 183.363C188.104 183.582 188.005 183.824 187.844 184.09C187.682 184.355 187.466 184.611 187.195 184.855C186.93 185.095 186.612 185.296 186.242 185.457C185.878 185.613 185.466 185.691 185.008 185.691C184.435 185.691 183.932 185.579 183.5 185.355C183.073 185.132 182.74 184.832 182.5 184.457C182.266 184.077 182.148 183.652 182.148 183.184C182.148 182.73 182.237 182.332 182.414 181.988C182.591 181.639 182.846 181.35 183.18 181.121C183.513 180.887 183.914 180.71 184.383 180.59C184.852 180.47 185.375 180.41 185.953 180.41H187.633ZM196.43 183.895V173.535H197.883V185.535H196.555L196.43 183.895ZM190.742 181.402V181.238C190.742 180.592 190.82 180.007 190.977 179.48C191.138 178.949 191.365 178.493 191.656 178.113C191.953 177.733 192.305 177.441 192.711 177.238C193.122 177.03 193.581 176.926 194.086 176.926C194.617 176.926 195.081 177.02 195.477 177.207C195.878 177.389 196.216 177.658 196.492 178.012C196.773 178.361 196.995 178.783 197.156 179.277C197.318 179.772 197.43 180.332 197.492 180.957V181.676C197.435 182.296 197.323 182.853 197.156 183.348C196.995 183.842 196.773 184.264 196.492 184.613C196.216 184.962 195.878 185.23 195.477 185.418C195.076 185.6 194.607 185.691 194.07 185.691C193.576 185.691 193.122 185.585 192.711 185.371C192.305 185.158 191.953 184.858 191.656 184.473C191.365 184.087 191.138 183.634 190.977 183.113C190.82 182.587 190.742 182.017 190.742 181.402ZM192.195 181.238V181.402C192.195 181.824 192.237 182.22 192.32 182.59C192.409 182.96 192.544 183.285 192.727 183.566C192.909 183.848 193.141 184.069 193.422 184.23C193.703 184.387 194.039 184.465 194.43 184.465C194.909 184.465 195.302 184.363 195.609 184.16C195.922 183.957 196.172 183.689 196.359 183.355C196.547 183.022 196.693 182.66 196.797 182.27V180.387C196.734 180.1 196.643 179.824 196.523 179.559C196.409 179.288 196.258 179.048 196.07 178.84C195.888 178.626 195.661 178.457 195.391 178.332C195.125 178.207 194.81 178.145 194.445 178.145C194.049 178.145 193.708 178.228 193.422 178.395C193.141 178.556 192.909 178.78 192.727 179.066C192.544 179.348 192.409 179.676 192.32 180.051C192.237 180.421 192.195 180.816 192.195 181.238ZM201.703 173.535V185.535H200.25V173.535H201.703ZM205.594 177.082V185.535H204.141V177.082H205.594ZM204.031 174.84C204.031 174.605 204.102 174.408 204.242 174.246C204.388 174.085 204.602 174.004 204.883 174.004C205.159 174.004 205.37 174.085 205.516 174.246C205.667 174.408 205.742 174.605 205.742 174.84C205.742 175.064 205.667 175.257 205.516 175.418C205.37 175.574 205.159 175.652 204.883 175.652C204.602 175.652 204.388 175.574 204.242 175.418C204.102 175.257 204.031 175.064 204.031 174.84ZM209.359 178.887V185.535H207.914V177.082H209.281L209.359 178.887ZM209.016 180.988L208.414 180.965C208.419 180.387 208.505 179.853 208.672 179.363C208.839 178.868 209.073 178.439 209.375 178.074C209.677 177.71 210.036 177.428 210.453 177.23C210.875 177.027 211.341 176.926 211.852 176.926C212.268 176.926 212.643 176.983 212.977 177.098C213.31 177.207 213.594 177.384 213.828 177.629C214.068 177.874 214.25 178.191 214.375 178.582C214.5 178.967 214.562 179.439 214.562 179.996V185.535H213.109V179.98C213.109 179.538 213.044 179.184 212.914 178.918C212.784 178.647 212.594 178.452 212.344 178.332C212.094 178.207 211.786 178.145 211.422 178.145C211.062 178.145 210.734 178.22 210.438 178.371C210.146 178.522 209.893 178.73 209.68 178.996C209.471 179.262 209.307 179.566 209.188 179.91C209.073 180.249 209.016 180.608 209.016 180.988ZM220.266 185.691C219.677 185.691 219.143 185.592 218.664 185.395C218.19 185.191 217.781 184.908 217.438 184.543C217.099 184.178 216.839 183.746 216.656 183.246C216.474 182.746 216.383 182.199 216.383 181.605V181.277C216.383 180.59 216.484 179.978 216.688 179.441C216.891 178.9 217.167 178.441 217.516 178.066C217.865 177.691 218.26 177.408 218.703 177.215C219.146 177.022 219.604 176.926 220.078 176.926C220.682 176.926 221.203 177.03 221.641 177.238C222.083 177.447 222.445 177.738 222.727 178.113C223.008 178.483 223.216 178.921 223.352 179.426C223.487 179.926 223.555 180.473 223.555 181.066V181.715H217.242V180.535H222.109V180.426C222.089 180.051 222.01 179.686 221.875 179.332C221.745 178.978 221.536 178.686 221.25 178.457C220.964 178.228 220.573 178.113 220.078 178.113C219.75 178.113 219.448 178.184 219.172 178.324C218.896 178.46 218.659 178.663 218.461 178.934C218.263 179.204 218.109 179.535 218 179.926C217.891 180.316 217.836 180.767 217.836 181.277V181.605C217.836 182.007 217.891 182.384 218 182.738C218.115 183.087 218.279 183.395 218.492 183.66C218.711 183.926 218.974 184.134 219.281 184.285C219.594 184.436 219.948 184.512 220.344 184.512C220.854 184.512 221.286 184.408 221.641 184.199C221.995 183.991 222.305 183.712 222.57 183.363L223.445 184.059C223.263 184.335 223.031 184.598 222.75 184.848C222.469 185.098 222.122 185.301 221.711 185.457C221.305 185.613 220.823 185.691 220.266 185.691ZM230.164 183.293C230.164 183.085 230.117 182.892 230.023 182.715C229.935 182.533 229.75 182.368 229.469 182.223C229.193 182.072 228.776 181.941 228.219 181.832C227.75 181.733 227.326 181.616 226.945 181.48C226.57 181.345 226.25 181.181 225.984 180.988C225.724 180.796 225.523 180.569 225.383 180.309C225.242 180.048 225.172 179.743 225.172 179.395C225.172 179.061 225.245 178.746 225.391 178.449C225.542 178.152 225.753 177.889 226.023 177.66C226.299 177.431 226.63 177.251 227.016 177.121C227.401 176.991 227.831 176.926 228.305 176.926C228.982 176.926 229.56 177.046 230.039 177.285C230.518 177.525 230.885 177.845 231.141 178.246C231.396 178.642 231.523 179.082 231.523 179.566H230.078C230.078 179.332 230.008 179.105 229.867 178.887C229.732 178.663 229.531 178.478 229.266 178.332C229.005 178.186 228.685 178.113 228.305 178.113C227.904 178.113 227.578 178.176 227.328 178.301C227.083 178.421 226.904 178.574 226.789 178.762C226.68 178.949 226.625 179.147 226.625 179.355C226.625 179.512 226.651 179.652 226.703 179.777C226.76 179.897 226.859 180.009 227 180.113C227.141 180.212 227.339 180.306 227.594 180.395C227.849 180.483 228.174 180.572 228.57 180.66C229.263 180.816 229.833 181.004 230.281 181.223C230.729 181.441 231.062 181.71 231.281 182.027C231.5 182.345 231.609 182.73 231.609 183.184C231.609 183.553 231.531 183.892 231.375 184.199C231.224 184.507 231.003 184.772 230.711 184.996C230.424 185.215 230.081 185.387 229.68 185.512C229.284 185.632 228.839 185.691 228.344 185.691C227.599 185.691 226.969 185.559 226.453 185.293C225.938 185.027 225.547 184.684 225.281 184.262C225.016 183.84 224.883 183.395 224.883 182.926H226.336C226.357 183.322 226.471 183.637 226.68 183.871C226.888 184.1 227.143 184.264 227.445 184.363C227.747 184.457 228.047 184.504 228.344 184.504C228.74 184.504 229.07 184.452 229.336 184.348C229.607 184.243 229.812 184.1 229.953 183.918C230.094 183.736 230.164 183.527 230.164 183.293Z" fill="#331436"/>
</svg>
