<svg width="245" height="205" viewBox="0 0 245 205" fill="none" xmlns="http://www.w3.org/2000/svg">
<rect x="72.5" y="12.5352" width="100" height="100" rx="50" fill="#331436"/>
<path d="M127.9 51.1351C127.534 51.509 127.328 52.0116 127.328 52.5351C127.328 53.0586 127.534 53.5613 127.9 53.9351L131.1 57.1351C131.474 57.5016 131.976 57.7068 132.5 57.7068C133.023 57.7068 133.526 57.5016 133.9 57.1351L141.44 49.5951C142.446 51.8175 142.75 54.2936 142.313 56.6934C141.876 59.0932 140.717 61.3028 138.993 63.0277C137.268 64.7525 135.058 65.9108 132.658 66.348C130.258 66.7853 127.782 66.4808 125.56 65.4751L111.74 79.2951C110.944 80.0908 109.865 80.5378 108.74 80.5378C107.615 80.5378 106.536 80.0908 105.74 79.2951C104.944 78.4995 104.497 77.4203 104.497 76.2951C104.497 75.1699 104.944 74.0908 105.74 73.2951L119.56 59.4751C118.554 57.2527 118.25 54.7766 118.687 52.3768C119.124 49.977 120.283 47.7674 122.007 46.0426C123.732 44.3177 125.942 43.1595 128.342 42.7222C130.742 42.2849 133.218 42.5894 135.44 43.5951L127.9 51.1351Z" stroke="white" stroke-width="4" stroke-linecap="round" stroke-linejoin="round"/>
<path d="M61.5723 139.316V153.535H59.7168V139.316H61.5723ZM66.1426 139.316V140.859H55.1562V139.316H66.1426ZM73.0957 151.729V146.289C73.0957 145.872 73.0111 145.511 72.8418 145.205C72.679 144.893 72.4316 144.652 72.0996 144.482C71.7676 144.313 71.3574 144.229 70.8691 144.229C70.4134 144.229 70.013 144.307 69.668 144.463C69.3294 144.619 69.0625 144.824 68.8672 145.078C68.6784 145.332 68.584 145.605 68.584 145.898H66.7773C66.7773 145.521 66.875 145.146 67.0703 144.775C67.2656 144.404 67.5456 144.069 67.9102 143.77C68.2812 143.464 68.724 143.223 69.2383 143.047C69.7591 142.865 70.3385 142.773 70.9766 142.773C71.7448 142.773 72.4219 142.904 73.0078 143.164C73.6003 143.424 74.0625 143.818 74.3945 144.346C74.7331 144.867 74.9023 145.521 74.9023 146.309V151.23C74.9023 151.582 74.9316 151.956 74.9902 152.354C75.0553 152.751 75.1497 153.092 75.2734 153.379V153.535H73.3887C73.2975 153.327 73.2259 153.05 73.1738 152.705C73.1217 152.354 73.0957 152.028 73.0957 151.729ZM73.4082 147.129L73.4277 148.398H71.6016C71.0872 148.398 70.6283 148.441 70.2246 148.525C69.821 148.604 69.4824 148.724 69.209 148.887C68.9355 149.049 68.7272 149.255 68.584 149.502C68.4408 149.743 68.3691 150.026 68.3691 150.352C68.3691 150.684 68.444 150.986 68.5938 151.26C68.7435 151.533 68.9681 151.751 69.2676 151.914C69.5736 152.07 69.9479 152.148 70.3906 152.148C70.944 152.148 71.4323 152.031 71.8555 151.797C72.2786 151.562 72.6139 151.276 72.8613 150.938C73.1152 150.599 73.252 150.27 73.2715 149.951L74.043 150.82C73.9974 151.094 73.8737 151.396 73.6719 151.729C73.4701 152.061 73.1999 152.38 72.8613 152.686C72.5293 152.985 72.1322 153.236 71.6699 153.438C71.2142 153.633 70.6999 153.73 70.127 153.73C69.4108 153.73 68.7826 153.59 68.2422 153.311C67.7083 153.031 67.2917 152.656 66.9922 152.188C66.6992 151.712 66.5527 151.182 66.5527 150.596C66.5527 150.029 66.6634 149.531 66.8848 149.102C67.1061 148.665 67.4251 148.304 67.8418 148.018C68.2585 147.725 68.7598 147.503 69.3457 147.354C69.9316 147.204 70.5859 147.129 71.3086 147.129H73.4082ZM83.8965 150.732C83.8965 150.472 83.8379 150.231 83.7207 150.01C83.61 149.782 83.3789 149.577 83.0273 149.395C82.6823 149.206 82.1615 149.043 81.4648 148.906C80.8789 148.783 80.3483 148.636 79.873 148.467C79.4043 148.298 79.0039 148.092 78.6719 147.852C78.3464 147.611 78.0957 147.327 77.9199 147.002C77.7441 146.676 77.6562 146.296 77.6562 145.859C77.6562 145.443 77.7474 145.049 77.9297 144.678C78.1185 144.307 78.3822 143.978 78.7207 143.691C79.0658 143.405 79.4792 143.18 79.9609 143.018C80.4427 142.855 80.9798 142.773 81.5723 142.773C82.4186 142.773 83.1413 142.923 83.7402 143.223C84.3392 143.522 84.7982 143.923 85.1172 144.424C85.4362 144.919 85.5957 145.469 85.5957 146.074H83.7891C83.7891 145.781 83.7012 145.498 83.5254 145.225C83.3561 144.945 83.1055 144.714 82.7734 144.531C82.4479 144.349 82.0475 144.258 81.5723 144.258C81.071 144.258 80.6641 144.336 80.3516 144.492C80.0456 144.642 79.821 144.834 79.6777 145.068C79.541 145.303 79.4727 145.55 79.4727 145.811C79.4727 146.006 79.5052 146.182 79.5703 146.338C79.6419 146.488 79.7656 146.628 79.9414 146.758C80.1172 146.882 80.3646 146.999 80.6836 147.109C81.0026 147.22 81.4095 147.331 81.9043 147.441C82.7702 147.637 83.4831 147.871 84.043 148.145C84.6029 148.418 85.0195 148.753 85.293 149.15C85.5664 149.548 85.7031 150.029 85.7031 150.596C85.7031 151.058 85.6055 151.481 85.4102 151.865C85.2214 152.249 84.9447 152.581 84.5801 152.861C84.222 153.135 83.7923 153.35 83.291 153.506C82.7962 153.656 82.2396 153.73 81.6211 153.73C80.6901 153.73 79.9023 153.564 79.2578 153.232C78.6133 152.9 78.125 152.471 77.793 151.943C77.4609 151.416 77.2949 150.859 77.2949 150.273H79.1113C79.1374 150.768 79.2806 151.162 79.541 151.455C79.8014 151.742 80.1204 151.947 80.498 152.07C80.8757 152.188 81.25 152.246 81.6211 152.246C82.1159 152.246 82.5293 152.181 82.8613 152.051C83.1999 151.921 83.457 151.742 83.6328 151.514C83.8086 151.286 83.8965 151.025 83.8965 150.732ZM89.8926 138.535V153.535H88.0762V138.535H89.8926ZM96.3477 142.969L91.7383 147.9L89.1602 150.576L89.0137 148.652L90.8594 146.445L94.1406 142.969H96.3477ZM94.6973 153.535L90.9277 148.496L91.8652 146.885L96.8262 153.535H94.6973ZM111.025 149.941C111.025 149.609 110.973 149.316 110.869 149.062C110.771 148.802 110.596 148.568 110.342 148.359C110.094 148.151 109.749 147.952 109.307 147.764C108.87 147.575 108.317 147.383 107.646 147.188C106.943 146.979 106.309 146.748 105.742 146.494C105.176 146.234 104.691 145.938 104.287 145.605C103.883 145.273 103.574 144.893 103.359 144.463C103.145 144.033 103.037 143.542 103.037 142.988C103.037 142.435 103.151 141.924 103.379 141.455C103.607 140.986 103.932 140.579 104.355 140.234C104.785 139.883 105.296 139.609 105.889 139.414C106.481 139.219 107.142 139.121 107.871 139.121C108.939 139.121 109.844 139.326 110.586 139.736C111.335 140.14 111.904 140.671 112.295 141.328C112.686 141.979 112.881 142.676 112.881 143.418H111.006C111.006 142.884 110.892 142.412 110.664 142.002C110.436 141.585 110.091 141.26 109.629 141.025C109.167 140.785 108.581 140.664 107.871 140.664C107.201 140.664 106.647 140.765 106.211 140.967C105.775 141.169 105.449 141.442 105.234 141.787C105.026 142.132 104.922 142.526 104.922 142.969C104.922 143.268 104.984 143.542 105.107 143.789C105.238 144.03 105.436 144.255 105.703 144.463C105.977 144.671 106.322 144.863 106.738 145.039C107.161 145.215 107.666 145.384 108.252 145.547C109.059 145.775 109.756 146.029 110.342 146.309C110.928 146.589 111.41 146.904 111.787 147.256C112.171 147.601 112.454 147.995 112.637 148.438C112.826 148.874 112.92 149.368 112.92 149.922C112.92 150.501 112.803 151.025 112.568 151.494C112.334 151.963 111.999 152.363 111.562 152.695C111.126 153.027 110.602 153.285 109.99 153.467C109.385 153.643 108.708 153.73 107.959 153.73C107.301 153.73 106.654 153.639 106.016 153.457C105.384 153.275 104.808 153.001 104.287 152.637C103.773 152.272 103.359 151.823 103.047 151.289C102.741 150.749 102.588 150.124 102.588 149.414H104.463C104.463 149.902 104.557 150.322 104.746 150.674C104.935 151.019 105.192 151.305 105.518 151.533C105.85 151.761 106.224 151.93 106.641 152.041C107.064 152.145 107.503 152.197 107.959 152.197C108.617 152.197 109.173 152.106 109.629 151.924C110.085 151.742 110.43 151.481 110.664 151.143C110.905 150.804 111.025 150.404 111.025 149.941ZM119.277 152.246C119.707 152.246 120.104 152.158 120.469 151.982C120.833 151.807 121.133 151.566 121.367 151.26C121.602 150.947 121.735 150.592 121.768 150.195H123.486C123.454 150.82 123.242 151.403 122.852 151.943C122.467 152.477 121.963 152.91 121.338 153.242C120.713 153.568 120.026 153.73 119.277 153.73C118.483 153.73 117.79 153.59 117.197 153.311C116.611 153.031 116.123 152.646 115.732 152.158C115.348 151.67 115.059 151.11 114.863 150.479C114.674 149.84 114.58 149.167 114.58 148.457V148.047C114.58 147.337 114.674 146.667 114.863 146.035C115.059 145.397 115.348 144.834 115.732 144.346C116.123 143.857 116.611 143.473 117.197 143.193C117.79 142.913 118.483 142.773 119.277 142.773C120.104 142.773 120.827 142.943 121.445 143.281C122.064 143.613 122.549 144.069 122.9 144.648C123.258 145.221 123.454 145.872 123.486 146.602H121.768C121.735 146.165 121.611 145.771 121.396 145.42C121.188 145.068 120.902 144.788 120.537 144.58C120.179 144.365 119.759 144.258 119.277 144.258C118.724 144.258 118.258 144.368 117.881 144.59C117.51 144.805 117.214 145.098 116.992 145.469C116.777 145.833 116.621 146.24 116.523 146.689C116.432 147.132 116.387 147.585 116.387 148.047V148.457C116.387 148.919 116.432 149.375 116.523 149.824C116.615 150.273 116.768 150.68 116.982 151.045C117.204 151.41 117.5 151.702 117.871 151.924C118.249 152.139 118.717 152.246 119.277 152.246ZM127.324 138.535V153.535H125.518V138.535H127.324ZM126.895 147.852L126.143 147.822C126.149 147.1 126.257 146.432 126.465 145.82C126.673 145.202 126.966 144.665 127.344 144.209C127.721 143.753 128.171 143.402 128.691 143.154C129.219 142.9 129.801 142.773 130.439 142.773C130.96 142.773 131.429 142.845 131.846 142.988C132.262 143.125 132.617 143.346 132.91 143.652C133.21 143.958 133.438 144.355 133.594 144.844C133.75 145.326 133.828 145.915 133.828 146.611V153.535H132.012V146.592C132.012 146.038 131.93 145.596 131.768 145.264C131.605 144.925 131.367 144.681 131.055 144.531C130.742 144.375 130.358 144.297 129.902 144.297C129.453 144.297 129.043 144.391 128.672 144.58C128.307 144.769 127.992 145.029 127.725 145.361C127.464 145.693 127.259 146.074 127.109 146.504C126.966 146.927 126.895 147.376 126.895 147.852ZM140.918 153.73C140.182 153.73 139.515 153.607 138.916 153.359C138.324 153.105 137.812 152.751 137.383 152.295C136.96 151.839 136.634 151.299 136.406 150.674C136.178 150.049 136.064 149.365 136.064 148.623V148.213C136.064 147.354 136.191 146.589 136.445 145.918C136.699 145.241 137.044 144.668 137.48 144.199C137.917 143.73 138.411 143.376 138.965 143.135C139.518 142.894 140.091 142.773 140.684 142.773C141.439 142.773 142.09 142.904 142.637 143.164C143.19 143.424 143.643 143.789 143.994 144.258C144.346 144.72 144.606 145.267 144.775 145.898C144.945 146.523 145.029 147.207 145.029 147.949V148.76H137.139V147.285H143.223V147.148C143.197 146.68 143.099 146.224 142.93 145.781C142.767 145.339 142.507 144.974 142.148 144.688C141.79 144.401 141.302 144.258 140.684 144.258C140.273 144.258 139.896 144.346 139.551 144.521C139.206 144.691 138.91 144.945 138.662 145.283C138.415 145.622 138.223 146.035 138.086 146.523C137.949 147.012 137.881 147.575 137.881 148.213V148.623C137.881 149.124 137.949 149.596 138.086 150.039C138.229 150.475 138.434 150.859 138.701 151.191C138.975 151.523 139.303 151.784 139.688 151.973C140.078 152.161 140.521 152.256 141.016 152.256C141.654 152.256 142.194 152.126 142.637 151.865C143.079 151.605 143.467 151.257 143.799 150.82L144.893 151.689C144.665 152.035 144.375 152.363 144.023 152.676C143.672 152.988 143.239 153.242 142.725 153.438C142.217 153.633 141.615 153.73 140.918 153.73ZM153.799 151.484V138.535H155.615V153.535H153.955L153.799 151.484ZM146.689 148.369V148.164C146.689 147.357 146.787 146.624 146.982 145.967C147.184 145.303 147.467 144.733 147.832 144.258C148.203 143.783 148.643 143.418 149.15 143.164C149.665 142.904 150.238 142.773 150.869 142.773C151.533 142.773 152.113 142.891 152.607 143.125C153.109 143.353 153.532 143.688 153.877 144.131C154.229 144.567 154.505 145.094 154.707 145.713C154.909 146.331 155.049 147.031 155.127 147.812V148.711C155.055 149.486 154.915 150.182 154.707 150.801C154.505 151.419 154.229 151.947 153.877 152.383C153.532 152.819 153.109 153.154 152.607 153.389C152.106 153.617 151.52 153.73 150.85 153.73C150.231 153.73 149.665 153.597 149.15 153.33C148.643 153.063 148.203 152.689 147.832 152.207C147.467 151.725 147.184 151.159 146.982 150.508C146.787 149.85 146.689 149.137 146.689 148.369ZM148.506 148.164V148.369C148.506 148.896 148.558 149.391 148.662 149.854C148.773 150.316 148.942 150.723 149.17 151.074C149.398 151.426 149.688 151.702 150.039 151.904C150.391 152.1 150.811 152.197 151.299 152.197C151.898 152.197 152.389 152.07 152.773 151.816C153.164 151.562 153.477 151.227 153.711 150.811C153.945 150.394 154.128 149.941 154.258 149.453V147.1C154.18 146.742 154.066 146.396 153.916 146.064C153.773 145.726 153.584 145.426 153.35 145.166C153.122 144.899 152.839 144.688 152.5 144.531C152.168 144.375 151.774 144.297 151.318 144.297C150.824 144.297 150.397 144.401 150.039 144.609C149.688 144.811 149.398 145.091 149.17 145.449C148.942 145.801 148.773 146.211 148.662 146.68C148.558 147.142 148.506 147.637 148.506 148.164ZM164.893 151.094V142.969H166.709V153.535H164.98L164.893 151.094ZM165.234 148.867L165.986 148.848C165.986 149.551 165.911 150.202 165.762 150.801C165.618 151.393 165.384 151.908 165.059 152.344C164.733 152.78 164.307 153.122 163.779 153.369C163.252 153.61 162.611 153.73 161.855 153.73C161.341 153.73 160.869 153.656 160.439 153.506C160.016 153.356 159.652 153.125 159.346 152.812C159.04 152.5 158.802 152.093 158.633 151.592C158.47 151.09 158.389 150.488 158.389 149.785V142.969H160.195V149.805C160.195 150.28 160.247 150.674 160.352 150.986C160.462 151.292 160.609 151.536 160.791 151.719C160.98 151.895 161.188 152.018 161.416 152.09C161.65 152.161 161.891 152.197 162.139 152.197C162.907 152.197 163.516 152.051 163.965 151.758C164.414 151.458 164.736 151.058 164.932 150.557C165.133 150.049 165.234 149.486 165.234 148.867ZM171.426 138.535V153.535H169.609V138.535H171.426ZM178.711 153.73C177.975 153.73 177.308 153.607 176.709 153.359C176.117 153.105 175.605 152.751 175.176 152.295C174.753 151.839 174.427 151.299 174.199 150.674C173.971 150.049 173.857 149.365 173.857 148.623V148.213C173.857 147.354 173.984 146.589 174.238 145.918C174.492 145.241 174.837 144.668 175.273 144.199C175.71 143.73 176.204 143.376 176.758 143.135C177.311 142.894 177.884 142.773 178.477 142.773C179.232 142.773 179.883 142.904 180.43 143.164C180.983 143.424 181.436 143.789 181.787 144.258C182.139 144.72 182.399 145.267 182.568 145.898C182.738 146.523 182.822 147.207 182.822 147.949V148.76H174.932V147.285H181.016V147.148C180.99 146.68 180.892 146.224 180.723 145.781C180.56 145.339 180.299 144.974 179.941 144.688C179.583 144.401 179.095 144.258 178.477 144.258C178.066 144.258 177.689 144.346 177.344 144.521C176.999 144.691 176.702 144.945 176.455 145.283C176.208 145.622 176.016 146.035 175.879 146.523C175.742 147.012 175.674 147.575 175.674 148.213V148.623C175.674 149.124 175.742 149.596 175.879 150.039C176.022 150.475 176.227 150.859 176.494 151.191C176.768 151.523 177.096 151.784 177.48 151.973C177.871 152.161 178.314 152.256 178.809 152.256C179.447 152.256 179.987 152.126 180.43 151.865C180.872 151.605 181.26 151.257 181.592 150.82L182.686 151.689C182.458 152.035 182.168 152.363 181.816 152.676C181.465 152.988 181.032 153.242 180.518 153.438C180.01 153.633 179.408 153.73 178.711 153.73ZM186.738 144.629V153.535H184.932V142.969H186.689L186.738 144.629ZM190.039 142.91L190.029 144.59C189.88 144.557 189.736 144.538 189.6 144.531C189.469 144.518 189.32 144.512 189.15 144.512C188.734 144.512 188.366 144.577 188.047 144.707C187.728 144.837 187.458 145.02 187.236 145.254C187.015 145.488 186.839 145.768 186.709 146.094C186.585 146.413 186.504 146.764 186.465 147.148L185.957 147.441C185.957 146.803 186.019 146.204 186.143 145.645C186.273 145.085 186.471 144.59 186.738 144.16C187.005 143.724 187.344 143.385 187.754 143.145C188.171 142.897 188.665 142.773 189.238 142.773C189.368 142.773 189.518 142.79 189.688 142.822C189.857 142.848 189.974 142.878 190.039 142.91Z" fill="#331436"/>
<path d="M41.6328 181.074H38.5938V179.848H41.6328C42.2214 179.848 42.6979 179.754 43.0625 179.566C43.4271 179.379 43.6927 179.118 43.8594 178.785C44.0312 178.452 44.1172 178.072 44.1172 177.645C44.1172 177.254 44.0312 176.887 43.8594 176.543C43.6927 176.199 43.4271 175.923 43.0625 175.715C42.6979 175.501 42.2214 175.395 41.6328 175.395H38.9453V185.535H37.4375V174.16H41.6328C42.4922 174.16 43.2188 174.309 43.8125 174.605C44.4062 174.902 44.8568 175.314 45.1641 175.84C45.4714 176.361 45.625 176.957 45.625 177.629C45.625 178.358 45.4714 178.98 45.1641 179.496C44.8568 180.012 44.4062 180.405 43.8125 180.676C43.2188 180.941 42.4922 181.074 41.6328 181.074ZM48.8828 173.535V185.535H47.4297V173.535H48.8828ZM56.1875 184.09V179.738C56.1875 179.405 56.1198 179.116 55.9844 178.871C55.8542 178.621 55.6562 178.428 55.3906 178.293C55.125 178.158 54.7969 178.09 54.4062 178.09C54.0417 178.09 53.7214 178.152 53.4453 178.277C53.1745 178.402 52.9609 178.566 52.8047 178.77C52.6536 178.973 52.5781 179.191 52.5781 179.426H51.1328C51.1328 179.124 51.2109 178.824 51.3672 178.527C51.5234 178.23 51.7474 177.962 52.0391 177.723C52.3359 177.478 52.6901 177.285 53.1016 177.145C53.5182 176.999 53.9818 176.926 54.4922 176.926C55.1068 176.926 55.6484 177.03 56.1172 177.238C56.5911 177.447 56.9609 177.762 57.2266 178.184C57.4974 178.6 57.6328 179.124 57.6328 179.754V183.691C57.6328 183.973 57.6562 184.272 57.7031 184.59C57.7552 184.908 57.8307 185.181 57.9297 185.41V185.535H56.4219C56.349 185.368 56.2917 185.147 56.25 184.871C56.2083 184.59 56.1875 184.329 56.1875 184.09ZM56.4375 180.41L56.4531 181.426H54.9922C54.5807 181.426 54.2135 181.46 53.8906 181.527C53.5677 181.59 53.2969 181.686 53.0781 181.816C52.8594 181.947 52.6927 182.111 52.5781 182.309C52.4635 182.501 52.4062 182.728 52.4062 182.988C52.4062 183.254 52.4661 183.496 52.5859 183.715C52.7057 183.934 52.8854 184.108 53.125 184.238C53.3698 184.363 53.6693 184.426 54.0234 184.426C54.4661 184.426 54.8568 184.332 55.1953 184.145C55.5339 183.957 55.8021 183.728 56 183.457C56.2031 183.186 56.3125 182.923 56.3281 182.668L56.9453 183.363C56.9089 183.582 56.8099 183.824 56.6484 184.09C56.487 184.355 56.2708 184.611 56 184.855C55.7344 185.095 55.4167 185.296 55.0469 185.457C54.6823 185.613 54.2708 185.691 53.8125 185.691C53.2396 185.691 52.737 185.579 52.3047 185.355C51.8776 185.132 51.5443 184.832 51.3047 184.457C51.0703 184.077 50.9531 183.652 50.9531 183.184C50.9531 182.73 51.0417 182.332 51.2188 181.988C51.3958 181.639 51.651 181.35 51.9844 181.121C52.3177 180.887 52.7188 180.71 53.1875 180.59C53.6562 180.47 54.1797 180.41 54.7578 180.41H56.4375ZM61.3516 178.887V185.535H59.9062V177.082H61.2734L61.3516 178.887ZM61.0078 180.988L60.4062 180.965C60.4115 180.387 60.4974 179.853 60.6641 179.363C60.8307 178.868 61.0651 178.439 61.3672 178.074C61.6693 177.71 62.0286 177.428 62.4453 177.23C62.8672 177.027 63.3333 176.926 63.8438 176.926C64.2604 176.926 64.6354 176.983 64.9688 177.098C65.3021 177.207 65.5859 177.384 65.8203 177.629C66.0599 177.874 66.2422 178.191 66.3672 178.582C66.4922 178.967 66.5547 179.439 66.5547 179.996V185.535H65.1016V179.98C65.1016 179.538 65.0365 179.184 64.9062 178.918C64.776 178.647 64.5859 178.452 64.3359 178.332C64.0859 178.207 63.7786 178.145 63.4141 178.145C63.0547 178.145 62.7266 178.22 62.4297 178.371C62.138 178.522 61.8854 178.73 61.6719 178.996C61.4635 179.262 61.2995 179.566 61.1797 179.91C61.0651 180.249 61.0078 180.608 61.0078 180.988ZM77.7031 184.09V179.738C77.7031 179.405 77.6354 179.116 77.5 178.871C77.3698 178.621 77.1719 178.428 76.9062 178.293C76.6406 178.158 76.3125 178.09 75.9219 178.09C75.5573 178.09 75.237 178.152 74.9609 178.277C74.6901 178.402 74.4766 178.566 74.3203 178.77C74.1693 178.973 74.0938 179.191 74.0938 179.426H72.6484C72.6484 179.124 72.7266 178.824 72.8828 178.527C73.0391 178.23 73.263 177.962 73.5547 177.723C73.8516 177.478 74.2057 177.285 74.6172 177.145C75.0339 176.999 75.4974 176.926 76.0078 176.926C76.6224 176.926 77.1641 177.03 77.6328 177.238C78.1068 177.447 78.4766 177.762 78.7422 178.184C79.013 178.6 79.1484 179.124 79.1484 179.754V183.691C79.1484 183.973 79.1719 184.272 79.2188 184.59C79.2708 184.908 79.3464 185.181 79.4453 185.41V185.535H77.9375C77.8646 185.368 77.8073 185.147 77.7656 184.871C77.724 184.59 77.7031 184.329 77.7031 184.09ZM77.9531 180.41L77.9688 181.426H76.5078C76.0964 181.426 75.7292 181.46 75.4062 181.527C75.0833 181.59 74.8125 181.686 74.5938 181.816C74.375 181.947 74.2083 182.111 74.0938 182.309C73.9792 182.501 73.9219 182.728 73.9219 182.988C73.9219 183.254 73.9818 183.496 74.1016 183.715C74.2214 183.934 74.401 184.108 74.6406 184.238C74.8854 184.363 75.1849 184.426 75.5391 184.426C75.9818 184.426 76.3724 184.332 76.7109 184.145C77.0495 183.957 77.3177 183.728 77.5156 183.457C77.7188 183.186 77.8281 182.923 77.8438 182.668L78.4609 183.363C78.4245 183.582 78.3255 183.824 78.1641 184.09C78.0026 184.355 77.7865 184.611 77.5156 184.855C77.25 185.095 76.9323 185.296 76.5625 185.457C76.1979 185.613 75.7865 185.691 75.3281 185.691C74.7552 185.691 74.2526 185.579 73.8203 185.355C73.3932 185.132 73.0599 184.832 72.8203 184.457C72.5859 184.077 72.4688 183.652 72.4688 183.184C72.4688 182.73 72.5573 182.332 72.7344 181.988C72.9115 181.639 73.1667 181.35 73.5 181.121C73.8333 180.887 74.2344 180.71 74.7031 180.59C75.1719 180.47 75.6953 180.41 76.2734 180.41H77.9531ZM82.8672 178.887V185.535H81.4219V177.082H82.7891L82.8672 178.887ZM82.5234 180.988L81.9219 180.965C81.9271 180.387 82.013 179.853 82.1797 179.363C82.3464 178.868 82.5807 178.439 82.8828 178.074C83.1849 177.71 83.5443 177.428 83.9609 177.23C84.3828 177.027 84.849 176.926 85.3594 176.926C85.776 176.926 86.151 176.983 86.4844 177.098C86.8177 177.207 87.1016 177.384 87.3359 177.629C87.5755 177.874 87.7578 178.191 87.8828 178.582C88.0078 178.967 88.0703 179.439 88.0703 179.996V185.535H86.6172V179.98C86.6172 179.538 86.5521 179.184 86.4219 178.918C86.2917 178.647 86.1016 178.452 85.8516 178.332C85.6016 178.207 85.2943 178.145 84.9297 178.145C84.5703 178.145 84.2422 178.22 83.9453 178.371C83.6536 178.522 83.401 178.73 83.1875 178.996C82.9792 179.262 82.8151 179.566 82.6953 179.91C82.5807 180.249 82.5234 180.608 82.5234 180.988ZM95.5938 183.895V173.535H97.0469V185.535H95.7188L95.5938 183.895ZM89.9062 181.402V181.238C89.9062 180.592 89.9844 180.007 90.1406 179.48C90.3021 178.949 90.5286 178.493 90.8203 178.113C91.1172 177.733 91.4688 177.441 91.875 177.238C92.2865 177.03 92.7448 176.926 93.25 176.926C93.7812 176.926 94.2448 177.02 94.6406 177.207C95.0417 177.389 95.3802 177.658 95.6562 178.012C95.9375 178.361 96.1589 178.783 96.3203 179.277C96.4818 179.772 96.5938 180.332 96.6562 180.957V181.676C96.599 182.296 96.487 182.853 96.3203 183.348C96.1589 183.842 95.9375 184.264 95.6562 184.613C95.3802 184.962 95.0417 185.23 94.6406 185.418C94.2396 185.6 93.7708 185.691 93.2344 185.691C92.7396 185.691 92.2865 185.585 91.875 185.371C91.4688 185.158 91.1172 184.858 90.8203 184.473C90.5286 184.087 90.3021 183.634 90.1406 183.113C89.9844 182.587 89.9062 182.017 89.9062 181.402ZM91.3594 181.238V181.402C91.3594 181.824 91.401 182.22 91.4844 182.59C91.5729 182.96 91.7083 183.285 91.8906 183.566C92.0729 183.848 92.3047 184.069 92.5859 184.23C92.8672 184.387 93.2031 184.465 93.5938 184.465C94.0729 184.465 94.4661 184.363 94.7734 184.16C95.0859 183.957 95.3359 183.689 95.5234 183.355C95.7109 183.022 95.8568 182.66 95.9609 182.27V180.387C95.8984 180.1 95.8073 179.824 95.6875 179.559C95.5729 179.288 95.4219 179.048 95.2344 178.84C95.0521 178.626 94.8255 178.457 94.5547 178.332C94.2891 178.207 93.974 178.145 93.6094 178.145C93.2135 178.145 92.8724 178.228 92.5859 178.395C92.3047 178.556 92.0729 178.78 91.8906 179.066C91.7083 179.348 91.5729 179.676 91.4844 180.051C91.401 180.421 91.3594 180.816 91.3594 181.238ZM108.188 183.293C108.188 183.085 108.141 182.892 108.047 182.715C107.958 182.533 107.773 182.368 107.492 182.223C107.216 182.072 106.799 181.941 106.242 181.832C105.773 181.733 105.349 181.616 104.969 181.48C104.594 181.345 104.273 181.181 104.008 180.988C103.747 180.796 103.547 180.569 103.406 180.309C103.266 180.048 103.195 179.743 103.195 179.395C103.195 179.061 103.268 178.746 103.414 178.449C103.565 178.152 103.776 177.889 104.047 177.66C104.323 177.431 104.654 177.251 105.039 177.121C105.424 176.991 105.854 176.926 106.328 176.926C107.005 176.926 107.583 177.046 108.062 177.285C108.542 177.525 108.909 177.845 109.164 178.246C109.419 178.642 109.547 179.082 109.547 179.566H108.102C108.102 179.332 108.031 179.105 107.891 178.887C107.755 178.663 107.555 178.478 107.289 178.332C107.029 178.186 106.708 178.113 106.328 178.113C105.927 178.113 105.602 178.176 105.352 178.301C105.107 178.421 104.927 178.574 104.812 178.762C104.703 178.949 104.648 179.147 104.648 179.355C104.648 179.512 104.674 179.652 104.727 179.777C104.784 179.897 104.883 180.009 105.023 180.113C105.164 180.212 105.362 180.306 105.617 180.395C105.872 180.483 106.198 180.572 106.594 180.66C107.286 180.816 107.857 181.004 108.305 181.223C108.753 181.441 109.086 181.71 109.305 182.027C109.523 182.345 109.633 182.73 109.633 183.184C109.633 183.553 109.555 183.892 109.398 184.199C109.247 184.507 109.026 184.772 108.734 184.996C108.448 185.215 108.104 185.387 107.703 185.512C107.307 185.632 106.862 185.691 106.367 185.691C105.622 185.691 104.992 185.559 104.477 185.293C103.961 185.027 103.57 184.684 103.305 184.262C103.039 183.84 102.906 183.395 102.906 182.926H104.359C104.38 183.322 104.495 183.637 104.703 183.871C104.911 184.1 105.167 184.264 105.469 184.363C105.771 184.457 106.07 184.504 106.367 184.504C106.763 184.504 107.094 184.452 107.359 184.348C107.63 184.243 107.836 184.1 107.977 183.918C108.117 183.736 108.188 183.527 108.188 183.293ZM114.914 184.504C115.258 184.504 115.576 184.434 115.867 184.293C116.159 184.152 116.398 183.96 116.586 183.715C116.773 183.465 116.88 183.181 116.906 182.863H118.281C118.255 183.363 118.086 183.829 117.773 184.262C117.466 184.689 117.062 185.035 116.562 185.301C116.062 185.561 115.513 185.691 114.914 185.691C114.279 185.691 113.724 185.579 113.25 185.355C112.781 185.132 112.391 184.824 112.078 184.434C111.771 184.043 111.539 183.595 111.383 183.09C111.232 182.579 111.156 182.04 111.156 181.473V181.145C111.156 180.577 111.232 180.04 111.383 179.535C111.539 179.025 111.771 178.574 112.078 178.184C112.391 177.793 112.781 177.486 113.25 177.262C113.724 177.038 114.279 176.926 114.914 176.926C115.576 176.926 116.154 177.061 116.648 177.332C117.143 177.598 117.531 177.962 117.812 178.426C118.099 178.884 118.255 179.405 118.281 179.988H116.906C116.88 179.639 116.781 179.324 116.609 179.043C116.443 178.762 116.214 178.538 115.922 178.371C115.635 178.199 115.299 178.113 114.914 178.113C114.471 178.113 114.099 178.202 113.797 178.379C113.5 178.551 113.263 178.785 113.086 179.082C112.914 179.374 112.789 179.699 112.711 180.059C112.638 180.413 112.602 180.775 112.602 181.145V181.473C112.602 181.842 112.638 182.207 112.711 182.566C112.784 182.926 112.906 183.251 113.078 183.543C113.255 183.835 113.492 184.069 113.789 184.246C114.091 184.418 114.466 184.504 114.914 184.504ZM121.352 173.535V185.535H119.906V173.535H121.352ZM121.008 180.988L120.406 180.965C120.411 180.387 120.497 179.853 120.664 179.363C120.831 178.868 121.065 178.439 121.367 178.074C121.669 177.71 122.029 177.428 122.445 177.23C122.867 177.027 123.333 176.926 123.844 176.926C124.26 176.926 124.635 176.983 124.969 177.098C125.302 177.207 125.586 177.384 125.82 177.629C126.06 177.874 126.242 178.191 126.367 178.582C126.492 178.967 126.555 179.439 126.555 179.996V185.535H125.102V179.98C125.102 179.538 125.036 179.184 124.906 178.918C124.776 178.647 124.586 178.452 124.336 178.332C124.086 178.207 123.779 178.145 123.414 178.145C123.055 178.145 122.727 178.22 122.43 178.371C122.138 178.522 121.885 178.73 121.672 178.996C121.464 179.262 121.299 179.566 121.18 179.91C121.065 180.249 121.008 180.608 121.008 180.988ZM132.227 185.691C131.638 185.691 131.104 185.592 130.625 185.395C130.151 185.191 129.742 184.908 129.398 184.543C129.06 184.178 128.799 183.746 128.617 183.246C128.435 182.746 128.344 182.199 128.344 181.605V181.277C128.344 180.59 128.445 179.978 128.648 179.441C128.852 178.9 129.128 178.441 129.477 178.066C129.826 177.691 130.221 177.408 130.664 177.215C131.107 177.022 131.565 176.926 132.039 176.926C132.643 176.926 133.164 177.03 133.602 177.238C134.044 177.447 134.406 177.738 134.688 178.113C134.969 178.483 135.177 178.921 135.312 179.426C135.448 179.926 135.516 180.473 135.516 181.066V181.715H129.203V180.535H134.07V180.426C134.049 180.051 133.971 179.686 133.836 179.332C133.706 178.978 133.497 178.686 133.211 178.457C132.924 178.228 132.534 178.113 132.039 178.113C131.711 178.113 131.409 178.184 131.133 178.324C130.857 178.46 130.62 178.663 130.422 178.934C130.224 179.204 130.07 179.535 129.961 179.926C129.852 180.316 129.797 180.767 129.797 181.277V181.605C129.797 182.007 129.852 182.384 129.961 182.738C130.076 183.087 130.24 183.395 130.453 183.66C130.672 183.926 130.935 184.134 131.242 184.285C131.555 184.436 131.909 184.512 132.305 184.512C132.815 184.512 133.247 184.408 133.602 184.199C133.956 183.991 134.266 183.712 134.531 183.363L135.406 184.059C135.224 184.335 134.992 184.598 134.711 184.848C134.43 185.098 134.083 185.301 133.672 185.457C133.266 185.613 132.784 185.691 132.227 185.691ZM142.531 183.895V173.535H143.984V185.535H142.656L142.531 183.895ZM136.844 181.402V181.238C136.844 180.592 136.922 180.007 137.078 179.48C137.24 178.949 137.466 178.493 137.758 178.113C138.055 177.733 138.406 177.441 138.812 177.238C139.224 177.03 139.682 176.926 140.188 176.926C140.719 176.926 141.182 177.02 141.578 177.207C141.979 177.389 142.318 177.658 142.594 178.012C142.875 178.361 143.096 178.783 143.258 179.277C143.419 179.772 143.531 180.332 143.594 180.957V181.676C143.536 182.296 143.424 182.853 143.258 183.348C143.096 183.842 142.875 184.264 142.594 184.613C142.318 184.962 141.979 185.23 141.578 185.418C141.177 185.6 140.708 185.691 140.172 185.691C139.677 185.691 139.224 185.585 138.812 185.371C138.406 185.158 138.055 184.858 137.758 184.473C137.466 184.087 137.24 183.634 137.078 183.113C136.922 182.587 136.844 182.017 136.844 181.402ZM138.297 181.238V181.402C138.297 181.824 138.339 182.22 138.422 182.59C138.51 182.96 138.646 183.285 138.828 183.566C139.01 183.848 139.242 184.069 139.523 184.23C139.805 184.387 140.141 184.465 140.531 184.465C141.01 184.465 141.404 184.363 141.711 184.16C142.023 183.957 142.273 183.689 142.461 183.355C142.648 183.022 142.794 182.66 142.898 182.27V180.387C142.836 180.1 142.745 179.824 142.625 179.559C142.51 179.288 142.359 179.048 142.172 178.84C141.99 178.626 141.763 178.457 141.492 178.332C141.227 178.207 140.911 178.145 140.547 178.145C140.151 178.145 139.81 178.228 139.523 178.395C139.242 178.556 139.01 178.78 138.828 179.066C138.646 179.348 138.51 179.676 138.422 180.051C138.339 180.421 138.297 180.816 138.297 181.238ZM151.406 183.582V177.082H152.859V185.535H151.477L151.406 183.582ZM151.68 181.801L152.281 181.785C152.281 182.348 152.221 182.868 152.102 183.348C151.987 183.822 151.799 184.233 151.539 184.582C151.279 184.931 150.938 185.204 150.516 185.402C150.094 185.595 149.581 185.691 148.977 185.691C148.565 185.691 148.188 185.632 147.844 185.512C147.505 185.392 147.214 185.207 146.969 184.957C146.724 184.707 146.534 184.382 146.398 183.98C146.268 183.579 146.203 183.098 146.203 182.535V177.082H147.648V182.551C147.648 182.931 147.69 183.246 147.773 183.496C147.862 183.741 147.979 183.936 148.125 184.082C148.276 184.223 148.443 184.322 148.625 184.379C148.812 184.436 149.005 184.465 149.203 184.465C149.818 184.465 150.305 184.348 150.664 184.113C151.023 183.874 151.281 183.553 151.438 183.152C151.599 182.746 151.68 182.296 151.68 181.801ZM156.633 173.535V185.535H155.18V173.535H156.633ZM162.461 185.691C161.872 185.691 161.339 185.592 160.859 185.395C160.385 185.191 159.977 184.908 159.633 184.543C159.294 184.178 159.034 183.746 158.852 183.246C158.669 182.746 158.578 182.199 158.578 181.605V181.277C158.578 180.59 158.68 179.978 158.883 179.441C159.086 178.9 159.362 178.441 159.711 178.066C160.06 177.691 160.456 177.408 160.898 177.215C161.341 177.022 161.799 176.926 162.273 176.926C162.878 176.926 163.398 177.03 163.836 177.238C164.279 177.447 164.641 177.738 164.922 178.113C165.203 178.483 165.411 178.921 165.547 179.426C165.682 179.926 165.75 180.473 165.75 181.066V181.715H159.438V180.535H164.305V180.426C164.284 180.051 164.206 179.686 164.07 179.332C163.94 178.978 163.732 178.686 163.445 178.457C163.159 178.228 162.768 178.113 162.273 178.113C161.945 178.113 161.643 178.184 161.367 178.324C161.091 178.46 160.854 178.663 160.656 178.934C160.458 179.204 160.305 179.535 160.195 179.926C160.086 180.316 160.031 180.767 160.031 181.277V181.605C160.031 182.007 160.086 182.384 160.195 182.738C160.31 183.087 160.474 183.395 160.688 183.66C160.906 183.926 161.169 184.134 161.477 184.285C161.789 184.436 162.143 184.512 162.539 184.512C163.049 184.512 163.482 184.408 163.836 184.199C164.19 183.991 164.5 183.712 164.766 183.363L165.641 184.059C165.458 184.335 165.227 184.598 164.945 184.848C164.664 185.098 164.318 185.301 163.906 185.457C163.5 185.613 163.018 185.691 162.461 185.691ZM174.945 177.082V178.191H170.375V177.082H174.945ZM171.922 175.027H173.367V183.441C173.367 183.728 173.411 183.944 173.5 184.09C173.589 184.236 173.703 184.332 173.844 184.379C173.984 184.426 174.135 184.449 174.297 184.449C174.417 184.449 174.542 184.439 174.672 184.418C174.807 184.392 174.909 184.371 174.977 184.355L174.984 185.535C174.87 185.572 174.719 185.605 174.531 185.637C174.349 185.673 174.128 185.691 173.867 185.691C173.513 185.691 173.188 185.621 172.891 185.48C172.594 185.34 172.357 185.105 172.18 184.777C172.008 184.444 171.922 183.996 171.922 183.434V175.027ZM181.625 184.09V179.738C181.625 179.405 181.557 179.116 181.422 178.871C181.292 178.621 181.094 178.428 180.828 178.293C180.562 178.158 180.234 178.09 179.844 178.09C179.479 178.09 179.159 178.152 178.883 178.277C178.612 178.402 178.398 178.566 178.242 178.77C178.091 178.973 178.016 179.191 178.016 179.426H176.57C176.57 179.124 176.648 178.824 176.805 178.527C176.961 178.23 177.185 177.962 177.477 177.723C177.773 177.478 178.128 177.285 178.539 177.145C178.956 176.999 179.419 176.926 179.93 176.926C180.544 176.926 181.086 177.03 181.555 177.238C182.029 177.447 182.398 177.762 182.664 178.184C182.935 178.6 183.07 179.124 183.07 179.754V183.691C183.07 183.973 183.094 184.272 183.141 184.59C183.193 184.908 183.268 185.181 183.367 185.41V185.535H181.859C181.786 185.368 181.729 185.147 181.688 184.871C181.646 184.59 181.625 184.329 181.625 184.09ZM181.875 180.41L181.891 181.426H180.43C180.018 181.426 179.651 181.46 179.328 181.527C179.005 181.59 178.734 181.686 178.516 181.816C178.297 181.947 178.13 182.111 178.016 182.309C177.901 182.501 177.844 182.728 177.844 182.988C177.844 183.254 177.904 183.496 178.023 183.715C178.143 183.934 178.323 184.108 178.562 184.238C178.807 184.363 179.107 184.426 179.461 184.426C179.904 184.426 180.294 184.332 180.633 184.145C180.971 183.957 181.24 183.728 181.438 183.457C181.641 183.186 181.75 182.923 181.766 182.668L182.383 183.363C182.346 183.582 182.247 183.824 182.086 184.09C181.924 184.355 181.708 184.611 181.438 184.855C181.172 185.095 180.854 185.296 180.484 185.457C180.12 185.613 179.708 185.691 179.25 185.691C178.677 185.691 178.174 185.579 177.742 185.355C177.315 185.132 176.982 184.832 176.742 184.457C176.508 184.077 176.391 183.652 176.391 183.184C176.391 182.73 176.479 182.332 176.656 181.988C176.833 181.639 177.089 181.35 177.422 181.121C177.755 180.887 178.156 180.71 178.625 180.59C179.094 180.47 179.617 180.41 180.195 180.41H181.875ZM190.266 183.293C190.266 183.085 190.219 182.892 190.125 182.715C190.036 182.533 189.852 182.368 189.57 182.223C189.294 182.072 188.878 181.941 188.32 181.832C187.852 181.733 187.427 181.616 187.047 181.48C186.672 181.345 186.352 181.181 186.086 180.988C185.826 180.796 185.625 180.569 185.484 180.309C185.344 180.048 185.273 179.743 185.273 179.395C185.273 179.061 185.346 178.746 185.492 178.449C185.643 178.152 185.854 177.889 186.125 177.66C186.401 177.431 186.732 177.251 187.117 177.121C187.503 176.991 187.932 176.926 188.406 176.926C189.083 176.926 189.661 177.046 190.141 177.285C190.62 177.525 190.987 177.845 191.242 178.246C191.497 178.642 191.625 179.082 191.625 179.566H190.18C190.18 179.332 190.109 179.105 189.969 178.887C189.833 178.663 189.633 178.478 189.367 178.332C189.107 178.186 188.786 178.113 188.406 178.113C188.005 178.113 187.68 178.176 187.43 178.301C187.185 178.421 187.005 178.574 186.891 178.762C186.781 178.949 186.727 179.147 186.727 179.355C186.727 179.512 186.753 179.652 186.805 179.777C186.862 179.897 186.961 180.009 187.102 180.113C187.242 180.212 187.44 180.306 187.695 180.395C187.951 180.483 188.276 180.572 188.672 180.66C189.365 180.816 189.935 181.004 190.383 181.223C190.831 181.441 191.164 181.71 191.383 182.027C191.602 182.345 191.711 182.73 191.711 183.184C191.711 183.553 191.633 183.892 191.477 184.199C191.326 184.507 191.104 184.772 190.812 184.996C190.526 185.215 190.182 185.387 189.781 185.512C189.385 185.632 188.94 185.691 188.445 185.691C187.701 185.691 187.07 185.559 186.555 185.293C186.039 185.027 185.648 184.684 185.383 184.262C185.117 183.84 184.984 183.395 184.984 182.926H186.438C186.458 183.322 186.573 183.637 186.781 183.871C186.99 184.1 187.245 184.264 187.547 184.363C187.849 184.457 188.148 184.504 188.445 184.504C188.841 184.504 189.172 184.452 189.438 184.348C189.708 184.243 189.914 184.1 190.055 183.918C190.195 183.736 190.266 183.527 190.266 183.293ZM195.062 173.535V185.535H193.609V173.535H195.062ZM200.227 177.082L196.539 181.027L194.477 183.168L194.359 181.629L195.836 179.863L198.461 177.082H200.227ZM198.906 185.535L195.891 181.504L196.641 180.215L200.609 185.535H198.906ZM206.641 183.293C206.641 183.085 206.594 182.892 206.5 182.715C206.411 182.533 206.227 182.368 205.945 182.223C205.669 182.072 205.253 181.941 204.695 181.832C204.227 181.733 203.802 181.616 203.422 181.48C203.047 181.345 202.727 181.181 202.461 180.988C202.201 180.796 202 180.569 201.859 180.309C201.719 180.048 201.648 179.743 201.648 179.395C201.648 179.061 201.721 178.746 201.867 178.449C202.018 178.152 202.229 177.889 202.5 177.66C202.776 177.431 203.107 177.251 203.492 177.121C203.878 176.991 204.307 176.926 204.781 176.926C205.458 176.926 206.036 177.046 206.516 177.285C206.995 177.525 207.362 177.845 207.617 178.246C207.872 178.642 208 179.082 208 179.566H206.555C206.555 179.332 206.484 179.105 206.344 178.887C206.208 178.663 206.008 178.478 205.742 178.332C205.482 178.186 205.161 178.113 204.781 178.113C204.38 178.113 204.055 178.176 203.805 178.301C203.56 178.421 203.38 178.574 203.266 178.762C203.156 178.949 203.102 179.147 203.102 179.355C203.102 179.512 203.128 179.652 203.18 179.777C203.237 179.897 203.336 180.009 203.477 180.113C203.617 180.212 203.815 180.306 204.07 180.395C204.326 180.483 204.651 180.572 205.047 180.66C205.74 180.816 206.31 181.004 206.758 181.223C207.206 181.441 207.539 181.71 207.758 182.027C207.977 182.345 208.086 182.73 208.086 183.184C208.086 183.553 208.008 183.892 207.852 184.199C207.701 184.507 207.479 184.772 207.188 184.996C206.901 185.215 206.557 185.387 206.156 185.512C205.76 185.632 205.315 185.691 204.82 185.691C204.076 185.691 203.445 185.559 202.93 185.293C202.414 185.027 202.023 184.684 201.758 184.262C201.492 183.84 201.359 183.395 201.359 182.926H202.812C202.833 183.322 202.948 183.637 203.156 183.871C203.365 184.1 203.62 184.264 203.922 184.363C204.224 184.457 204.523 184.504 204.82 184.504C205.216 184.504 205.547 184.452 205.812 184.348C206.083 184.243 206.289 184.1 206.43 183.918C206.57 183.736 206.641 183.527 206.641 183.293Z" fill="#331436"/>
</svg>
