<svg width="11" height="12" viewBox="0 0 11 12" fill="none" xmlns="http://www.w3.org/2000/svg">
<g clip-path="url(#clip0_36_34)">
<path d="M10.9973 11.7676V11.7671H11V7.73289C11 5.75931 10.5751 4.23901 8.26789 4.23901C7.15873 4.23901 6.41439 4.84768 6.11052 5.42472H6.07843V4.42326H3.89081V11.7671H6.16873V8.13072C6.16873 7.17326 6.35023 6.24743 7.53593 6.24743C8.70423 6.24743 8.72164 7.3401 8.72164 8.19214V11.7676H10.9973Z" fill="black"/>
<path d="M0.181488 4.42358H2.46215V11.7675H0.181488V4.42358Z" fill="black"/>
<path d="M1.32092 0.767578C0.591708 0.767578 0 1.35929 0 2.08849C0 2.8177 0.591708 3.42179 1.32092 3.42179C2.05013 3.42179 2.64183 2.8177 2.64183 2.08849C2.64138 1.35929 2.04967 0.767578 1.32092 0.767578V0.767578Z" fill="black"/>
</g>
<defs>
<clipPath id="clip0_36_34">
<rect width="11" height="11" fill="white" transform="translate(0 0.767578)"/>
</clipPath>
</defs>
</svg>
