<svg width="18" height="18" viewBox="0 0 18 18" fill="none" xmlns="http://www.w3.org/2000/svg">
<path fill-rule="evenodd" clip-rule="evenodd" d="M13.1357 13.5326C11.8152 14.6568 10.1035 15.3352 8.23341 15.3352C4.05446 15.3352 0.666748 11.9475 0.666748 7.76854C0.666748 3.58959 4.05446 0.201874 8.23341 0.201874C12.4124 0.201874 15.8001 3.58959 15.8001 7.76854C15.8001 9.62737 15.1298 11.3296 14.0178 12.6469L17.6498 16.2789L16.7659 17.1628L13.1357 13.5326ZM14.5501 7.76854C14.5501 11.2571 11.722 14.0852 8.23341 14.0852C4.74482 14.0852 1.91675 11.2571 1.91675 7.76854C1.91675 4.27994 4.74482 1.45187 8.23341 1.45187C11.722 1.45187 14.5501 4.27994 14.5501 7.76854Z" fill="white" fill-opacity="0.7"/>
</svg>
