<svg width="49" height="49" viewBox="0 0 49 49" fill="none" xmlns="http://www.w3.org/2000/svg">
<path d="M29.9 13.1351C29.5335 13.509 29.3283 14.0116 29.3283 14.5351C29.3283 15.0586 29.5335 15.5613 29.9 15.9351L33.1 19.1351C33.4738 19.5016 33.9765 19.7068 34.5 19.7068C35.0235 19.7068 35.5261 19.5016 35.9 19.1351L43.44 11.5951C44.4457 13.8175 44.7502 16.2936 44.3129 18.6934C43.8756 21.0932 42.7174 23.3028 40.9925 25.0277C39.2677 26.7525 37.0581 27.9108 34.6583 28.348C32.2585 28.7853 29.7824 28.4808 27.56 27.4751L13.74 41.2951C12.9443 42.0908 11.8652 42.5378 10.74 42.5378C9.61477 42.5378 8.53563 42.0908 7.73999 41.2951C6.94434 40.4995 6.49734 39.4203 6.49734 38.2951C6.49734 37.1699 6.94434 36.0908 7.73999 35.2951L21.56 21.4751C20.5543 19.2527 20.2498 16.7766 20.6871 14.3768C21.1243 11.977 22.2826 9.76743 24.0074 8.04256C25.7323 6.31769 27.9419 5.15945 30.3417 4.7222C32.7415 4.28495 35.2176 4.58945 37.44 5.59512L29.9 13.1351Z" stroke="white" stroke-width="4" stroke-linecap="round" stroke-linejoin="round"/>
</svg>
